if (_typeface_js && _typeface_js.loadFace) _typeface_js.loadFace({"glyphs":{"S":{"x_min":0,"x_max":639.5625,"ha":678,"o":"m 250 980 l 284 980 q 428 963 375 980 l 432 963 q 453 977 439 963 q 470 980 461 980 l 579 980 q 602 971 594 980 l 602 681 q 575 670 594 670 l 475 670 q 447 689 447 670 q 422 752 447 734 q 369 763 400 763 l 263 763 q 189 721 202 763 q 186 692 186 707 l 186 625 q 215 560 186 576 q 263 551 240 551 l 271 551 q 349 573 318 551 q 420 552 397 552 q 505 544 444 548 q 602 449 602 526 l 602 196 q 454 67 602 97 q 379 61 423 61 l 372 61 q 206 82 267 61 l 203 82 q 183 67 193 82 q 162 61 174 61 l 59 61 q 33 71 40 61 l 33 394 q 76 404 37 404 l 144 404 q 186 394 180 404 l 186 359 q 224 298 186 309 q 262 293 244 293 l 373 293 q 443 323 429 293 q 448 359 448 337 l 448 451 q 424 507 448 495 q 397 515 409 515 q 350 499 373 515 q 286 519 326 519 l 178 519 q 52 578 82 519 q 33 644 33 607 l 33 820 q 96 940 33 897 q 250 980 155 980 m 615 977 q 637 955 626 977 q 639 946 639 951 l 639 647 q 592 607 639 620 q 581 606 585 606 l 475 606 q 419 633 438 606 q 410 685 415 637 q 366 699 410 699 l 273 699 q 225 676 225 699 q 224 651 224 659 l 224 605 q 227 574 224 588 q 226 573 226 574 q 209 586 213 577 q 201 631 201 600 l 201 687 q 217 735 201 725 q 263 745 233 745 l 367 745 q 421 727 411 745 q 430 674 427 708 q 471 653 441 653 l 575 653 q 616 676 607 653 l 616 971 l 615 977 m 25 889 l 27 889 l 27 887 q 14 820 14 862 l 14 638 q 62 535 14 583 q 171 501 103 501 l 284 501 q 348 476 324 501 l 350 476 q 395 497 370 497 l 397 497 q 427 468 427 491 q 430 447 430 468 l 430 359 q 416 318 430 326 l 414 318 q 415 335 415 330 l 415 406 q 404 449 415 449 q 400 451 401 451 q 362 430 381 451 l 354 429 l 352 429 q 324 446 345 429 q 273 455 315 455 l 173 455 q 5 573 40 455 q 0 606 0 590 l 0 803 q 25 889 0 847 m 596 515 l 598 515 q 639 432 639 480 l 639 158 q 518 18 639 67 q 389 -2 459 -2 l 358 -2 q 213 14 271 -2 q 162 -2 193 -2 l 56 -2 q 2 28 20 -2 q 0 37 0 35 l 0 370 q 13 394 0 382 l 14 394 l 14 71 q 54 44 20 44 l 158 44 q 202 64 189 44 l 203 64 q 371 44 260 44 l 385 44 q 598 126 531 44 q 616 188 616 158 l 616 457 q 596 514 616 489 l 596 515 m 200 400 l 202 400 q 224 366 224 387 l 224 341 q 226 316 224 324 q 225 314 225 316 q 202 349 202 323 q 201 361 201 352 l 201 394 l 200 400 "},"/":{"x_min":0,"x_max":0,"ha":435},"K":{"x_min":0,"x_max":889.828125,"ha":903,"o":"m 56 969 q 232 949 90 965 q 299 946 257 946 q 379 951 338 946 q 403 940 403 946 l 403 771 q 358 760 401 760 q 300 728 317 760 q 298 715 298 720 l 298 639 q 350 592 298 600 q 360 591 359 591 q 432 623 390 591 q 585 730 579 722 q 589 741 589 737 q 567 760 589 760 l 507 760 q 477 771 484 760 l 477 940 q 501 951 477 946 q 554 948 530 948 l 569 948 q 794 967 628 948 q 811 969 797 969 q 833 956 830 969 l 833 771 q 806 760 826 760 l 775 760 q 707 731 744 760 l 484 581 l 457 548 l 457 548 q 631 529 510 548 q 666 527 646 527 l 678 527 q 684 507 679 527 q 717 468 691 486 q 744 416 744 438 l 744 335 q 800 288 744 295 q 852 277 852 288 l 852 75 q 828 64 844 64 l 617 81 q 575 82 579 82 q 500 79 535 81 q 477 89 486 79 l 477 277 q 505 288 486 288 l 529 288 q 585 319 566 288 q 587 333 587 328 l 587 401 q 503 507 587 484 q 425 515 474 515 l 366 515 q 299 478 311 515 q 298 470 298 474 l 298 333 q 333 292 298 304 q 356 288 347 288 l 375 288 q 403 277 395 288 l 403 89 q 383 79 403 84 q 322 80 343 80 q 64 64 268 80 l 55 64 q 33 75 41 64 l 33 277 q 94 288 33 288 q 141 333 141 301 q 141 404 141 358 q 101 538 141 503 l 101 539 q 141 676 141 572 l 141 713 q 85 760 141 752 l 60 760 q 33 771 40 760 l 33 959 q 56 969 41 969 m 847 965 q 870 942 856 965 l 870 932 l 870 739 q 834 699 870 712 q 812 695 823 695 l 781 695 q 736 676 758 695 l 556 556 q 491 563 526 560 l 491 564 q 730 726 525 589 q 771 742 750 742 l 803 742 q 847 769 842 742 l 847 961 l 847 965 m 13 959 l 14 959 l 14 769 q 52 742 14 748 l 78 742 q 120 717 111 742 q 122 701 122 709 q 103 571 122 591 l 98 562 l 96 562 q 106 630 106 591 l 106 686 q 73 695 102 695 l 58 695 q 2 728 19 695 q 0 736 0 731 l 0 935 q 13 959 0 947 m 417 948 l 418 948 q 441 913 441 934 l 441 740 q 391 696 441 706 q 337 686 337 696 l 337 612 l 335 612 q 312 636 312 620 l 312 708 q 339 740 312 733 q 356 742 352 742 l 373 742 q 418 769 418 746 l 418 940 l 417 948 m 457 940 l 459 940 l 459 773 q 482 746 459 753 q 501 742 494 742 l 568 742 q 570 740 570 742 q 504 695 548 721 l 502 695 q 446 728 464 695 q 444 740 444 735 l 444 912 q 457 940 444 929 m 707 536 q 726 516 720 536 q 718 499 726 507 l 718 498 q 723 482 718 494 q 694 527 694 504 q 701 535 694 535 l 707 536 m 73 533 q 109 493 96 522 q 122 407 122 457 q 122 339 122 362 q 106 311 122 317 l 106 312 q 107 360 107 341 l 107 383 q 73 486 107 466 q 48 509 48 491 q 73 533 48 525 m 362 497 l 420 497 q 558 446 534 497 q 568 396 568 429 l 568 335 q 554 311 568 318 l 552 311 l 552 377 q 493 444 552 429 q 402 450 470 450 l 374 450 q 337 441 341 450 l 337 309 l 335 307 q 315 324 321 312 q 312 341 312 328 l 312 459 q 328 490 312 483 q 362 497 341 497 m 734 472 l 735 472 q 783 375 783 434 l 783 309 l 782 307 q 760 330 760 316 l 760 406 q 734 472 760 443 m 417 284 l 418 284 q 441 250 441 271 l 441 60 q 405 18 441 31 q 379 13 402 16 q 375 14 375 14 q 323 15 360 14 q 71 0 284 15 l 54 0 q 3 28 25 0 q 0 40 0 37 l 0 255 q 13 277 0 265 l 14 277 l 14 73 q 44 48 14 55 q 54 46 50 46 q 277 61 67 46 q 314 62 290 62 q 382 61 326 62 q 412 73 403 65 q 418 88 418 81 l 418 277 l 417 284 m 866 284 l 866 284 q 889 251 889 271 l 889 40 q 836 0 889 10 l 831 0 q 641 14 813 0 q 574 17 617 16 q 507 13 533 16 q 449 40 470 13 q 444 60 444 48 l 444 249 q 457 277 444 266 l 459 277 l 459 93 q 477 65 459 73 q 498 61 491 61 q 573 64 559 64 q 823 46 620 64 l 829 46 q 866 69 855 46 l 866 279 l 866 284 "},"7":{"x_min":0,"x_max":774.53125,"ha":814,"o":"m 215 971 l 233 971 q 376 957 272 971 q 527 948 453 948 q 710 967 613 948 q 737 951 731 967 l 737 751 q 598 579 612 607 q 585 533 585 555 l 585 526 q 601 482 585 505 q 577 472 601 480 q 488 366 519 445 q 455 238 473 335 q 440 77 440 145 q 410 64 432 64 l 218 64 q 187 76 197 64 l 187 81 q 316 457 187 252 q 326 499 326 476 q 315 535 326 511 q 409 583 376 549 l 508 691 q 514 710 512 702 q 474 754 514 739 q 449 758 463 758 l 276 758 q 218 733 218 758 q 226 659 226 692 q 193 646 226 649 l 66 646 q 33 661 33 648 l 33 951 q 66 967 33 965 q 215 971 195 971 m 750 962 q 774 927 774 948 l 774 721 q 747 677 774 704 q 626 522 626 537 q 622 502 622 510 q 634 472 622 489 l 634 471 q 599 530 599 497 q 664 640 599 571 q 749 741 688 669 l 751 748 l 751 952 l 750 962 m 13 954 l 14 954 l 14 660 q 59 628 14 632 l 196 628 q 240 651 225 628 q 240 655 240 653 l 240 660 q 233 729 240 698 l 233 731 q 277 740 233 740 l 446 740 q 494 714 482 740 l 494 708 q 477 685 494 697 q 449 693 464 693 l 284 693 q 258 693 275 693 q 263 646 263 669 l 263 628 q 224 586 263 599 q 200 581 215 581 l 64 581 q 1 618 18 581 q 0 627 0 623 l 0 930 q 13 954 0 942 m 277 539 l 285 539 q 307 494 307 518 q 287 444 307 474 l 287 446 q 292 467 292 455 l 292 468 q 265 510 292 485 q 262 520 262 518 q 277 539 262 531 m 638 468 q 658 443 658 451 l 658 440 q 623 419 658 419 q 559 384 574 407 q 507 274 527 356 q 482 131 493 217 q 477 39 479 92 q 453 10 472 21 q 416 0 432 0 l 215 0 q 155 37 173 0 q 153 46 155 42 q 260 399 153 216 l 260 396 q 169 76 169 229 l 169 73 q 214 46 179 46 l 410 46 q 453 69 440 46 q 466 212 459 157 q 512 383 489 343 q 551 436 521 404 q 638 468 592 468 m 263 406 l 264 406 l 264 404 l 263 404 l 263 406 "},"d":{"x_min":0,"x_max":807.078125,"ha":814,"o":"m 470 971 q 663 912 573 971 q 718 780 718 868 l 718 724 q 756 541 718 581 l 756 539 q 716 379 716 504 q 718 263 718 309 q 580 84 718 130 q 463 64 525 64 l 458 64 q 307 80 434 64 q 228 84 233 84 q 215 84 221 84 l 202 84 q 55 69 139 84 q 33 80 42 69 l 33 280 q 60 290 40 290 l 103 290 q 158 318 139 290 q 162 334 161 325 q 163 415 163 387 q 129 539 163 503 q 162 665 162 573 l 162 712 q 128 755 162 743 q 102 759 113 759 l 61 759 q 33 769 41 759 l 33 957 q 52 966 41 966 l 53 966 l 111 954 q 195 948 156 948 q 435 971 276 948 l 470 971 m 13 957 l 14 957 l 14 769 q 57 741 14 746 l 101 741 q 143 710 143 738 l 143 669 q 120 556 143 585 l 118 556 q 129 649 129 585 q 128 687 129 653 q 102 695 118 695 l 62 695 q 2 727 18 695 q 0 739 0 731 l 0 933 q 13 957 0 946 m 692 906 l 693 906 q 739 841 731 871 q 756 725 756 809 q 755 704 756 710 q 780 542 755 581 l 779 542 q 748 586 758 556 q 732 748 732 628 q 733 777 732 759 q 692 905 733 857 l 692 906 m 318 716 q 318 658 318 692 q 352 539 318 573 l 352 538 q 316 413 316 501 q 318 400 318 405 q 318 333 318 383 q 374 290 318 299 l 428 290 q 546 324 526 290 q 562 405 562 347 l 562 422 q 537 535 562 518 l 536 540 q 562 632 562 561 l 562 642 q 522 745 562 730 q 425 759 491 759 l 379 759 q 324 733 342 759 q 318 716 318 724 m 375 741 l 421 741 q 525 720 505 741 q 543 640 543 702 q 523 552 543 568 l 522 552 q 527 590 527 569 l 527 632 q 487 690 527 690 q 394 695 467 695 l 383 695 q 357 687 366 695 q 356 651 356 662 l 356 628 q 372 545 356 569 l 371 545 q 342 583 355 552 q 333 657 333 610 l 333 699 q 346 733 333 729 q 375 741 359 741 m 785 537 q 803 523 786 534 q 807 512 807 517 l 807 507 q 781 484 807 497 q 754 357 754 451 q 756 238 754 314 q 580 17 756 71 q 470 0 526 0 l 453 0 q 314 15 430 0 q 220 19 268 19 l 212 19 q 61 5 147 19 l 56 5 q 1 37 18 5 l 0 45 l 0 259 q 13 280 0 268 l 14 280 l 14 78 q 54 51 20 51 q 198 66 140 66 l 215 66 q 223 67 219 66 q 231 66 227 66 l 238 66 q 428 47 297 66 q 453 46 436 46 l 464 46 q 680 122 585 46 q 733 267 733 177 q 732 278 733 269 q 731 379 732 286 q 769 529 731 502 q 785 537 779 537 m 381 536 q 403 519 400 524 q 405 513 405 516 l 405 507 q 385 487 405 495 q 354 389 355 465 q 357 311 354 357 q 356 310 356 311 q 335 326 342 315 q 333 342 333 337 q 332 415 332 406 q 381 536 332 516 l 381 536 m 104 533 q 145 409 145 512 q 143 336 145 400 q 129 314 143 322 q 128 315 129 315 q 130 381 129 335 q 101 488 130 467 q 80 509 80 493 l 80 513 q 104 533 80 524 m 509 533 l 511 533 q 543 438 543 515 l 543 417 q 525 326 543 341 l 523 326 q 529 415 529 343 q 503 489 529 476 q 487 510 487 495 q 509 533 487 524 "},",":{"x_min":0,"x_max":0,"ha":424},"Y":{"x_min":0,"x_max":859.984375,"ha":882,"o":"m 56 975 q 218 967 152 967 l 220 967 q 375 975 280 967 q 398 965 390 975 l 398 775 q 358 764 393 765 q 346 747 346 758 l 346 743 q 384 675 346 736 q 436 657 406 657 q 503 699 479 657 q 532 745 532 736 l 532 748 q 513 765 532 761 l 488 765 q 457 775 464 765 l 457 965 q 480 975 464 975 q 644 965 589 965 q 800 975 702 965 q 822 965 813 975 l 822 775 q 787 765 822 767 q 720 726 746 765 q 610 564 610 610 l 612 551 q 516 489 547 532 q 505 456 505 479 l 505 335 q 562 289 505 297 l 589 289 q 619 279 612 289 l 619 75 q 595 65 611 65 q 421 78 499 78 q 255 65 349 78 q 231 75 240 65 l 231 279 q 262 289 238 289 l 284 289 q 343 320 326 289 q 346 335 346 329 l 346 454 q 330 494 346 480 q 273 542 303 529 l 243 553 l 244 555 l 244 565 q 110 754 244 613 q 48 766 91 766 q 33 775 35 771 l 33 965 q 56 975 41 975 m 411 972 q 429 956 419 972 l 430 956 q 438 965 430 960 l 438 965 l 438 779 q 459 752 438 758 q 482 747 472 747 l 511 747 q 513 745 513 747 l 513 744 q 480 700 483 703 q 430 724 453 700 l 430 726 l 429 726 q 394 703 429 715 q 407 679 407 680 l 406 679 q 365 737 395 679 q 361 744 364 737 l 361 745 q 363 747 361 747 l 367 747 q 412 773 412 751 l 412 967 l 411 972 m 835 972 q 857 950 846 972 q 859 942 859 946 l 859 741 q 823 704 859 718 q 775 698 815 701 q 729 651 764 694 q 649 536 651 566 l 649 533 q 668 514 668 528 l 668 511 q 638 489 668 492 q 564 457 589 479 q 543 433 543 434 l 543 311 l 542 309 q 520 333 520 318 l 520 463 q 569 515 524 482 q 645 539 597 531 l 645 541 q 626 561 626 547 l 626 567 q 733 716 626 599 q 784 747 754 747 q 835 766 824 747 l 836 771 l 836 967 l 835 972 m 13 965 l 14 965 l 14 775 q 59 747 14 751 q 112 723 99 747 q 225 563 225 601 l 225 560 q 212 542 225 548 l 212 539 q 284 514 252 536 q 327 457 327 477 l 327 340 q 312 314 327 320 l 311 314 l 311 433 q 244 486 286 472 q 203 496 210 493 q 196 514 196 505 q 210 532 196 526 l 210 534 q 101 683 210 563 q 61 700 93 700 q 0 737 14 700 l 0 942 q 13 965 0 953 m 634 286 q 657 255 657 271 l 657 44 q 621 4 657 16 q 599 0 610 0 l 596 0 q 427 13 488 13 q 260 0 359 13 l 256 0 q 199 33 217 0 l 198 40 l 198 255 q 212 279 198 267 l 212 279 l 212 74 q 254 47 219 47 q 419 61 349 61 q 595 47 492 61 q 634 73 634 52 l 634 283 l 633 285 q 634 286 634 285 "},"E":{"x_min":0,"x_max":747.40625,"ha":766,"o":"m 498 971 l 520 971 q 703 960 703 963 q 709 954 709 955 q 684 776 684 831 l 684 760 q 708 634 684 699 l 708 633 q 683 624 701 624 l 578 624 q 552 635 559 624 l 552 684 q 528 744 552 730 q 440 757 507 757 l 389 757 q 320 721 330 757 q 319 713 319 717 l 319 590 q 372 548 319 555 q 392 546 378 546 l 501 546 q 526 536 520 546 l 526 524 q 484 514 521 514 l 375 514 q 324 490 344 514 q 319 469 319 481 l 319 334 q 381 290 319 296 l 430 290 q 533 306 521 290 q 552 356 552 324 l 552 425 q 582 437 557 437 l 679 437 q 709 427 709 436 q 687 271 687 353 q 709 78 687 199 q 679 69 699 69 q 500 63 522 63 q 330 83 457 63 q 222 88 262 88 q 57 69 136 88 q 33 80 33 74 l 33 280 q 55 290 40 290 l 85 290 q 155 314 139 290 q 161 343 161 324 q 162 404 161 370 q 126 538 162 503 q 150 582 146 562 q 161 689 161 609 l 161 705 q 131 751 161 740 q 91 757 115 757 l 56 757 q 33 767 40 757 l 33 953 q 56 963 40 963 q 218 936 135 936 l 226 936 q 451 967 322 936 q 498 971 474 971 m 723 960 l 725 960 q 747 927 747 946 l 747 926 q 721 749 721 790 l 721 737 q 747 608 721 674 l 747 604 q 691 560 747 569 l 576 560 q 522 588 542 560 q 518 607 518 596 l 518 644 q 507 686 518 686 q 464 693 495 693 l 375 693 q 357 684 357 689 l 357 567 l 356 567 q 333 590 333 575 l 333 706 q 387 739 333 739 l 440 739 q 524 723 511 739 q 533 684 533 710 l 533 640 q 550 612 533 619 q 574 607 562 607 l 681 607 q 725 633 719 607 q 699 769 699 696 q 725 955 699 826 l 725 957 q 723 960 723 959 m 13 954 l 14 954 l 14 767 q 54 739 19 739 l 88 739 q 143 706 143 739 l 143 701 q 118 558 143 579 q 116 554 118 554 l 116 556 q 127 639 127 587 l 127 684 q 105 693 120 693 l 75 693 q 0 731 10 693 l 0 931 q 13 954 0 942 m 539 543 q 564 502 564 534 q 530 455 564 468 q 498 451 515 451 l 379 451 q 357 442 364 451 l 357 310 l 356 310 q 333 335 333 318 l 333 461 q 352 492 333 485 q 375 497 362 497 l 483 497 q 538 515 530 497 q 540 522 540 518 l 540 538 l 539 543 m 101 533 q 129 501 116 526 q 143 403 143 467 l 143 342 q 129 314 143 320 l 127 314 q 128 368 128 352 l 128 373 q 101 486 128 466 q 79 511 79 492 q 101 533 79 522 m 725 434 q 747 401 747 420 l 747 397 q 725 248 725 322 l 725 238 q 747 50 725 169 l 747 48 q 693 6 747 16 l 689 6 l 522 0 l 491 0 q 356 15 457 0 q 230 24 282 24 q 59 6 150 24 l 59 6 q 0 49 0 13 l 0 257 q 13 280 0 269 l 14 280 l 14 79 q 56 52 14 56 q 225 71 136 71 q 444 49 308 71 q 499 46 464 46 q 695 54 695 52 q 725 77 725 61 q 703 261 703 194 l 703 282 q 725 427 703 350 l 725 431 l 723 433 q 725 434 725 433 m 532 427 l 533 427 l 533 355 q 518 318 533 329 l 518 318 q 518 338 518 332 l 518 394 q 532 427 518 417 "},"y":{"x_min":0,"x_max":859.984375,"ha":882,"o":"m 56 975 q 218 967 152 967 l 220 967 q 375 975 280 967 q 398 965 390 975 l 398 775 q 358 764 393 765 q 346 747 346 758 l 346 743 q 384 675 346 736 q 436 657 406 657 q 503 699 479 657 q 532 745 532 736 l 532 748 q 513 765 532 761 l 488 765 q 457 775 464 765 l 457 965 q 480 975 464 975 q 644 965 589 965 q 800 975 702 965 q 822 965 813 975 l 822 775 q 787 765 822 767 q 720 726 746 765 q 610 564 610 610 l 612 551 q 516 489 547 532 q 505 456 505 479 l 505 335 q 562 289 505 297 l 589 289 q 619 279 612 289 l 619 75 q 595 65 611 65 q 421 78 499 78 q 255 65 349 78 q 231 75 240 65 l 231 279 q 262 289 238 289 l 284 289 q 343 320 326 289 q 346 335 346 329 l 346 454 q 330 494 346 480 q 273 542 303 529 l 243 553 l 244 555 l 244 565 q 110 754 244 613 q 48 766 91 766 q 33 775 35 771 l 33 965 q 56 975 41 975 m 411 972 q 429 956 419 972 l 430 956 q 438 965 430 960 l 438 965 l 438 779 q 459 752 438 758 q 482 747 472 747 l 511 747 q 513 745 513 747 l 513 744 q 480 700 483 703 q 430 724 453 700 l 430 726 l 429 726 q 394 703 429 715 q 407 679 407 680 l 406 679 q 365 737 395 679 q 361 744 364 737 l 361 745 q 363 747 361 747 l 367 747 q 412 773 412 751 l 412 967 l 411 972 m 835 972 q 857 950 846 972 q 859 942 859 946 l 859 741 q 823 704 859 718 q 775 698 815 701 q 729 651 764 694 q 649 536 651 566 l 649 533 q 668 514 668 528 l 668 511 q 638 489 668 492 q 564 457 589 479 q 543 433 543 434 l 543 311 l 542 309 q 520 333 520 318 l 520 463 q 569 515 524 482 q 645 539 597 531 l 645 541 q 626 561 626 547 l 626 567 q 733 716 626 599 q 784 747 754 747 q 835 766 824 747 l 836 771 l 836 967 l 835 972 m 13 965 l 14 965 l 14 775 q 59 747 14 751 q 112 723 99 747 q 225 563 225 601 l 225 560 q 212 542 225 548 l 212 539 q 284 514 252 536 q 327 457 327 477 l 327 340 q 312 314 327 320 l 311 314 l 311 433 q 244 486 286 472 q 203 496 210 493 q 196 514 196 505 q 210 532 196 526 l 210 534 q 101 683 210 563 q 61 700 93 700 q 0 737 14 700 l 0 942 q 13 965 0 953 m 634 286 q 657 255 657 271 l 657 44 q 621 4 657 16 q 599 0 610 0 l 596 0 q 427 13 488 13 q 260 0 359 13 l 256 0 q 199 33 217 0 l 198 40 l 198 255 q 212 279 198 267 l 212 279 l 212 74 q 254 47 219 47 q 419 61 349 61 q 595 47 492 61 q 634 73 634 52 l 634 283 l 633 285 q 634 286 634 285 "},"\"":{"x_min":0,"x_max":0,"ha":496},"g":{"x_min":0,"x_max":788.09375,"ha":797,"o":"m 314 984 l 347 984 q 491 967 427 984 l 493 967 q 516 982 499 967 q 531 984 525 984 l 645 984 q 667 974 660 984 q 655 810 655 873 l 655 796 q 667 664 655 726 q 636 656 657 656 l 539 656 q 508 666 515 656 l 508 668 q 484 748 508 723 q 393 765 464 765 l 378 765 q 277 733 299 765 q 263 659 263 717 q 284 541 263 567 l 284 540 q 263 419 263 514 l 263 408 q 284 326 263 343 q 383 291 315 291 l 391 291 q 509 387 509 291 l 509 474 q 451 519 509 512 l 391 519 q 366 529 374 519 l 366 538 q 397 552 366 552 l 718 552 q 750 541 743 552 l 750 529 q 706 516 750 521 q 667 470 667 503 q 651 270 651 362 q 667 66 651 180 q 643 58 657 58 l 534 58 q 503 73 511 58 q 491 78 495 78 q 333 58 425 58 l 318 58 q 121 131 166 58 q 105 189 105 162 q 106 318 106 265 l 106 332 q 52 540 106 490 l 52 541 q 106 760 106 585 q 105 849 105 822 q 250 980 105 959 q 314 984 276 984 m 682 980 l 684 980 q 706 947 706 966 q 692 770 692 837 q 706 634 692 708 q 662 593 706 607 q 644 591 653 591 l 534 591 q 479 619 499 591 q 470 673 475 628 q 453 695 465 695 q 394 700 426 700 q 308 685 325 700 q 302 642 302 672 l 302 628 q 322 529 302 534 q 330 516 330 522 l 330 511 q 314 489 330 501 q 302 415 302 461 l 302 357 q 308 326 302 343 l 307 326 q 279 384 279 345 l 279 421 q 301 534 279 518 q 307 540 301 534 l 307 541 q 285 573 292 551 q 279 636 279 601 l 279 676 q 311 739 279 730 q 381 747 339 747 l 393 747 q 476 729 462 747 q 489 663 489 704 q 537 638 497 638 l 634 638 q 682 660 674 638 l 682 664 q 669 792 669 729 q 682 975 669 872 l 682 980 m 98 909 l 98 908 q 86 847 86 877 q 88 752 86 819 q 51 568 88 614 l 51 571 q 71 722 71 616 l 71 826 q 98 909 71 872 m 765 548 q 788 517 788 533 l 788 495 q 739 454 788 468 q 705 438 705 454 q 690 233 690 334 q 706 35 690 149 q 659 -5 706 7 q 646 -6 653 -6 l 529 -6 q 486 10 509 -6 q 348 -6 426 -6 l 312 -6 q 86 93 140 -6 q 71 160 71 128 q 73 299 71 198 q 23 489 73 454 q 0 511 0 497 l 0 516 q 23 536 0 528 q 56 505 39 529 q 88 323 88 449 l 88 318 q 86 191 88 266 q 202 53 86 89 q 312 40 256 40 l 327 40 q 489 60 428 40 q 532 40 501 40 l 642 40 q 682 66 676 40 q 667 253 667 168 l 667 282 q 685 482 667 377 q 732 501 699 501 q 765 525 765 510 l 765 545 l 763 548 q 765 548 765 548 m 346 541 l 347 541 l 347 534 q 362 507 347 514 q 391 501 375 501 l 438 501 q 491 470 491 501 l 491 384 q 474 335 491 356 l 472 335 q 476 371 476 349 l 476 444 q 437 454 476 453 l 389 454 q 335 484 356 454 q 333 500 333 491 l 333 513 q 346 541 333 530 "},"e":{"x_min":0,"x_max":747.40625,"ha":766,"o":"m 498 971 l 520 971 q 703 960 703 963 q 709 954 709 955 q 684 776 684 831 l 684 760 q 708 634 684 699 l 708 633 q 683 624 701 624 l 578 624 q 552 635 559 624 l 552 684 q 528 744 552 730 q 440 757 507 757 l 389 757 q 320 721 330 757 q 319 713 319 717 l 319 590 q 372 548 319 555 q 392 546 378 546 l 501 546 q 526 536 520 546 l 526 524 q 484 514 521 514 l 375 514 q 324 490 344 514 q 319 469 319 481 l 319 334 q 381 290 319 296 l 430 290 q 533 306 521 290 q 552 356 552 324 l 552 425 q 582 437 557 437 l 679 437 q 709 427 709 436 q 687 271 687 353 q 709 78 687 199 q 679 69 699 69 q 500 63 522 63 q 330 83 457 63 q 222 88 262 88 q 57 69 136 88 q 33 80 33 74 l 33 280 q 55 290 40 290 l 85 290 q 155 314 139 290 q 161 343 161 324 q 162 404 161 370 q 126 538 162 503 q 150 582 146 562 q 161 689 161 609 l 161 705 q 131 751 161 740 q 91 757 115 757 l 56 757 q 33 767 40 757 l 33 953 q 56 963 40 963 q 218 936 135 936 l 226 936 q 451 967 322 936 q 498 971 474 971 m 723 960 l 725 960 q 747 927 747 946 l 747 926 q 721 749 721 790 l 721 737 q 747 608 721 674 l 747 604 q 691 560 747 569 l 576 560 q 522 588 542 560 q 518 607 518 596 l 518 644 q 507 686 518 686 q 464 693 495 693 l 375 693 q 357 684 357 689 l 357 567 l 356 567 q 333 590 333 575 l 333 706 q 387 739 333 739 l 440 739 q 524 723 511 739 q 533 684 533 710 l 533 640 q 550 612 533 619 q 574 607 562 607 l 681 607 q 725 633 719 607 q 699 769 699 696 q 725 955 699 826 l 725 957 q 723 960 723 959 m 13 954 l 14 954 l 14 767 q 54 739 19 739 l 88 739 q 143 706 143 739 l 143 701 q 118 558 143 579 q 116 554 118 554 l 116 556 q 127 639 127 587 l 127 684 q 105 693 120 693 l 75 693 q 0 731 10 693 l 0 931 q 13 954 0 942 m 539 543 q 564 502 564 534 q 530 455 564 468 q 498 451 515 451 l 379 451 q 357 442 364 451 l 357 310 l 356 310 q 333 335 333 318 l 333 461 q 352 492 333 485 q 375 497 362 497 l 483 497 q 538 515 530 497 q 540 522 540 518 l 540 538 l 539 543 m 101 533 q 129 501 116 526 q 143 403 143 467 l 143 342 q 129 314 143 320 l 127 314 q 128 368 128 352 l 128 373 q 101 486 128 466 q 79 511 79 492 q 101 533 79 522 m 725 434 q 747 401 747 420 l 747 397 q 725 248 725 322 l 725 238 q 747 50 725 169 l 747 48 q 693 6 747 16 l 689 6 l 522 0 l 491 0 q 356 15 457 0 q 230 24 282 24 q 59 6 150 24 l 59 6 q 0 49 0 13 l 0 257 q 13 280 0 269 l 14 280 l 14 79 q 56 52 14 56 q 225 71 136 71 q 444 49 308 71 q 499 46 464 46 q 695 54 695 52 q 725 77 725 61 q 703 261 703 194 l 703 282 q 725 427 703 350 l 725 431 l 723 433 q 725 434 725 433 m 532 427 l 533 427 l 533 355 q 518 318 533 329 l 518 318 q 518 338 518 332 l 518 394 q 532 427 518 417 "},"J":{"x_min":0,"x_max":624.640625,"ha":650,"o":"m 122 971 l 125 971 q 345 950 242 950 q 564 971 444 950 l 567 971 q 587 962 578 971 l 587 773 q 560 762 580 762 l 519 762 q 458 729 474 762 q 454 640 455 729 q 501 536 454 574 q 454 315 454 493 q 456 164 456 200 q 394 75 456 100 q 250 54 343 54 l 242 54 q 43 123 82 54 q 33 175 33 146 l 33 425 q 59 436 40 436 l 153 436 q 179 425 172 436 l 179 346 q 238 287 179 287 l 246 287 q 299 345 290 287 q 299 379 299 364 l 299 419 q 246 536 299 492 l 246 537 q 301 655 301 577 q 299 718 299 697 q 257 760 299 747 q 238 762 244 762 l 128 762 q 101 773 109 762 l 101 961 q 122 971 101 967 m 600 969 q 622 946 611 969 q 624 938 624 943 l 624 738 q 571 697 624 708 l 524 697 q 494 689 503 697 l 491 619 q 507 554 491 577 l 507 552 q 468 650 468 578 q 474 727 470 727 q 517 744 489 744 l 560 744 q 602 769 593 744 l 602 963 l 600 969 m 82 962 l 82 962 l 82 775 q 105 748 82 755 q 124 744 116 744 l 234 744 q 280 718 273 744 q 281 706 281 714 l 281 648 q 259 575 281 604 l 258 575 q 267 627 267 599 l 267 636 q 265 689 267 653 q 233 697 256 697 l 126 697 q 70 729 88 697 q 68 742 68 737 l 68 932 q 82 962 68 951 m 528 535 q 554 511 554 525 l 554 506 q 531 484 554 495 q 492 300 492 446 q 494 143 492 226 q 377 2 494 29 q 265 -10 323 -10 l 232 -10 q 12 80 62 -10 q 0 133 0 109 l 0 404 q 13 427 0 413 l 14 425 l 14 173 q 236 36 14 36 l 248 36 q 456 105 419 36 q 472 170 472 133 l 470 183 q 470 333 470 286 q 520 531 470 495 q 528 535 526 535 m 217 531 q 281 415 281 496 l 281 384 q 265 312 281 318 q 264 311 265 311 q 267 383 267 352 q 201 493 267 463 q 194 508 194 501 q 217 531 194 526 m 193 433 l 194 433 q 217 398 217 419 l 217 328 q 218 307 217 322 q 217 306 217 307 q 195 341 195 314 q 194 358 194 341 l 194 425 l 193 433 "},"^":{"x_min":0,"x_max":0,"ha":688},"q":{"x_min":0,"x_max":835.578125,"ha":849,"o":"m 399 986 l 438 986 q 709 896 657 986 q 728 815 728 861 q 727 784 727 796 l 727 741 q 780 541 727 583 l 780 539 q 726 333 726 493 q 727 242 727 283 q 728 217 727 234 q 613 67 728 105 q 521 49 581 56 q 485 31 505 49 q 474 4 474 18 q 513 -40 474 -21 q 581 -49 537 -49 l 703 -49 q 728 -59 720 -49 l 728 -139 q 701 -149 720 -149 l 628 -149 q 387 -63 442 -149 q 370 14 370 -31 q 355 36 368 24 q 289 53 344 48 q 189 83 225 63 q 111 219 111 130 l 111 224 q 113 339 111 249 q 54 539 113 498 l 54 540 q 112 697 112 591 q 111 832 112 722 q 139 910 111 868 q 399 986 206 986 m 705 929 l 706 929 q 766 786 766 879 l 766 695 q 798 548 766 590 l 797 548 q 741 742 741 583 q 743 775 743 758 l 743 815 q 705 929 743 885 m 107 893 l 107 891 q 90 815 90 855 q 92 807 90 813 q 93 702 93 743 q 61 576 93 619 l 61 578 q 78 691 78 616 q 76 791 78 701 q 107 893 76 849 m 273 669 q 305 538 273 575 q 273 424 273 505 l 273 383 q 338 292 273 320 l 340 292 q 360 312 358 292 l 360 383 q 399 394 360 392 l 438 394 q 478 383 478 392 l 478 315 q 498 292 478 292 q 543 322 514 292 q 564 371 564 348 q 566 440 566 371 l 566 453 q 538 537 566 505 l 538 538 q 566 618 566 567 q 551 735 566 725 q 524 758 551 744 q 478 765 508 765 l 361 765 q 285 729 297 765 q 273 669 273 709 m 370 747 l 479 747 q 535 725 524 747 q 547 621 547 712 l 547 616 q 528 555 547 576 l 526 555 q 532 596 531 572 q 521 689 532 674 q 472 699 514 699 l 382 699 q 325 691 325 699 q 312 648 312 679 l 312 633 q 328 541 312 575 l 326 541 q 289 655 289 565 l 289 679 q 330 744 289 735 q 370 747 341 747 m 809 535 q 835 512 835 524 l 835 506 q 809 484 835 493 q 765 313 767 451 q 766 177 765 287 q 720 59 766 113 q 619 0 671 13 q 522 -17 590 -8 q 512 -22 516 -22 q 491 1 497 -16 l 491 6 q 562 36 491 31 q 664 70 626 48 q 743 210 743 121 q 741 335 741 288 q 792 526 741 489 q 809 535 803 535 m 331 535 l 333 535 q 354 522 335 532 q 358 506 358 514 q 336 484 358 493 q 311 385 311 464 q 318 326 311 337 q 322 318 322 322 q 288 396 288 339 l 288 403 q 319 526 288 507 q 331 535 320 529 m 23 533 q 65 497 48 524 q 94 345 94 451 q 92 237 92 254 q 90 228 92 234 q 254 40 90 75 q 329 29 288 34 q 353 -5 353 21 q 421 -124 353 -78 q 624 -168 496 -168 l 701 -168 q 743 -140 737 -168 l 743 -59 l 741 -52 l 743 -52 q 766 -87 766 -66 l 766 -168 q 710 -215 766 -206 l 621 -215 q 389 -149 467 -215 q 337 -23 337 -102 q 263 -8 337 -17 q 129 55 169 12 q 76 196 76 110 q 78 317 78 290 l 78 337 q 30 482 78 448 q 1 501 1 494 q 0 506 0 503 l 0 512 q 23 533 0 524 m 511 533 q 540 495 531 522 q 547 444 547 474 l 547 441 q 540 354 547 354 q 528 333 537 343 l 528 334 q 532 419 532 350 q 504 488 532 472 q 487 506 487 495 l 487 511 q 511 533 487 524 m 493 390 q 517 348 517 377 l 517 322 q 495 309 503 309 l 494 311 l 494 377 q 491 389 494 385 q 493 390 493 389 m 340 383 l 341 383 l 341 311 q 339 309 341 309 l 337 309 q 325 317 326 314 l 325 345 q 340 383 325 374 "},"b":{"x_min":0,"x_max":841.671875,"ha":846,"o":"m 492 971 l 510 971 q 683 925 581 971 q 744 864 729 900 q 752 805 752 838 q 786 741 759 769 q 790 737 788 741 q 750 642 750 711 q 729 599 750 621 q 663 569 706 581 q 612 548 612 559 q 611 543 611 545 l 611 540 q 676 492 611 504 q 737 458 718 480 q 752 396 746 447 q 780 323 752 362 l 780 322 q 751 240 751 299 q 661 117 751 167 q 497 64 573 64 l 495 64 q 355 76 486 64 q 236 81 303 81 l 233 81 q 54 66 153 81 l 52 66 q 33 75 42 66 l 33 278 q 56 288 41 288 l 83 288 q 162 327 155 288 q 163 331 163 328 q 164 410 164 395 q 124 535 164 500 l 124 536 q 163 650 163 571 l 163 712 q 122 756 163 745 q 92 759 110 759 l 56 759 q 33 770 40 759 l 33 957 q 56 967 33 964 q 212 944 131 944 l 240 944 q 474 970 311 944 q 492 971 478 971 m 13 958 l 14 958 l 14 769 q 56 741 14 745 l 89 741 q 144 708 144 741 l 144 653 q 120 559 144 585 l 120 561 q 130 639 130 587 l 130 645 q 128 687 130 660 q 107 694 118 694 l 76 694 q 0 732 10 694 l 0 935 q 13 958 4 952 m 739 902 l 739 902 q 778 851 767 877 q 790 782 790 824 q 806 746 793 765 l 806 745 q 770 798 780 763 q 763 851 766 810 q 739 901 756 881 l 739 902 m 318 714 l 318 594 q 358 550 318 561 q 389 546 372 546 l 472 546 q 561 575 545 546 q 570 626 570 592 l 570 696 q 521 757 570 757 q 487 759 514 759 l 388 759 q 321 730 338 759 q 318 714 318 719 m 388 741 l 472 741 q 541 732 541 741 q 552 691 550 732 l 552 632 q 535 575 552 575 l 535 577 q 536 588 536 583 l 536 675 q 530 692 536 692 q 505 694 518 694 l 378 694 q 356 686 364 694 l 356 567 l 355 567 q 333 588 341 567 l 333 716 q 364 739 333 732 q 388 741 370 741 m 819 733 q 841 710 841 722 l 841 704 q 815 681 841 693 q 788 610 788 666 q 752 540 788 575 q 681 507 723 520 l 679 507 q 626 541 626 517 q 735 581 705 561 q 767 673 767 603 q 794 720 772 700 q 819 733 813 733 m 96 531 q 145 407 145 508 q 144 335 144 347 q 130 312 144 320 l 128 312 l 130 378 q 93 485 130 466 q 71 505 71 493 l 71 511 q 96 531 71 524 m 318 467 l 318 335 q 398 288 318 288 l 476 288 q 556 304 546 288 q 570 351 570 310 l 570 439 q 556 499 570 490 q 501 514 534 514 l 374 514 q 318 467 318 507 m 374 497 l 499 497 q 548 474 548 493 q 552 434 551 474 l 552 362 q 544 316 552 316 q 536 311 539 311 l 536 427 q 529 445 536 445 q 492 450 518 450 l 379 450 q 356 441 356 446 l 356 308 l 355 308 q 333 331 333 316 l 333 472 q 374 497 333 491 m 749 470 q 780 425 773 453 q 792 351 784 411 q 821 307 805 314 q 827 295 827 299 l 827 288 q 803 263 827 279 q 788 201 788 252 q 603 19 788 94 q 505 0 550 0 l 492 0 q 352 12 484 0 q 239 16 290 16 q 61 1 151 16 q 4 29 23 1 q 0 44 0 35 l 0 254 q 13 278 0 266 l 14 278 l 14 74 q 56 48 14 52 q 234 63 139 63 q 486 46 335 63 l 495 46 q 706 126 593 46 q 757 191 749 164 q 767 267 767 206 q 792 310 774 297 q 804 320 804 318 l 804 322 q 772 370 785 333 q 759 444 768 387 q 749 467 755 458 l 749 470 "},"D":{"x_min":0,"x_max":807.078125,"ha":814,"o":"m 470 971 q 663 912 573 971 q 718 780 718 868 l 718 724 q 756 541 718 581 l 756 539 q 716 379 716 504 q 718 263 718 309 q 580 84 718 130 q 463 64 525 64 l 458 64 q 307 80 434 64 q 228 84 233 84 q 215 84 221 84 l 202 84 q 55 69 139 84 q 33 80 42 69 l 33 280 q 60 290 40 290 l 103 290 q 158 318 139 290 q 162 334 161 325 q 163 415 163 387 q 129 539 163 503 q 162 665 162 573 l 162 712 q 128 755 162 743 q 102 759 113 759 l 61 759 q 33 769 41 759 l 33 957 q 52 966 41 966 l 53 966 l 111 954 q 195 948 156 948 q 435 971 276 948 l 470 971 m 13 957 l 14 957 l 14 769 q 57 741 14 746 l 101 741 q 143 710 143 738 l 143 669 q 120 556 143 585 l 118 556 q 129 649 129 585 q 128 687 129 653 q 102 695 118 695 l 62 695 q 2 727 18 695 q 0 739 0 731 l 0 933 q 13 957 0 946 m 692 906 l 693 906 q 739 841 731 871 q 756 725 756 809 q 755 704 756 710 q 780 542 755 581 l 779 542 q 748 586 758 556 q 732 748 732 628 q 733 777 732 759 q 692 905 733 857 l 692 906 m 318 716 q 318 658 318 692 q 352 539 318 573 l 352 538 q 316 413 316 501 q 318 400 318 405 q 318 333 318 383 q 374 290 318 299 l 428 290 q 546 324 526 290 q 562 405 562 347 l 562 422 q 537 535 562 518 l 536 540 q 562 632 562 561 l 562 642 q 522 745 562 730 q 425 759 491 759 l 379 759 q 324 733 342 759 q 318 716 318 724 m 375 741 l 421 741 q 525 720 505 741 q 543 640 543 702 q 523 552 543 568 l 522 552 q 527 590 527 569 l 527 632 q 487 690 527 690 q 394 695 467 695 l 383 695 q 357 687 366 695 q 356 651 356 662 l 356 628 q 372 545 356 569 l 371 545 q 342 583 355 552 q 333 657 333 610 l 333 699 q 346 733 333 729 q 375 741 359 741 m 785 537 q 803 523 786 534 q 807 512 807 517 l 807 507 q 781 484 807 497 q 754 357 754 451 q 756 238 754 314 q 580 17 756 71 q 470 0 526 0 l 453 0 q 314 15 430 0 q 220 19 268 19 l 212 19 q 61 5 147 19 l 56 5 q 1 37 18 5 l 0 45 l 0 259 q 13 280 0 268 l 14 280 l 14 78 q 54 51 20 51 q 198 66 140 66 l 215 66 q 223 67 219 66 q 231 66 227 66 l 238 66 q 428 47 297 66 q 453 46 436 46 l 464 46 q 680 122 585 46 q 733 267 733 177 q 732 278 733 269 q 731 379 732 286 q 769 529 731 502 q 785 537 779 537 m 381 536 q 403 519 400 524 q 405 513 405 516 l 405 507 q 385 487 405 495 q 354 389 355 465 q 357 311 354 357 q 356 310 356 311 q 335 326 342 315 q 333 342 333 337 q 332 415 332 406 q 381 536 332 516 l 381 536 m 104 533 q 145 409 145 512 q 143 336 145 400 q 129 314 143 322 q 128 315 129 315 q 130 381 129 335 q 101 488 130 467 q 80 509 80 493 l 80 513 q 104 533 80 524 m 509 533 l 511 533 q 543 438 543 515 l 543 417 q 525 326 543 341 l 523 326 q 529 415 529 343 q 503 489 529 476 q 487 510 487 495 q 509 533 487 524 "},"z":{"x_min":0,"x_max":630.0625,"ha":655,"o":"m 170 973 l 190 973 q 298 958 205 973 q 394 952 343 952 l 406 952 q 569 969 482 952 q 592 958 592 965 l 592 754 q 473 623 520 676 q 423 522 423 560 q 424 510 424 516 l 424 508 l 423 508 q 343 469 388 508 q 272 374 308 430 q 251 335 251 352 q 301 292 251 301 q 318 290 307 290 l 341 290 q 430 326 417 290 q 437 372 437 339 l 437 447 q 461 457 444 457 l 569 457 q 592 447 585 457 l 592 80 q 565 69 585 69 l 432 64 q 315 80 404 64 q 208 86 264 86 q 58 69 132 86 q 33 80 41 69 l 33 298 q 164 470 144 423 q 179 525 179 499 q 176 543 179 533 l 205 553 q 309 626 244 561 l 364 692 q 374 716 374 705 q 324 760 374 750 q 304 761 314 761 l 275 761 q 202 747 214 761 q 188 704 188 731 l 188 653 q 162 643 181 643 l 56 643 q 33 653 40 643 l 33 958 q 54 969 41 969 l 170 973 m 606 965 l 608 965 q 630 932 630 952 l 630 720 q 589 667 630 706 l 516 588 q 461 495 461 522 q 470 476 461 484 l 470 474 q 418 443 418 474 l 418 368 q 404 321 418 331 l 402 321 q 404 352 404 333 l 404 420 q 409 438 404 430 l 409 439 q 309 332 371 431 q 292 310 293 311 l 290 310 q 266 335 266 319 q 297 382 266 341 q 366 467 330 435 q 433 492 399 492 l 451 492 l 451 494 q 439 522 439 505 l 439 523 q 579 714 439 575 q 606 747 606 745 q 607 751 607 748 l 607 960 l 606 965 m 13 959 l 14 959 l 14 653 q 54 626 20 626 l 162 626 q 202 653 197 626 l 202 697 q 218 738 202 731 q 282 744 236 744 l 297 744 q 355 714 355 744 q 339 690 355 708 q 318 696 328 696 l 257 696 q 227 688 227 696 q 225 663 225 678 l 225 624 q 168 579 225 585 q 147 578 163 578 l 76 578 q 0 616 10 578 l 0 936 q 13 959 0 946 m 152 549 q 160 521 160 539 q 133 453 160 495 l 133 455 q 145 491 145 478 l 145 498 q 132 522 145 506 l 131 528 q 152 549 135 549 m 606 455 l 608 455 q 630 421 630 442 l 630 45 q 587 7 630 21 q 447 0 587 5 l 435 0 q 312 15 398 0 q 210 21 256 21 q 60 5 149 21 l 58 5 q 2 37 19 5 q 0 45 0 41 l 0 271 q 13 298 0 286 l 14 298 l 14 78 q 56 51 14 56 q 208 68 135 68 q 402 47 290 68 q 437 46 420 46 q 588 56 588 51 q 607 75 607 65 l 607 449 l 606 455 "},"w":{"x_min":0,"x_max":1304.90625,"ha":1327,"o":"m 56 970 q 194 955 136 955 l 195 955 q 356 970 269 955 l 357 970 q 378 961 370 970 l 378 763 q 376 761 378 761 l 354 761 q 291 724 304 761 l 291 717 q 319 619 291 707 q 406 340 402 351 q 425 332 413 332 q 450 370 442 332 q 562 717 553 683 q 518 759 562 747 q 474 767 475 763 q 467 771 470 768 l 467 960 q 492 970 474 970 q 634 961 579 961 l 664 961 q 811 970 715 961 q 832 960 824 970 l 832 771 q 779 759 832 762 q 738 717 738 745 q 850 368 744 691 q 876 332 857 332 l 877 332 q 903 370 897 332 q 1017 740 1017 734 l 1017 744 q 999 761 1017 758 l 951 761 q 922 771 929 761 l 922 961 q 944 970 929 970 q 1094 964 1030 964 q 1246 970 1146 964 q 1267 961 1258 970 l 1267 771 q 1218 760 1267 761 q 1178 739 1197 757 q 1148 647 1165 713 q 1144 603 1144 622 l 1144 598 q 1160 544 1144 564 l 1160 541 q 1115 495 1132 522 q 1055 356 1089 463 q 1049 333 1049 339 l 1049 328 q 1091 290 1049 303 q 1138 278 1138 286 l 1138 73 q 1117 65 1129 65 q 955 71 1005 71 q 812 65 906 71 q 788 83 788 67 l 669 494 q 655 502 663 502 l 644 502 q 623 469 629 502 q 510 73 621 465 q 486 65 499 65 q 324 73 394 73 q 183 65 271 73 q 162 73 170 65 l 162 278 q 210 290 162 287 q 250 328 250 305 l 250 333 q 210 455 250 349 q 160 529 189 499 q 143 541 158 529 q 158 593 158 564 q 124 736 158 639 q 55 761 108 761 q 33 771 42 761 l 33 961 q 56 970 41 970 m 392 967 l 394 967 q 417 933 417 953 l 417 716 q 396 696 413 696 l 361 696 q 328 688 337 696 q 425 376 419 396 l 425 376 l 527 688 q 480 697 518 697 q 434 740 434 710 l 434 933 q 448 961 434 950 l 448 961 l 448 773 q 469 748 448 755 q 512 742 484 742 q 541 718 541 733 l 541 714 q 423 349 531 678 l 419 349 q 361 537 417 349 q 305 717 305 710 q 328 739 305 729 q 352 744 336 744 l 394 744 l 394 960 l 392 967 m 846 967 q 869 944 855 967 l 870 933 l 870 740 q 815 696 870 707 q 777 687 781 696 q 878 376 788 653 l 879 376 l 978 696 l 949 696 q 889 733 903 696 q 887 744 887 738 l 887 929 q 901 960 887 950 l 902 960 l 902 777 q 928 746 902 752 q 945 744 940 744 l 996 744 q 999 740 999 744 q 876 347 883 362 l 875 347 q 862 380 871 347 q 754 715 754 710 l 754 716 q 800 744 754 739 q 847 769 841 744 l 847 962 l 846 967 m 1281 967 q 1302 945 1291 967 q 1304 937 1304 941 l 1304 737 q 1258 697 1304 711 q 1206 680 1206 697 q 1181 568 1181 603 q 1186 543 1181 559 l 1185 543 q 1158 600 1158 558 q 1188 726 1158 638 q 1252 744 1199 744 q 1281 767 1281 754 l 1281 962 l 1281 967 m 13 961 l 14 961 l 14 771 q 52 744 14 750 q 110 716 107 744 q 139 597 139 636 l 139 589 q 123 548 139 561 q 124 564 124 558 q 94 689 124 606 q 40 699 94 695 q 0 737 0 714 l 0 937 q 13 961 0 948 m 1192 535 q 1217 516 1215 524 l 1217 508 q 1193 487 1217 491 q 1127 412 1159 474 q 1089 307 1089 318 l 1088 307 q 1064 333 1064 316 q 1125 482 1094 436 q 1190 535 1153 524 l 1192 535 m 115 533 q 193 446 162 516 q 231 332 212 401 l 231 330 q 215 310 231 320 q 160 446 187 405 q 106 489 140 478 q 92 506 92 495 l 92 512 q 115 533 92 524 m 651 484 q 664 444 653 484 q 775 62 771 71 q 812 46 790 46 q 955 53 885 52 q 1117 46 1020 52 q 1153 67 1138 46 l 1154 79 l 1154 272 l 1153 285 q 1177 246 1177 273 l 1177 46 q 1125 0 1177 10 l 1119 0 q 970 5 1019 5 l 943 5 q 815 0 901 5 q 758 34 769 3 q 653 404 653 401 l 651 404 q 541 25 547 33 q 485 0 522 0 q 335 8 415 6 q 185 0 287 8 q 133 25 153 0 q 127 46 127 34 l 127 243 q 141 278 127 268 l 143 276 l 143 71 q 183 46 151 46 q 322 55 269 55 q 485 46 387 55 q 527 80 520 46 q 644 484 642 482 l 651 484 "},"$":{"x_min":90.875,"x_max":1424.265625,"ha":1522,"o":"m 1033 949 l 1081 949 q 1091 942 1088 949 l 1091 897 q 1082 888 1091 888 l 1029 888 q 1020 900 1020 888 l 1020 938 q 1033 949 1020 949 m 482 946 q 533 944 529 944 q 581 946 542 944 l 581 945 q 560 892 560 933 l 560 872 q 578 815 560 826 q 558 758 558 795 q 571 666 560 666 q 582 659 582 660 l 581 656 q 540 660 568 660 q 482 656 518 660 l 481 659 q 502 687 502 670 q 506 757 506 722 q 484 815 506 800 l 484 817 q 503 857 503 826 q 505 866 505 857 q 485 942 505 935 q 482 945 482 942 l 482 946 m 589 945 q 647 940 623 940 q 686 944 661 940 q 687 942 686 942 q 685 927 686 940 q 733 777 685 908 l 744 745 l 746 745 l 746 773 q 732 813 746 805 q 744 853 742 813 q 735 935 744 935 l 725 944 l 725 945 q 756 942 751 944 q 792 945 781 945 q 844 941 822 941 q 886 945 859 941 l 887 942 q 868 893 868 934 l 868 807 q 923 904 879 821 l 924 912 l 924 921 q 905 940 924 933 l 905 942 q 908 945 906 945 q 950 941 929 941 q 990 945 964 941 l 991 942 q 936 857 973 930 q 927 836 927 844 q 952 818 927 825 l 952 817 q 943 798 948 817 q 1006 663 950 752 q 1007 661 1007 663 l 1007 659 l 1006 656 q 959 661 988 660 q 906 656 927 660 l 905 659 q 927 685 927 670 l 927 690 q 890 776 927 699 l 889 776 q 864 694 864 727 q 883 663 864 668 q 887 659 885 663 l 886 656 q 848 660 868 660 l 832 660 q 792 656 812 660 q 733 663 758 663 q 702 660 727 663 l 704 674 l 704 676 q 640 857 704 703 l 640 859 l 639 859 l 638 837 q 647 811 638 822 q 634 754 637 811 q 635 739 635 745 l 635 718 q 654 659 635 659 l 654 657 q 653 656 653 657 q 621 659 638 659 q 590 656 605 659 l 590 657 q 605 670 605 666 q 612 708 612 682 l 612 765 q 597 813 612 800 q 609 855 609 825 l 609 908 q 588 941 609 933 q 586 942 586 941 q 589 945 587 945 m 767 848 q 781 811 767 826 q 769 735 769 793 l 769 707 q 788 664 769 664 q 793 661 788 661 q 811 708 807 661 l 811 794 q 796 817 811 802 q 811 841 811 829 l 811 896 q 786 942 811 942 q 767 904 767 936 l 767 848 m 1029 941 q 1032 930 1032 936 q 1029 921 1032 921 q 1032 912 1032 916 l 1032 904 q 1029 896 1032 900 l 1055 896 q 1053 911 1053 901 l 1052 911 q 1045 897 1052 900 q 1040 903 1043 897 l 1040 914 q 1043 916 1040 916 q 1044 911 1044 914 l 1045 911 q 1048 921 1045 916 q 1045 927 1045 921 l 1044 927 q 1041 922 1044 922 l 1040 925 l 1040 930 q 1045 940 1040 937 q 1051 927 1051 938 l 1052 927 q 1055 941 1052 937 l 1052 941 q 1033 940 1045 941 q 1029 941 1030 941 m 1058 941 l 1059 938 l 1059 926 q 1058 921 1059 923 q 1060 907 1059 917 q 1058 896 1060 904 l 1068 896 l 1067 899 l 1067 906 q 1070 921 1067 915 q 1067 931 1067 925 l 1067 938 l 1068 941 l 1058 941 m 1072 941 q 1077 931 1077 936 l 1077 929 q 1074 921 1077 925 q 1077 918 1077 920 l 1077 908 q 1071 897 1077 897 l 1071 896 l 1075 896 q 1087 922 1083 896 q 1082 937 1085 922 q 1072 941 1077 941 m 598 927 q 604 908 604 919 q 602 907 602 908 q 594 910 598 910 q 582 843 582 902 q 583 821 583 823 l 582 821 q 566 873 567 821 l 566 874 q 574 925 566 925 q 598 927 577 925 m 1100 927 l 1102 927 q 1108 922 1104 927 l 1108 868 q 1098 862 1106 862 l 1040 862 q 1030 872 1030 862 l 1030 878 q 1033 881 1030 881 l 1089 881 q 1097 889 1097 881 l 1097 925 q 1100 927 1098 927 m 908 926 q 910 912 909 923 q 890 872 890 906 l 890 857 q 876 829 890 855 l 874 829 l 874 892 q 881 922 874 922 l 908 926 m 1011 926 l 1013 923 l 1013 912 q 963 838 992 897 q 954 825 955 825 q 932 834 941 825 l 932 836 q 978 921 934 847 q 1011 926 983 922 m 708 925 q 709 923 708 923 q 708 896 708 905 q 731 819 708 883 l 728 818 l 727 818 q 693 912 722 818 q 691 921 691 914 q 708 925 699 925 m 801 925 q 804 910 804 919 q 789 864 789 910 l 789 815 l 788 815 q 773 852 773 822 l 773 899 q 777 923 773 923 l 781 923 q 801 925 788 923 m 914 925 l 917 925 l 918 918 l 918 908 l 917 908 q 914 911 914 908 l 914 925 m 491 923 l 493 923 l 496 912 l 495 912 q 491 916 493 912 l 491 923 m 733 919 l 736 919 l 736 914 q 733 916 733 914 l 733 919 m 585 813 q 600 792 588 803 q 601 787 601 790 q 581 739 581 771 l 581 731 q 579 727 581 727 l 581 719 q 583 668 581 699 l 581 667 l 579 667 q 563 752 565 667 q 583 813 563 796 l 585 813 m 788 813 l 790 813 q 805 790 794 790 q 790 718 790 761 l 790 693 q 792 670 790 686 q 790 668 790 670 q 774 712 774 668 l 774 731 q 788 811 774 795 l 788 813 m 654 806 q 666 777 666 779 q 657 739 657 771 l 657 699 q 658 666 657 688 l 655 664 q 640 726 640 664 l 640 769 q 654 806 640 806 m 732 806 q 739 784 739 798 l 736 784 q 729 805 736 786 l 732 806 m 952 805 q 975 795 975 797 l 975 790 q 966 773 966 780 l 966 768 q 994 694 966 756 q 950 798 954 759 l 950 802 q 952 805 950 805 m 493 794 q 497 783 497 788 l 493 783 q 491 786 491 783 l 491 791 q 493 794 491 794 m 887 761 l 891 761 q 904 733 893 753 q 885 668 890 705 l 883 668 q 870 694 870 674 q 887 761 870 718 m 736 657 q 801 644 801 653 l 808 642 l 819 655 l 845 655 q 898 642 891 655 q 909 638 909 642 l 909 629 q 904 623 909 627 q 862 628 878 628 l 851 628 q 807 623 833 628 l 804 623 q 748 630 778 630 q 712 625 733 630 l 709 629 q 713 645 713 641 l 713 653 q 736 657 713 657 m 959 656 q 1014 649 986 655 l 1014 656 l 1017 656 q 1030 636 1017 653 l 1030 625 l 1029 622 q 974 629 1013 626 q 916 622 942 628 l 914 625 l 914 632 q 928 644 914 640 l 937 655 q 959 656 952 655 m 539 655 q 590 644 590 655 q 602 638 596 642 q 620 653 613 638 q 657 651 631 653 q 661 652 659 652 q 678 636 661 641 q 672 623 676 623 q 638 626 649 626 q 600 622 619 626 q 556 628 587 628 q 492 623 542 628 l 491 626 l 491 632 q 505 644 491 640 q 522 655 508 655 l 539 655 m 567 611 q 687 557 656 611 q 704 498 695 541 q 728 478 719 478 l 728 476 q 702 434 712 467 q 678 370 695 393 q 567 316 638 316 q 451 388 480 316 q 439 445 446 396 q 415 476 435 461 l 415 478 q 438 514 433 478 q 499 595 438 555 q 567 611 537 611 m 1356 611 l 1357 609 q 1319 510 1319 575 l 1321 501 l 1318 499 l 1317 499 q 1306 546 1313 499 q 1268 595 1292 595 q 1252 550 1252 595 l 1252 528 q 1277 475 1252 475 l 1277 474 q 1254 446 1254 458 l 1254 374 q 1301 328 1254 338 q 1319 322 1319 325 l 1319 320 q 1241 321 1268 321 l 1197 321 q 1086 316 1148 321 l 1085 318 l 1129 329 q 1160 373 1160 343 l 1160 445 q 1128 472 1160 462 l 1128 475 q 1161 528 1161 475 q 1164 562 1164 528 l 1164 569 q 1148 596 1164 593 q 1098 499 1125 596 l 1090 499 l 1087 501 q 1091 531 1091 511 l 1091 536 q 1058 607 1091 583 l 1058 610 q 1157 606 1121 606 q 1356 611 1212 606 m 406 609 l 434 609 q 436 606 436 608 q 400 513 400 574 q 397 510 400 510 l 393 510 q 387 539 390 510 q 330 592 366 592 l 327 592 q 273 529 280 592 q 288 484 278 484 q 315 505 307 484 q 320 525 318 525 l 324 525 q 331 499 326 525 q 360 472 340 486 q 328 422 328 451 l 328 415 l 330 413 l 327 411 l 320 411 q 314 437 319 411 q 285 453 306 453 q 270 404 270 436 l 270 394 q 300 333 270 355 q 341 325 312 325 l 341 324 q 337 320 341 323 q 255 321 282 321 l 219 321 q 146 318 177 321 l 145 321 q 158 325 145 324 q 179 367 179 341 l 179 440 q 149 472 175 472 l 149 475 q 179 510 173 475 l 179 557 q 150 606 179 587 l 150 607 q 233 600 203 600 q 406 609 385 609 m 731 607 q 824 602 796 602 q 889 606 842 602 q 886 591 886 593 q 924 509 886 569 l 981 407 l 982 407 q 984 437 982 413 q 963 474 980 474 l 963 476 q 981 513 980 480 q 969 595 981 595 q 951 604 969 599 l 951 607 q 992 606 978 606 l 1010 606 q 1053 607 1024 606 l 1053 604 q 1018 569 1018 600 l 1018 512 q 1039 476 1018 487 l 1040 476 l 1040 474 q 1021 404 1021 455 l 1021 362 q 1045 326 1021 335 q 1059 321 1059 326 l 1058 318 q 966 325 1009 325 l 961 325 q 913 324 934 324 q 917 336 915 328 q 829 498 917 366 q 812 524 817 521 l 812 495 q 826 474 812 484 l 826 472 q 805 422 809 472 q 822 328 805 328 q 838 321 828 321 l 838 320 q 837 318 837 320 q 789 321 813 321 l 782 321 q 735 318 758 321 l 735 320 q 754 326 735 322 q 770 366 770 340 l 770 430 q 747 474 770 463 l 747 475 q 767 531 767 489 q 754 594 767 594 q 728 604 746 598 l 728 606 l 731 607 m 521 513 q 536 478 521 484 l 536 475 q 522 426 522 461 l 522 425 q 560 332 522 356 q 573 328 569 328 q 619 380 600 328 q 627 426 627 402 l 627 430 q 611 476 627 462 q 623 510 623 493 l 623 521 q 585 596 623 573 q 571 600 577 600 q 521 513 521 581 m 582 591 q 607 567 592 591 l 609 557 q 589 568 602 564 q 543 482 543 552 q 541 480 541 482 q 526 516 529 480 q 559 588 526 563 q 582 591 569 591 m 1067 591 q 1079 569 1079 577 q 1075 573 1077 569 q 1040 533 1040 573 l 1040 483 l 1039 483 q 1024 516 1024 491 l 1024 550 q 1032 585 1024 585 q 1064 587 1034 585 q 1067 591 1064 591 m 1368 591 l 1378 591 q 1380 588 1380 590 l 1380 581 q 1341 490 1341 543 l 1342 482 l 1342 471 q 1338 467 1342 469 l 1327 467 q 1322 493 1322 467 q 1326 498 1326 493 q 1325 517 1326 505 q 1355 590 1332 590 q 1368 591 1355 591 m 157 590 q 172 569 166 590 l 169 568 l 155 579 l 155 587 l 157 590 m 428 588 l 450 588 l 466 587 l 466 585 q 421 487 421 548 q 404 479 409 479 q 400 483 402 479 l 400 490 l 398 503 q 405 507 405 505 l 405 510 q 428 588 405 561 m 743 588 q 760 571 760 588 l 760 568 q 759 567 759 568 q 737 579 737 569 l 737 584 q 743 588 737 585 m 910 587 l 912 584 l 912 580 q 908 565 912 578 l 912 543 q 893 584 894 567 q 910 587 895 585 m 963 587 l 967 587 q 974 571 971 587 q 973 569 973 571 q 959 577 961 573 l 959 583 q 963 587 959 585 m 1266 587 l 1275 587 q 1294 558 1294 574 q 1285 562 1285 561 q 1274 520 1274 557 l 1274 497 l 1275 483 l 1273 482 q 1258 533 1258 486 l 1258 548 q 1266 587 1260 587 m 1140 585 l 1153 585 q 1159 562 1159 585 l 1159 561 q 1123 483 1139 539 q 1120 471 1121 474 q 1121 470 1121 471 l 1117 467 l 1101 467 q 1097 474 1098 467 q 1105 495 1100 495 l 1105 497 q 1140 585 1113 548 m 343 584 q 377 549 358 584 l 377 546 q 348 560 361 560 l 345 560 q 296 509 303 560 l 296 494 q 293 491 296 491 l 289 491 q 278 528 283 491 q 309 583 278 568 q 343 584 329 584 m 699 546 q 721 489 714 533 l 720 489 q 699 546 708 489 m 340 505 l 343 505 q 351 501 351 504 l 351 498 l 349 491 q 351 490 351 491 l 348 489 q 337 503 341 496 l 340 505 m 817 502 l 819 502 q 834 476 834 483 q 817 495 817 485 l 817 502 m 544 472 q 563 451 544 462 q 544 399 544 438 q 552 347 544 373 l 551 347 q 528 426 528 375 q 544 472 528 467 m 729 468 q 758 452 742 456 q 759 453 758 453 q 763 441 763 448 l 759 441 l 754 445 q 716 371 729 445 q 634 290 689 311 q 607 284 609 284 l 607 286 q 592 283 601 283 l 586 283 q 467 348 495 283 q 551 311 505 311 q 588 307 588 310 q 663 344 638 322 q 705 418 698 383 q 725 468 709 449 l 729 468 m 832 468 l 834 468 q 849 451 834 461 l 849 444 q 832 423 832 435 q 828 389 829 411 q 830 330 829 375 q 829 329 829 330 q 811 419 811 329 q 832 468 811 468 m 1044 468 q 1063 451 1045 463 l 1063 445 q 1043 374 1043 429 l 1043 337 l 1041 335 q 1026 366 1029 335 l 1026 404 q 1044 468 1026 455 m 360 465 l 362 465 l 383 449 l 383 445 q 351 396 351 420 q 352 381 352 387 l 348 379 l 331 379 q 326 404 327 379 q 336 408 336 405 l 334 425 q 360 465 334 444 m 1279 465 q 1300 451 1279 460 l 1304 445 q 1275 421 1275 430 l 1275 345 l 1274 345 q 1259 375 1259 356 l 1259 445 q 1279 465 1262 462 m 428 456 q 434 441 432 451 l 432 441 q 416 448 432 441 l 416 449 q 428 456 416 452 m 169 455 q 174 441 174 448 l 172 438 q 155 442 155 440 l 155 451 q 169 455 155 455 m 973 455 q 977 446 977 453 l 977 444 q 974 441 977 441 l 969 441 q 973 455 970 455 m 1150 455 q 1155 445 1155 450 l 1155 438 l 1153 436 q 1136 444 1138 440 l 1136 451 q 1150 455 1136 455 m 617 453 q 620 446 620 448 l 619 446 l 613 448 l 613 452 q 617 453 615 452 m 288 446 l 293 446 q 312 421 307 446 l 309 419 l 307 419 l 304 421 q 292 373 292 406 q 295 345 292 365 q 276 395 276 365 l 276 403 q 288 446 276 434 m 969 320 q 1060 307 1043 320 q 1082 294 1082 304 l 1082 288 q 1079 286 1082 286 q 984 293 1019 293 l 980 293 q 918 288 964 293 l 918 290 q 927 314 927 305 q 925 316 925 314 q 928 318 928 316 q 969 320 955 320 m 187 316 l 276 316 q 330 307 319 316 q 360 305 341 305 l 363 305 q 366 302 366 304 l 366 297 q 355 287 366 294 q 266 288 295 288 l 235 288 q 158 286 198 288 q 154 295 154 290 q 172 305 154 303 q 187 316 180 316 m 777 316 l 788 316 q 840 306 840 316 q 860 299 848 302 l 860 291 q 855 286 860 289 q 804 288 826 288 l 801 288 q 744 286 783 288 l 743 288 l 743 293 q 762 303 743 303 q 777 316 772 310 m 1175 316 l 1262 316 q 1326 306 1294 316 q 1344 294 1339 306 q 1345 290 1345 291 l 1338 287 q 1248 288 1279 288 l 1213 288 q 1121 284 1163 288 q 1115 286 1119 286 q 1112 283 1115 283 l 1104 283 l 1094 282 l 1093 284 q 1110 301 1093 301 q 1156 314 1133 305 q 1175 316 1164 316 m 179 280 l 193 280 q 228 263 207 280 l 229 263 q 236 275 233 275 l 258 275 l 258 274 q 235 209 235 246 l 235 186 q 232 183 235 183 l 231 183 q 228 186 228 183 l 228 196 q 201 265 228 265 q 175 201 179 265 l 175 196 q 196 163 175 163 l 196 160 q 174 129 181 160 q 170 76 174 126 q 190 31 173 31 q 225 98 225 40 q 227 120 227 98 l 227 136 q 239 140 227 139 l 240 137 q 236 107 236 121 l 236 98 q 252 65 238 65 l 252 63 q 162 14 204 14 l 161 14 q 109 76 121 14 q 93 144 107 144 l 90 144 l 90 145 q 108 179 108 159 q 179 280 124 280 m 520 280 q 577 265 551 280 l 578 265 q 592 276 585 276 q 602 269 599 276 l 602 265 l 598 265 q 583 246 583 265 q 575 222 583 229 l 571 222 l 573 231 l 573 241 q 535 268 566 268 q 507 245 511 268 q 550 209 507 229 q 563 208 556 208 l 569 208 q 581 210 572 208 q 582 209 581 209 l 581 202 q 604 181 581 192 q 623 144 623 165 q 544 87 623 95 l 536 87 q 492 103 520 87 l 491 103 q 467 82 479 103 l 465 80 l 463 80 q 459 84 461 80 q 473 139 473 124 q 470 164 470 162 l 473 166 l 476 166 q 485 140 478 166 q 547 99 512 99 l 548 99 q 574 120 574 99 l 574 125 q 536 160 574 151 l 531 160 q 513 158 525 160 q 512 159 513 159 l 513 162 l 513 164 q 481 185 513 174 q 450 223 450 204 l 450 230 q 520 280 450 274 m 1300 280 q 1356 257 1334 280 l 1357 257 q 1368 274 1365 274 l 1371 274 q 1383 260 1381 274 q 1370 256 1383 257 q 1361 205 1364 256 q 1355 193 1357 193 l 1353 193 l 1351 194 q 1353 217 1353 202 q 1321 263 1353 253 q 1315 264 1318 264 q 1286 236 1286 257 q 1329 179 1286 215 q 1351 174 1342 174 q 1361 175 1360 175 l 1361 160 q 1387 121 1361 149 q 1403 63 1403 90 q 1375 5 1403 19 q 1357 1 1365 1 q 1275 52 1311 1 l 1266 54 l 1262 54 q 1247 36 1258 54 l 1243 36 q 1240 39 1240 36 l 1240 42 q 1252 91 1240 46 l 1252 109 q 1249 137 1252 120 l 1252 139 l 1254 139 q 1263 107 1259 139 q 1338 21 1302 21 l 1346 21 q 1355 44 1355 29 q 1311 117 1355 94 q 1301 118 1306 117 l 1293 117 l 1292 120 l 1292 125 q 1293 126 1292 126 q 1266 156 1293 138 q 1229 218 1229 189 q 1300 280 1229 272 m 608 279 q 667 276 651 276 q 793 279 773 279 l 793 278 q 771 219 771 253 l 771 214 q 769 210 771 210 q 739 269 760 269 q 729 237 729 265 l 729 236 q 744 196 729 196 l 744 193 q 731 175 733 193 l 731 133 q 769 103 731 110 q 770 102 770 103 l 770 101 q 724 102 730 102 q 626 95 679 102 l 626 98 q 672 132 672 105 l 672 175 q 653 193 672 187 l 653 194 q 675 250 675 194 q 668 269 672 269 l 666 269 q 632 209 649 269 l 630 209 l 627 210 l 628 227 l 628 237 q 608 276 621 276 l 608 279 m 866 279 l 882 279 q 951 233 933 279 q 970 191 951 204 q 948 141 958 183 q 883 95 926 95 l 874 95 q 796 147 815 95 q 775 194 790 194 l 775 196 q 790 230 790 204 q 866 279 817 279 m 967 279 l 969 279 q 1028 275 1012 275 q 1058 278 1042 275 q 1059 276 1058 276 q 1056 265 1056 269 q 1097 177 1056 250 q 1123 272 1123 244 l 1121 279 q 1163 278 1148 278 l 1190 278 q 1224 279 1201 278 l 1224 278 l 1209 269 q 1205 252 1205 263 l 1205 210 q 1220 171 1205 183 l 1220 168 q 1205 141 1205 168 l 1205 86 q 1224 47 1205 57 l 1224 46 q 1113 68 1160 68 l 1112 71 q 1143 102 1143 77 l 1143 156 q 1129 178 1140 178 l 1129 179 q 1143 209 1143 191 l 1143 226 l 1142 226 q 1106 136 1112 180 l 1097 90 q 1082 117 1086 90 q 1015 231 1063 177 l 1015 206 q 1028 187 1015 195 q 1015 152 1018 187 q 1033 86 1015 86 l 1034 86 l 1034 83 q 978 90 1004 90 l 971 90 l 971 92 q 994 121 994 92 q 992 139 994 127 q 994 160 994 153 q 978 191 994 181 q 991 222 991 202 l 991 256 q 967 276 991 276 l 967 279 m 359 278 l 359 275 q 340 249 343 275 q 341 223 341 234 l 341 208 q 340 196 341 203 q 355 182 343 182 l 355 179 q 341 162 341 172 l 341 109 q 364 72 341 72 q 396 117 388 72 q 397 143 397 130 l 397 159 q 387 183 397 179 q 397 218 397 190 l 397 237 q 383 275 397 275 l 379 275 l 379 278 q 416 275 396 275 q 453 278 434 275 l 453 275 q 434 256 434 275 l 434 205 q 446 189 434 194 q 447 187 447 189 q 434 167 434 180 l 434 134 q 398 73 434 88 q 327 57 361 57 l 322 57 q 282 114 282 57 l 282 151 q 266 170 280 170 l 266 171 q 282 194 282 181 l 282 234 q 262 274 282 274 l 262 276 q 303 275 289 275 l 320 275 q 359 278 343 275 m 843 223 l 843 214 q 851 196 843 204 l 851 194 q 843 164 843 183 q 874 103 843 113 l 876 103 q 908 159 900 103 l 908 166 q 898 194 908 184 q 906 221 905 205 q 876 272 906 260 l 874 272 q 843 223 849 272 m 202 260 q 219 234 219 250 q 198 182 201 234 l 198 171 l 197 168 q 181 194 181 168 l 181 196 q 201 260 183 260 l 202 260 m 528 260 l 544 260 q 567 240 567 256 l 567 236 l 566 233 q 550 236 556 236 q 532 227 541 236 l 529 227 q 513 244 513 239 l 513 249 q 528 260 519 260 m 788 259 l 801 259 l 801 257 q 782 209 782 235 l 779 208 l 778 208 l 777 215 l 777 218 q 788 259 777 246 m 887 259 q 898 238 893 254 q 897 237 897 238 q 889 240 892 240 q 864 197 864 227 q 848 215 850 197 l 848 223 q 875 259 848 259 l 887 259 m 980 259 l 985 259 l 985 246 q 982 244 985 244 l 981 244 q 975 249 979 244 l 975 255 q 980 259 975 257 m 1236 257 q 1224 219 1224 239 l 1224 218 q 1226 191 1224 215 l 1226 175 l 1225 175 q 1210 214 1213 175 l 1210 255 q 1236 257 1210 257 m 1315 259 q 1346 229 1335 259 q 1345 227 1346 227 q 1330 231 1332 231 q 1309 212 1317 231 l 1309 208 l 1308 208 q 1293 233 1293 223 l 1293 238 q 1315 259 1293 252 m 381 257 l 382 255 l 382 246 q 366 238 382 244 q 363 226 363 229 l 363 189 q 360 186 363 186 q 347 193 351 186 l 347 252 q 381 257 347 256 m 615 257 l 616 257 q 623 236 621 255 q 608 231 623 233 q 598 191 605 206 l 597 191 q 586 201 587 197 q 589 212 587 212 q 588 219 588 215 l 586 219 l 583 218 q 582 219 583 219 l 592 248 l 601 256 l 608 256 l 615 255 l 615 257 m 664 257 q 668 253 666 257 l 668 244 q 647 200 668 200 l 644 200 l 644 191 l 655 183 l 655 179 q 653 177 655 177 l 640 177 q 636 182 637 177 q 657 257 636 219 l 664 257 m 739 257 l 748 257 q 758 238 752 257 q 751 205 752 238 l 751 202 l 750 200 q 735 233 735 200 l 735 240 q 739 257 735 257 m 1072 257 l 1081 257 l 1081 255 q 1078 241 1081 241 q 1090 204 1079 231 q 1064 255 1077 223 q 1072 257 1069 257 m 447 256 l 448 256 q 451 253 451 255 q 443 229 447 253 q 455 197 443 214 l 455 193 q 439 205 441 193 l 439 252 q 447 256 440 256 m 254 255 l 273 255 q 277 242 276 255 q 257 178 257 215 l 257 163 l 258 153 q 247 151 253 151 l 243 151 q 238 163 238 153 l 238 177 q 242 181 238 179 l 240 187 l 240 208 q 254 255 240 240 m 387 253 l 390 253 l 390 246 l 387 246 l 387 253 m 1391 253 q 1406 225 1406 246 q 1405 223 1405 225 l 1395 225 l 1391 225 q 1384 183 1385 225 q 1375 160 1378 160 l 1370 160 q 1367 163 1367 160 l 1367 168 l 1368 177 q 1367 185 1367 179 l 1364 183 l 1363 186 l 1363 189 q 1370 234 1370 217 l 1370 238 q 1380 252 1377 250 l 1390 250 l 1391 253 m 956 233 l 958 233 q 973 202 973 217 l 973 198 l 971 198 q 956 233 956 207 m 1021 214 l 1022 214 q 1048 178 1031 205 l 1048 175 l 1037 187 l 1037 181 q 1051 167 1039 167 l 1051 159 q 1039 140 1039 151 l 1037 128 q 1039 91 1039 109 l 1033 91 q 1021 158 1021 91 q 1034 183 1021 181 l 1034 194 q 1021 206 1021 194 l 1021 214 m 1136 204 l 1136 201 q 1128 187 1136 193 l 1128 190 q 1136 204 1134 204 m 864 194 l 864 189 q 879 171 864 174 l 879 170 q 864 137 864 161 l 867 113 l 866 113 q 848 166 848 130 q 860 194 848 186 l 864 194 m 602 193 l 604 190 l 604 189 l 600 189 l 600 190 q 602 193 600 193 m 461 191 l 462 191 q 507 167 482 176 l 506 153 l 506 149 q 532 155 524 155 l 536 155 q 569 124 569 146 l 569 122 q 552 128 554 128 l 547 128 q 522 122 538 128 l 521 125 l 521 126 l 522 140 q 482 168 482 155 q 461 190 461 173 l 461 191 m 751 190 q 774 170 751 178 q 784 174 781 174 l 786 170 l 786 166 l 785 166 q 778 168 778 166 q 752 152 752 158 l 752 117 l 751 114 q 736 134 736 120 l 736 175 q 751 190 736 185 m 777 186 l 778 186 q 782 179 781 186 l 781 179 q 777 183 779 179 l 777 186 m 974 186 q 988 158 988 174 q 969 107 981 158 q 902 63 940 63 l 889 63 q 808 111 832 63 l 808 113 l 809 113 q 881 88 838 88 q 891 83 881 84 q 910 95 895 83 q 954 139 927 95 q 974 186 965 186 m 455 183 l 455 179 q 463 168 455 172 q 465 155 465 157 q 455 139 455 149 l 455 106 q 412 39 455 55 q 344 24 377 24 l 337 24 q 296 54 307 24 l 296 57 l 297 57 q 320 52 311 52 l 331 52 q 370 57 345 52 q 379 52 370 54 q 404 71 389 52 q 439 133 439 84 l 439 167 q 455 183 442 183 m 362 177 q 378 160 362 160 l 379 158 l 379 152 q 366 143 379 151 l 363 133 l 363 79 l 359 79 q 347 110 347 86 l 347 160 q 362 177 347 170 m 663 174 l 664 174 q 667 171 667 174 l 667 164 q 664 162 667 162 q 659 170 659 163 l 659 171 q 663 174 660 174 m 1121 174 l 1124 174 q 1138 155 1138 172 l 1138 152 l 1121 79 q 1106 69 1106 79 l 1106 68 q 1120 61 1106 63 l 1120 59 q 1117 56 1120 56 q 1094 79 1094 59 l 1093 84 l 1102 83 q 1121 174 1109 130 m 1244 170 q 1286 132 1256 158 l 1286 122 q 1283 120 1286 120 q 1244 168 1247 153 l 1244 170 m 1229 164 q 1244 145 1231 157 l 1244 140 q 1230 133 1244 139 q 1226 109 1226 127 l 1226 57 l 1225 54 q 1210 87 1213 54 l 1210 145 q 1229 164 1210 164 m 1382 158 l 1383 158 q 1384 151 1383 153 q 1383 139 1383 143 l 1383 137 l 1380 137 q 1370 152 1380 139 q 1382 158 1370 155 m 196 155 l 198 155 q 215 143 198 143 q 219 144 217 144 l 220 141 l 220 133 q 197 106 197 121 q 193 50 193 53 q 194 39 194 45 l 191 37 l 189 37 q 177 78 179 37 q 194 153 177 153 q 196 155 194 155 m 628 153 q 644 120 644 141 l 644 110 q 621 102 644 107 q 617 88 619 98 q 635 91 633 90 q 636 90 635 90 q 556 54 611 54 l 554 54 q 510 69 534 54 q 506 71 508 69 q 488 50 499 71 l 477 46 q 469 59 472 46 q 489 96 477 96 l 492 96 q 522 83 520 83 q 563 79 526 83 q 586 90 578 79 q 628 143 628 109 l 628 153 m 274 148 l 277 148 l 277 140 l 274 140 l 274 148 m 491 145 l 493 145 q 502 130 502 141 l 501 130 q 491 143 498 130 l 491 145 m 263 121 q 265 120 263 120 q 258 76 258 97 l 258 73 q 255 71 258 71 q 242 103 242 71 l 242 115 q 263 121 242 119 m 1271 118 q 1285 83 1281 118 q 1289 73 1287 83 l 1286 73 q 1267 117 1267 109 q 1271 118 1270 118 m 1297 111 l 1306 111 q 1342 78 1322 111 q 1344 73 1344 75 l 1342 73 q 1318 86 1330 84 q 1301 83 1315 84 q 1300 87 1301 87 q 1302 101 1301 97 q 1297 110 1302 103 l 1297 111 m 1402 105 q 1424 47 1424 76 l 1424 21 q 1374 -31 1416 -31 q 1289 17 1325 -31 q 1279 21 1284 21 q 1267 4 1275 18 l 1255 4 q 1249 16 1249 6 q 1266 48 1254 48 l 1267 48 q 1300 14 1270 48 q 1359 -4 1332 -4 q 1409 57 1402 -4 l 1409 63 q 1402 105 1409 75 m 725 96 q 758 95 727 96 q 792 82 758 90 l 796 73 l 796 71 q 789 68 794 71 q 737 69 777 68 q 634 61 693 69 q 632 63 634 63 q 655 80 632 80 q 680 95 671 86 q 725 96 688 95 m 1003 83 q 1045 68 1045 78 q 1058 61 1058 63 l 1058 52 q 1055 48 1058 48 q 981 59 1030 56 q 978 63 978 62 l 978 68 q 998 75 978 71 q 1003 83 1001 83 m 258 60 l 259 60 q 276 43 262 43 l 276 35 q 179 -17 225 -17 l 177 -17 q 128 18 143 -17 l 128 20 l 130 20 q 160 9 143 9 q 198 17 181 9 q 208 12 200 12 q 231 35 218 12 q 258 60 243 43 m 1147 60 q 1232 36 1167 60 q 1247 24 1232 33 l 1247 10 l 1245 10 q 1127 35 1179 35 l 1121 40 l 1121 42 q 1143 56 1121 52 q 1147 60 1143 56 "},"\\":{"x_min":0,"x_max":0,"ha":386},"-":{"x_min":67.828125,"x_max":460.515625,"ha":525,"o":"m 84 550 q 92 548 86 549 q 100 547 94 548 q 101 545 100 547 q 105 547 105 547 l 106 547 q 127 548 108 547 l 127 548 q 124 543 127 547 l 122 542 l 122 542 q 128 545 124 542 q 132 548 131 548 q 143 548 134 548 q 153 545 146 548 q 157 545 155 545 q 168 548 160 545 q 172 548 171 548 l 190 548 q 191 548 190 548 q 191 548 191 548 l 192 548 q 224 544 216 548 q 228 542 225 544 l 228 542 q 229 543 229 542 l 229 543 q 226 546 229 543 q 226 547 226 547 l 226 547 q 227 548 226 548 q 318 547 270 547 q 333 547 324 547 q 333 546 333 547 q 332 545 332 545 l 332 545 q 332 545 332 545 q 341 548 333 545 q 342 548 341 548 l 356 548 q 375 546 359 548 q 379 546 377 546 q 385 547 382 546 q 394 544 386 547 q 395 544 394 544 l 395 544 q 392 547 394 545 l 392 548 l 392 548 l 393 548 q 406 548 395 548 q 430 548 411 548 l 432 548 q 433 548 432 548 q 436 545 436 548 q 438 542 438 545 q 440 537 439 537 l 440 537 q 445 539 443 539 q 445 539 445 539 q 445 540 445 540 l 446 541 q 448 539 447 539 q 451 540 448 540 l 452 540 q 455 539 453 540 l 455 540 l 455 541 q 456 540 455 541 l 456 540 l 457 540 l 458 540 q 460 539 459 540 l 460 539 q 457 537 460 538 q 455 534 455 536 q 457 530 455 533 q 457 528 457 529 l 457 528 q 456 523 457 526 l 455 521 q 455 521 455 521 l 455 521 q 451 524 455 521 q 450 525 450 525 q 450 524 450 525 l 450 524 q 456 516 450 523 q 457 512 457 514 q 455 503 457 512 l 455 503 q 457 496 455 501 q 457 495 457 495 l 457 488 q 457 484 457 487 q 456 483 457 483 q 453 482 453 482 l 453 482 q 457 480 453 482 l 457 480 l 457 475 q 454 466 457 472 q 453 463 453 464 l 453 462 q 457 457 453 461 q 457 455 457 456 l 457 451 q 454 449 457 449 q 446 451 450 449 q 444 453 444 452 l 444 453 q 439 448 441 451 q 436 445 438 447 q 431 442 434 444 q 427 441 429 441 q 423 442 425 441 q 421 442 422 442 l 408 442 q 404 441 406 441 q 396 442 402 441 q 391 442 396 442 q 385 443 388 443 l 385 443 q 364 441 379 443 q 354 440 360 440 q 347 442 347 440 l 347 443 q 349 447 347 444 l 348 447 q 341 444 347 447 q 335 442 337 442 l 286 442 q 274 444 282 442 q 269 445 271 445 q 257 442 266 445 q 251 442 253 442 l 215 442 q 197 440 211 442 q 194 440 195 440 q 183 442 191 440 q 180 442 182 442 l 165 442 q 158 444 162 442 q 155 444 156 444 l 155 444 q 162 449 160 448 l 162 449 q 148 444 158 448 q 142 442 143 442 l 133 442 q 122 443 130 442 q 120 444 121 444 q 100 442 116 444 q 95 442 97 442 q 82 444 89 444 q 72 443 80 444 l 71 443 q 69 446 71 444 l 67 447 l 67 447 q 69 449 68 447 q 71 453 71 451 q 70 456 71 454 l 70 456 q 73 459 70 457 q 75 461 75 461 q 73 465 75 463 q 72 467 72 467 l 72 467 q 77 472 72 470 q 80 473 80 473 l 80 474 q 70 475 70 474 l 70 481 q 72 485 70 483 q 73 486 73 486 l 73 487 q 71 489 71 488 l 71 489 q 74 490 71 489 l 75 490 q 72 491 74 491 q 71 495 72 491 q 70 501 70 499 q 73 505 70 501 q 73 509 73 507 q 73 510 73 510 l 73 511 q 78 515 73 513 q 78 516 78 516 q 73 514 77 516 q 71 514 72 514 l 71 514 q 70 514 70 514 l 70 520 q 74 529 70 524 q 76 532 76 531 l 76 532 q 72 537 76 533 q 71 539 71 539 q 78 541 71 541 q 78 542 78 542 l 78 541 q 87 544 80 541 q 94 545 88 544 l 94 545 q 86 546 91 546 q 82 548 84 547 l 82 548 l 82 548 q 84 550 82 548 m 435 550 l 436 550 q 451 543 440 550 q 457 541 456 541 q 459 541 457 541 l 459 541 q 458 541 459 541 q 456 540 457 541 q 454 541 455 541 q 454 541 454 541 q 454 541 454 541 l 454 540 l 451 540 q 447 539 448 540 q 445 541 445 541 l 444 541 l 444 541 q 445 541 445 541 q 443 539 445 539 q 441 539 442 539 q 438 544 440 539 q 436 548 437 547 q 434 549 435 549 l 432 548 l 432 549 q 435 550 434 550 m 82 549 q 82 549 82 549 l 82 548 q 86 545 82 547 q 88 545 88 545 q 90 545 90 545 l 90 545 q 79 542 80 542 l 79 542 l 79 544 q 77 542 79 544 q 71 541 75 541 l 71 541 q 80 548 73 542 q 82 549 81 549 l 82 549 m 172 496 q 174 493 173 495 q 174 486 174 493 q 176 478 175 481 q 178 472 177 474 q 186 466 181 466 q 195 474 191 466 q 197 480 196 476 q 198 492 198 485 q 200 495 198 495 q 200 495 200 495 q 198 498 198 497 q 197 504 198 499 q 194 514 196 511 q 186 522 191 522 q 179 518 182 522 q 176 510 178 515 q 174 499 175 506 q 172 496 174 497 q 172 496 172 496 m 345 496 q 347 493 347 495 q 348 486 348 492 q 349 478 349 481 q 352 472 351 474 q 360 466 356 466 l 360 466 q 368 472 364 466 q 370 479 369 475 q 372 491 372 486 q 373 495 372 493 q 374 495 374 495 l 374 495 q 373 497 373 495 q 371 501 372 498 q 369 512 370 507 q 366 518 368 516 q 360 522 363 522 q 352 516 356 522 q 350 510 352 514 q 348 501 349 506 q 346 496 348 497 q 345 496 346 496 m 324 521 l 324 514 q 324 514 324 514 l 326 514 q 327 511 327 514 l 327 501 q 325 496 327 497 q 324 495 324 495 q 327 490 327 494 l 327 476 q 326 474 327 474 q 326 474 326 474 l 324 474 l 324 467 l 345 467 l 345 486 l 340 486 q 340 486 340 486 q 339 475 340 479 q 337 474 339 474 q 337 474 337 474 l 336 474 q 335 476 335 474 l 335 491 q 337 495 335 493 q 338 495 337 495 q 336 497 337 495 q 335 500 335 499 l 335 511 q 336 514 335 514 l 338 514 q 338 514 338 514 l 338 521 l 324 521 m 434 521 q 427 518 434 519 q 425 517 427 518 q 423 518 423 517 q 422 517 422 518 q 419 516 421 516 q 417 515 419 515 q 412 519 412 517 l 412 520 l 408 520 l 408 512 l 412 512 l 412 512 q 413 512 412 512 l 413 512 q 420 509 413 512 l 420 509 l 415 509 q 413 510 413 509 q 412 510 412 510 l 412 510 l 408 510 l 408 501 l 412 501 l 412 502 q 414 503 412 503 l 419 503 q 422 501 422 503 l 423 501 q 425 503 423 502 q 427 503 425 503 l 433 503 q 435 502 435 503 l 435 501 l 438 501 l 438 510 l 435 510 q 432 509 435 509 l 430 509 q 427 510 430 509 l 427 510 q 434 512 432 512 l 434 512 q 435 512 435 512 l 435 512 l 438 512 l 438 521 l 434 521 m 373 520 l 373 514 l 373 514 q 375 513 375 514 q 377 500 376 510 l 377 499 q 375 495 377 497 l 375 495 q 378 493 377 495 q 380 482 379 491 q 382 467 382 468 l 389 467 q 392 492 392 491 q 396 495 394 495 q 394 499 394 497 l 394 500 q 396 513 394 510 q 397 514 396 514 l 398 514 l 398 520 l 388 520 l 388 514 l 389 514 q 389 513 389 514 l 389 512 q 387 493 389 511 l 387 493 q 386 497 387 493 q 383 513 383 512 q 384 514 383 514 l 385 514 l 385 520 l 373 520 m 94 520 l 94 514 l 96 514 q 96 512 96 514 q 94 500 95 501 q 92 495 94 495 q 94 490 94 494 q 92 476 92 479 q 90 474 91 474 l 90 474 l 90 467 l 99 467 l 99 474 q 98 476 98 474 l 98 476 q 99 480 98 480 l 105 480 q 106 475 105 480 l 106 474 q 105 474 106 474 l 104 474 l 104 467 l 115 467 l 115 474 l 115 474 q 114 474 114 474 q 112 489 113 474 q 114 495 112 493 q 111 499 112 495 q 109 513 111 500 q 110 514 109 514 l 111 514 l 111 520 l 94 520 m 117 520 l 117 514 l 118 514 q 120 511 120 514 l 120 502 q 118 496 120 499 l 117 495 q 120 489 119 495 l 120 478 q 119 474 120 474 q 118 474 118 474 l 117 474 l 117 467 l 128 467 l 128 474 l 127 474 q 126 475 126 474 q 126 482 126 477 l 126 496 q 126 496 126 496 q 126 493 126 496 q 132 467 132 470 l 143 467 l 143 489 q 144 495 143 492 q 145 495 145 495 l 145 495 q 143 497 145 495 q 143 502 143 499 l 143 509 q 143 514 143 514 l 143 514 l 145 514 l 145 520 l 134 520 l 134 514 l 135 514 q 136 512 136 514 l 136 491 q 136 491 136 491 q 133 503 136 491 q 129 520 133 503 l 117 520 m 200 520 l 200 514 l 201 514 q 202 511 202 514 l 202 502 q 200 496 202 498 q 200 495 200 496 q 202 493 201 495 q 202 489 202 490 l 202 478 q 202 474 202 474 q 200 474 201 474 l 200 474 l 200 467 l 210 467 l 210 474 l 210 474 q 208 475 208 474 q 208 479 208 476 l 208 496 q 208 496 208 496 q 210 491 209 496 l 216 467 l 225 467 l 225 489 q 227 495 225 492 q 228 495 227 495 l 228 495 q 225 502 225 496 l 225 510 q 226 514 225 514 l 227 514 l 227 520 l 217 520 l 217 514 l 218 514 q 219 511 219 514 l 219 491 q 219 491 219 491 q 217 498 219 491 q 212 520 217 499 l 212 520 l 200 520 m 246 520 l 246 514 q 246 514 246 514 l 247 514 q 248 512 248 514 q 248 510 248 512 l 248 501 q 246 495 248 496 q 248 493 247 495 q 248 488 248 492 l 248 476 q 247 473 248 473 l 246 473 q 246 473 246 473 l 246 467 q 246 467 246 467 l 257 467 l 257 473 q 257 473 257 473 q 256 478 256 474 l 256 482 q 258 488 256 482 l 259 488 q 259 482 259 488 q 261 475 261 476 q 260 473 261 474 l 259 473 l 259 467 l 272 467 l 272 474 q 271 475 271 474 q 267 491 269 478 l 267 491 q 268 495 267 494 q 266 497 267 495 q 265 500 265 497 q 264 504 264 502 q 270 514 267 514 l 271 514 q 271 514 271 514 l 271 520 q 271 520 271 520 l 259 520 q 259 520 259 520 l 259 514 q 261 514 259 514 l 261 514 l 261 513 q 257 500 261 512 l 256 500 l 256 510 q 257 514 256 514 l 258 514 l 258 520 l 246 520 q 246 520 246 520 m 274 520 l 274 514 l 274 514 q 276 513 276 514 q 276 511 276 512 l 276 501 q 273 495 276 497 l 273 495 q 275 493 275 494 q 276 491 276 492 l 276 476 q 274 474 276 474 l 274 474 l 274 467 l 284 467 l 284 474 l 284 474 q 283 476 283 474 l 283 486 q 283 486 283 486 l 285 486 q 287 478 286 486 q 287 476 287 476 l 287 476 q 286 474 287 474 l 286 467 l 297 467 l 297 473 q 296 476 296 474 q 292 493 295 480 l 292 493 q 295 501 295 496 q 296 506 296 503 l 296 507 q 292 518 296 514 q 286 520 289 520 l 274 520 m 147 520 q 147 516 147 518 l 147 502 q 147 502 147 502 l 152 502 l 152 502 q 153 514 152 514 q 154 514 153 514 l 155 514 q 155 514 155 514 l 155 501 q 153 496 155 499 q 152 495 153 495 q 155 493 153 495 q 155 489 155 491 l 155 476 q 154 474 155 474 q 154 474 154 474 l 152 474 l 152 467 l 165 467 l 165 474 l 164 474 q 163 475 163 474 q 162 478 162 476 l 162 489 q 165 495 162 494 l 166 495 l 166 495 q 164 497 164 495 q 162 501 162 499 l 162 514 q 163 514 163 514 l 163 514 q 166 512 166 514 q 166 502 166 505 l 171 502 l 171 514 q 171 520 171 516 l 147 520 l 147 520 m 299 520 l 299 514 q 301 511 301 514 q 303 499 303 501 q 302 495 303 497 q 305 491 304 495 q 307 480 307 484 l 307 477 q 307 473 307 473 l 305 473 l 305 467 l 318 467 l 318 473 l 317 473 q 316 475 316 473 q 315 478 315 476 l 315 480 q 317 491 315 482 q 319 495 318 493 q 320 495 320 495 q 318 499 318 497 q 321 512 318 502 q 322 514 321 514 l 322 514 q 323 514 323 514 l 323 520 q 322 520 323 520 l 314 520 l 314 514 l 314 514 q 315 513 315 514 l 315 513 q 313 498 315 512 q 313 498 313 498 q 311 508 312 498 q 310 513 310 512 l 310 513 q 311 514 310 514 l 311 514 l 311 520 l 299 520 q 299 520 299 520 m 283 514 q 287 509 286 514 q 287 506 287 507 q 284 495 287 497 q 283 495 284 495 l 283 495 l 283 507 q 283 514 283 510 l 283 514 m 185 514 l 186 514 q 188 510 187 514 q 188 499 188 508 l 188 498 q 187 496 188 497 l 186 495 l 186 495 q 188 493 187 495 q 188 493 188 493 q 188 483 188 489 q 187 475 188 476 q 185 474 186 474 l 185 474 q 183 478 184 474 q 183 493 183 485 q 184 495 183 494 q 185 495 185 495 l 185 495 q 183 497 184 495 l 183 498 l 183 499 q 184 512 183 510 q 185 514 185 514 m 360 514 l 360 514 q 362 503 362 514 l 362 498 q 360 496 362 497 l 360 495 q 362 493 362 495 q 362 483 362 486 q 360 474 362 474 l 360 474 q 358 478 358 474 q 357 493 357 485 q 358 495 357 493 q 359 495 359 495 q 357 497 358 495 q 357 498 357 498 l 357 499 q 358 511 357 506 q 360 514 358 514 m 102 509 q 104 491 102 507 l 104 491 l 100 491 q 100 491 100 491 q 102 509 101 497 l 102 509 m 422 499 q 421 498 422 499 q 419 497 419 497 l 415 497 q 412 499 412 497 l 412 499 l 408 499 l 408 491 l 412 491 l 412 491 q 413 493 412 493 q 414 493 413 493 l 425 493 q 425 493 425 493 l 408 487 l 408 478 l 412 478 l 412 479 q 413 480 412 480 q 415 480 414 480 l 418 480 q 422 478 421 480 l 423 478 q 424 480 423 478 q 426 480 425 480 l 432 480 q 434 479 434 480 l 434 478 l 438 478 l 438 486 l 435 486 q 434 486 434 486 l 434 486 q 434 484 434 484 q 432 484 433 484 l 422 484 q 422 484 422 484 q 438 490 423 485 l 438 490 l 438 497 l 426 497 q 423 499 425 497 q 423 499 423 499 l 422 499 m 408 476 l 408 466 l 412 466 l 412 467 q 413 468 412 468 l 419 468 q 422 466 422 468 l 422 466 q 425 468 423 468 l 434 468 q 435 467 435 468 l 435 466 l 438 466 l 438 476 l 435 476 l 435 475 q 434 474 435 474 l 425 474 q 422 476 423 474 l 422 476 q 421 474 422 475 q 420 474 420 474 l 413 474 q 412 475 412 474 l 412 476 l 408 476 m 444 453 q 447 451 444 451 q 454 448 451 448 q 457 449 456 448 q 457 449 457 449 l 457 449 q 455 448 456 448 q 442 444 449 446 q 430 440 434 440 q 427 440 429 440 l 427 441 q 428 440 427 441 q 435 444 432 440 q 440 448 437 445 q 444 453 440 448 "},"Q":{"x_min":0,"x_max":835.578125,"ha":849,"o":"m 399 986 l 438 986 q 709 896 657 986 q 728 815 728 861 q 727 784 727 796 l 727 741 q 780 541 727 583 l 780 539 q 726 333 726 493 q 727 242 727 283 q 728 217 727 234 q 613 67 728 105 q 521 49 581 56 q 485 31 505 49 q 474 4 474 18 q 513 -40 474 -21 q 581 -49 537 -49 l 703 -49 q 728 -59 720 -49 l 728 -139 q 701 -149 720 -149 l 628 -149 q 387 -63 442 -149 q 370 14 370 -31 q 355 36 368 24 q 289 53 344 48 q 189 83 225 63 q 111 219 111 130 l 111 224 q 113 339 111 249 q 54 539 113 498 l 54 540 q 112 697 112 591 q 111 832 112 722 q 139 910 111 868 q 399 986 206 986 m 705 929 l 706 929 q 766 786 766 879 l 766 695 q 798 548 766 590 l 797 548 q 741 742 741 583 q 743 775 743 758 l 743 815 q 705 929 743 885 m 107 893 l 107 891 q 90 815 90 855 q 92 807 90 813 q 93 702 93 743 q 61 576 93 619 l 61 578 q 78 691 78 616 q 76 791 78 701 q 107 893 76 849 m 273 669 q 305 538 273 575 q 273 424 273 505 l 273 383 q 338 292 273 320 l 340 292 q 360 312 358 292 l 360 383 q 399 394 360 392 l 438 394 q 478 383 478 392 l 478 315 q 498 292 478 292 q 543 322 514 292 q 564 371 564 348 q 566 440 566 371 l 566 453 q 538 537 566 505 l 538 538 q 566 618 566 567 q 551 735 566 725 q 524 758 551 744 q 478 765 508 765 l 361 765 q 285 729 297 765 q 273 669 273 709 m 370 747 l 479 747 q 535 725 524 747 q 547 621 547 712 l 547 616 q 528 555 547 576 l 526 555 q 532 596 531 572 q 521 689 532 674 q 472 699 514 699 l 382 699 q 325 691 325 699 q 312 648 312 679 l 312 633 q 328 541 312 575 l 326 541 q 289 655 289 565 l 289 679 q 330 744 289 735 q 370 747 341 747 m 809 535 q 835 512 835 524 l 835 506 q 809 484 835 493 q 765 313 767 451 q 766 177 765 287 q 720 59 766 113 q 619 0 671 13 q 522 -17 590 -8 q 512 -22 516 -22 q 491 1 497 -16 l 491 6 q 562 36 491 31 q 664 70 626 48 q 743 210 743 121 q 741 335 741 288 q 792 526 741 489 q 809 535 803 535 m 331 535 l 333 535 q 354 522 335 532 q 358 506 358 514 q 336 484 358 493 q 311 385 311 464 q 318 326 311 337 q 322 318 322 322 q 288 396 288 339 l 288 403 q 319 526 288 507 q 331 535 320 529 m 23 533 q 65 497 48 524 q 94 345 94 451 q 92 237 92 254 q 90 228 92 234 q 254 40 90 75 q 329 29 288 34 q 353 -5 353 21 q 421 -124 353 -78 q 624 -168 496 -168 l 701 -168 q 743 -140 737 -168 l 743 -59 l 741 -52 l 743 -52 q 766 -87 766 -66 l 766 -168 q 710 -215 766 -206 l 621 -215 q 389 -149 467 -215 q 337 -23 337 -102 q 263 -8 337 -17 q 129 55 169 12 q 76 196 76 110 q 78 317 78 290 l 78 337 q 30 482 78 448 q 1 501 1 494 q 0 506 0 503 l 0 512 q 23 533 0 524 m 511 533 q 540 495 531 522 q 547 444 547 474 l 547 441 q 540 354 547 354 q 528 333 537 343 l 528 334 q 532 419 532 350 q 504 488 532 472 q 487 506 487 495 l 487 511 q 511 533 487 524 m 493 390 q 517 348 517 377 l 517 322 q 495 309 503 309 l 494 311 l 494 377 q 491 389 494 385 q 493 390 493 389 m 340 383 l 341 383 l 341 311 q 339 309 341 309 l 337 309 q 325 317 326 314 l 325 345 q 340 383 325 374 "},"M":{"x_min":0,"x_max":1177.390625,"ha":1200,"o":"m 56 973 q 202 959 137 959 q 343 973 263 959 l 347 973 q 374 942 369 973 q 529 486 383 916 q 587 457 549 457 q 654 512 642 457 q 807 966 805 963 q 826 973 814 972 l 827 973 q 945 961 912 961 q 970 960 959 961 q 1117 973 1024 960 q 1139 964 1131 973 l 1139 774 q 1112 764 1131 764 l 1095 764 q 1035 731 1052 764 q 1033 716 1033 721 l 1033 653 q 1067 539 1033 571 l 1067 536 q 1033 368 1033 503 l 1033 337 q 1070 293 1033 305 q 1125 288 1074 289 q 1139 278 1138 283 l 1139 75 q 1115 65 1131 65 q 950 75 1028 75 q 798 65 886 75 q 775 75 784 65 l 775 278 q 822 289 777 289 q 877 335 877 297 l 877 387 q 832 434 877 422 q 817 434 823 434 l 810 434 q 753 399 769 434 q 633 73 753 396 q 608 65 623 65 l 567 65 q 539 82 539 65 q 414 414 536 86 q 359 438 394 438 l 355 438 q 297 405 314 438 q 295 393 295 398 l 295 336 q 330 293 295 305 q 382 288 346 288 q 397 278 396 282 l 397 75 q 373 65 389 65 q 211 76 279 76 q 54 65 148 76 q 33 75 42 65 l 33 278 q 93 290 33 290 q 139 333 139 303 q 140 423 140 392 q 94 541 140 503 q 139 670 139 577 l 139 716 q 82 764 139 756 l 61 764 q 33 774 40 764 l 33 964 q 56 973 41 973 m 381 971 q 405 942 398 963 q 560 480 541 539 q 528 537 542 480 q 381 971 386 950 m 1152 970 q 1175 948 1163 970 q 1177 940 1177 944 l 1177 739 q 1133 701 1177 715 l 1085 697 q 1072 689 1072 693 q 1071 631 1071 639 q 1087 545 1071 571 l 1085 545 q 1048 666 1048 562 q 1049 722 1048 683 q 1092 746 1060 746 l 1108 746 q 1154 770 1146 746 l 1154 965 l 1152 970 m 13 964 l 14 964 l 14 773 q 52 746 14 752 l 76 746 q 119 720 110 746 q 120 712 120 717 l 120 697 q 102 579 120 601 q 95 569 96 569 l 95 571 q 105 659 105 597 q 105 679 105 664 l 105 689 q 46 700 105 700 q 0 739 0 714 l 0 940 q 13 964 0 952 m 784 963 l 785 963 l 785 962 q 626 491 638 522 q 619 485 621 485 l 619 487 q 776 954 756 898 q 784 963 783 963 m 1095 536 q 1112 526 1096 534 q 1118 513 1118 518 l 1118 509 q 1099 487 1118 497 q 1072 361 1072 457 l 1072 311 l 1071 309 q 1049 332 1049 318 l 1049 398 q 1090 535 1049 505 l 1095 536 m 65 534 q 121 418 121 512 q 120 335 121 395 q 105 313 120 320 l 105 314 q 107 387 107 362 q 70 485 107 462 q 40 511 40 494 q 65 534 40 528 m 355 420 l 360 420 q 405 381 396 420 q 527 61 520 72 q 562 47 542 47 l 608 47 q 647 67 636 47 q 772 401 758 368 q 809 417 787 417 l 816 417 q 857 395 845 417 q 858 383 858 387 l 858 339 q 843 313 858 320 l 843 313 l 843 361 q 819 370 843 366 l 815 370 q 787 349 791 370 q 764 292 768 295 q 756 274 756 288 l 756 77 q 774 52 756 59 q 797 47 785 47 q 954 57 886 57 q 1115 47 1018 57 q 1154 70 1144 47 l 1154 280 l 1152 286 l 1154 286 q 1177 252 1177 272 l 1177 40 q 1123 0 1177 10 l 1117 0 q 958 10 1013 10 q 801 0 901 10 l 799 0 q 745 30 763 0 q 741 44 741 35 l 741 226 l 741 226 q 664 23 672 35 q 612 0 644 0 l 567 0 q 501 56 513 0 q 436 230 437 223 l 434 230 l 434 44 q 378 0 434 8 l 375 0 q 218 11 266 11 q 61 0 158 11 l 57 0 q 2 31 20 0 q 0 40 0 37 l 0 257 q 13 278 0 266 l 14 278 l 14 74 q 44 48 14 55 q 55 47 50 47 q 209 59 146 59 q 373 47 271 59 q 411 73 411 52 l 411 278 l 411 286 l 411 286 q 415 284 413 284 q 383 366 386 362 q 359 373 373 373 q 334 364 341 373 l 334 311 l 333 309 q 311 332 311 318 l 311 395 q 355 420 318 420 "},"C":{"x_min":0,"x_max":699.921875,"ha":722,"o":"m 304 980 l 334 980 q 482 959 418 980 l 484 959 q 505 975 496 959 q 522 980 517 980 l 638 980 q 661 972 651 980 q 647 792 647 876 l 647 775 q 661 623 647 706 q 619 613 655 613 l 545 613 q 501 624 507 613 l 501 632 q 484 720 501 705 q 387 760 453 760 l 377 760 q 264 710 292 760 q 255 672 255 687 l 255 643 q 254 638 255 640 l 255 632 l 255 620 q 285 535 255 568 q 254 440 254 505 q 265 338 254 351 q 375 282 294 282 l 384 282 q 492 339 459 282 q 501 385 501 364 l 501 421 q 528 432 509 432 l 635 432 q 661 421 654 432 l 661 246 q 567 75 661 113 q 389 47 501 47 l 387 47 q 119 138 172 47 q 94 258 94 177 l 94 324 q 47 535 94 489 l 47 537 q 94 771 94 583 l 94 822 q 162 951 94 918 q 304 980 215 980 m 675 978 q 697 955 686 978 q 699 946 699 951 l 699 944 q 685 758 685 826 q 699 594 685 682 l 699 590 q 648 549 699 561 q 630 548 640 548 l 537 548 q 469 586 480 548 q 457 667 466 667 q 382 695 440 695 q 301 667 319 695 q 293 628 293 657 l 293 602 q 305 541 293 563 l 304 541 q 269 627 270 561 l 269 660 q 375 742 269 742 l 381 742 q 477 691 458 742 q 482 625 482 679 q 541 596 482 596 l 619 596 q 674 613 663 596 l 676 621 q 661 780 661 710 q 676 974 661 859 q 675 978 675 976 m 89 902 l 89 902 q 75 826 75 868 l 75 778 q 37 556 75 596 l 37 558 q 61 790 61 598 l 61 805 q 89 902 61 863 m 315 532 q 337 516 335 519 q 339 507 339 512 l 339 503 q 313 480 339 491 q 293 415 293 461 l 293 377 q 304 318 293 332 l 304 316 q 269 400 269 337 q 268 432 269 423 q 306 529 268 510 l 315 532 m 21 530 q 75 309 75 505 l 75 244 q 178 63 75 109 q 377 29 253 29 l 392 29 q 650 124 593 29 q 676 227 676 173 l 676 423 l 675 429 l 678 429 q 699 395 699 415 l 699 199 q 632 42 699 100 q 400 -17 556 -17 l 377 -17 q 61 204 61 -17 l 61 257 q 15 485 61 468 q 0 499 3 491 l 0 509 q 21 530 0 519 m 481 421 l 482 421 l 482 385 q 465 330 482 356 l 462 330 q 467 362 467 346 l 467 396 q 481 421 467 409 "},"[":{"x_min":0,"x_max":0,"ha":514},"L":{"x_min":0,"x_max":710.09375,"ha":729,"o":"m 56 969 q 257 956 176 956 q 461 969 333 956 q 482 960 474 969 l 482 772 q 455 762 475 762 l 385 762 q 322 722 333 762 l 322 659 q 363 536 322 568 q 322 375 322 499 l 322 336 q 369 293 322 302 q 379 291 373 291 l 432 291 q 510 319 498 291 q 516 364 516 332 l 516 428 q 543 438 524 438 l 645 438 q 672 428 665 438 l 672 78 q 615 68 672 68 q 498 64 533 64 l 492 64 q 338 78 450 64 q 238 82 287 82 q 58 68 145 82 q 33 78 33 73 l 33 281 q 71 291 39 291 l 105 291 q 158 317 139 291 q 162 343 162 325 l 162 403 q 113 539 162 505 l 113 540 q 151 598 143 566 q 162 699 162 626 l 162 711 q 136 754 162 742 q 98 762 116 762 l 60 762 q 33 772 40 762 l 33 960 q 56 969 40 969 m 498 967 q 520 919 520 955 l 520 754 q 495 706 520 716 q 459 697 477 697 l 392 697 q 360 689 368 697 q 359 642 359 654 q 375 548 359 575 l 375 548 q 344 592 354 562 q 336 666 336 624 l 336 691 q 343 729 336 729 q 385 744 354 744 l 453 744 q 497 768 489 744 l 497 964 l 496 966 l 498 967 m 13 960 l 14 960 l 14 771 q 56 744 14 748 l 97 744 q 144 716 137 744 l 144 706 q 117 571 144 596 l 117 571 q 128 647 128 603 l 128 688 q 96 697 128 695 l 60 697 q 2 729 18 697 q 0 737 0 733 l 0 936 q 13 960 0 948 m 84 534 q 126 496 109 524 q 144 403 144 459 l 144 341 q 130 315 144 322 l 128 315 q 129 357 129 341 l 129 364 q 87 485 129 467 q 61 499 61 495 q 56 512 56 507 q 84 534 56 529 m 391 534 q 418 512 418 527 l 418 510 q 396 486 418 495 q 359 339 359 463 q 360 312 360 324 l 358 311 q 337 330 342 317 q 336 365 337 335 q 391 534 336 517 m 686 436 l 687 436 q 710 402 710 423 l 710 47 q 659 5 710 15 q 502 0 532 0 l 485 0 q 324 14 449 0 q 238 17 278 17 l 220 17 q 60 4 152 17 q 0 47 0 11 l 0 257 q 13 281 0 269 l 14 281 l 14 78 q 56 50 14 55 q 231 65 147 65 q 453 47 300 65 q 492 46 463 46 q 668 56 668 50 q 687 75 687 64 l 687 430 l 686 436 m 497 428 l 498 428 l 498 363 q 484 317 498 322 l 482 317 q 483 345 483 337 l 483 395 q 497 428 483 419 "},"":{"x_min":0,"x_max":0,"ha":424},"!":{"x_min":0,"x_max":284.171875,"ha":305,"o":"m 213 961 q 246 935 232 961 q 248 918 248 928 l 248 730 q 248 671 248 708 q 267 575 248 616 q 284 554 284 560 l 284 549 q 263 525 284 543 q 222 383 238 498 q 210 267 213 277 q 177 243 196 243 l 114 243 q 76 295 76 250 l 75 311 l 78 311 l 78 307 q 102 286 84 286 l 154 286 q 179 300 170 286 q 189 404 181 300 q 233 558 206 531 q 252 579 233 563 q 224 626 232 594 q 216 689 218 655 q 217 788 217 750 l 217 942 q 213 961 217 950 m 60 957 l 198 957 q 201 955 201 957 l 201 775 q 200 693 201 746 q 223 586 200 634 q 227 581 225 586 l 227 579 q 181 454 191 531 q 164 303 174 424 l 162 302 l 95 302 q 87 385 92 302 q 61 520 74 488 q 27 579 48 555 l 27 579 q 58 737 58 625 l 58 955 q 60 957 59 957 m 14 567 q 55 486 42 540 q 73 353 73 388 l 71 353 l 71 354 q 45 490 71 400 q 6 537 29 529 q 0 550 0 543 q 14 567 3 567 m 72 351 l 74 351 l 74 341 l 72 341 l 72 351 m 73 338 l 75 338 l 75 329 l 73 329 l 73 338 m 74 325 l 76 325 l 76 317 l 74 317 l 74 325 m 207 198 l 208 198 q 248 128 248 187 l 248 70 q 218 5 248 25 q 190 0 205 0 l 117 0 q 52 25 67 0 q 42 72 42 41 l 42 76 l 44 76 q 72 45 44 55 q 103 42 88 42 l 169 42 q 207 58 198 42 q 217 105 217 80 l 217 149 q 207 198 217 174 m 97 196 l 175 196 q 200 170 196 196 q 201 154 201 159 l 201 103 q 183 59 201 65 q 174 58 179 58 l 103 58 q 60 78 60 58 q 58 90 59 78 l 58 162 q 75 192 58 192 q 97 196 75 195 "}," ":{"x_min":0,"x_max":0,"ha":345},"X":{"x_min":0,"x_max":880.328125,"ha":900,"o":"m 56 971 q 206 965 141 965 q 379 971 259 965 q 400 961 393 971 l 400 772 q 372 761 392 761 l 316 761 q 298 742 301 761 q 333 699 298 730 q 414 630 396 630 q 432 626 422 626 l 444 626 q 514 669 478 626 q 579 738 579 732 l 579 744 q 560 763 579 760 l 505 763 q 474 773 482 763 l 474 961 q 497 971 482 971 q 651 964 596 964 l 667 964 q 821 971 729 964 q 842 962 834 971 l 842 773 q 815 763 834 763 l 792 763 q 729 733 753 763 q 569 578 582 594 q 566 562 566 569 q 578 536 566 552 q 566 509 566 522 l 566 506 q 617 439 566 482 q 763 296 758 296 q 827 287 781 287 q 842 278 841 282 l 842 75 q 817 65 834 65 q 674 71 736 71 l 649 71 q 497 65 585 71 q 474 75 483 65 l 474 278 q 499 288 483 288 l 561 288 q 587 310 587 288 q 531 372 587 319 q 465 431 478 431 q 437 435 452 435 q 364 393 397 435 q 290 314 290 319 q 288 306 289 306 q 308 288 288 293 l 372 288 q 400 278 392 288 l 400 75 q 376 65 392 65 q 202 73 276 73 q 54 65 149 73 q 33 75 42 65 l 33 278 q 92 289 33 289 q 139 320 118 295 q 294 477 294 472 q 299 497 299 490 l 299 504 q 287 532 299 518 l 287 534 q 309 561 309 545 l 309 564 q 274 611 309 582 q 121 754 126 754 q 83 763 105 763 l 60 763 q 33 773 40 763 l 33 962 q 56 971 41 971 m 414 969 l 416 969 q 438 934 438 955 l 438 740 q 378 697 438 704 l 360 697 l 404 651 l 404 651 q 314 740 400 652 l 314 741 q 316 744 314 744 l 367 744 q 415 767 407 744 l 415 963 l 414 969 m 855 969 q 877 946 866 969 q 880 938 880 943 l 880 738 q 843 701 880 715 q 821 697 832 697 l 799 697 q 752 674 768 697 l 611 539 q 581 561 581 547 l 581 564 q 618 603 581 572 q 763 740 756 738 q 792 744 779 744 l 811 744 q 857 769 849 744 l 857 963 l 855 969 m 13 962 l 14 962 l 14 772 q 52 744 14 751 l 76 744 q 131 720 113 744 q 289 568 285 574 q 290 564 290 566 l 290 562 q 264 543 290 550 q 111 689 239 567 q 80 697 103 697 l 58 697 q 2 730 19 697 q 0 738 0 734 l 0 938 q 13 962 0 950 m 455 962 l 456 962 l 456 776 q 479 748 456 755 q 499 744 491 744 l 558 744 q 560 742 560 744 l 560 741 q 516 697 560 739 l 499 697 q 443 730 461 697 q 441 742 441 737 l 441 932 q 455 962 441 951 m 607 533 q 636 507 636 528 q 607 482 636 494 l 603 478 q 763 316 604 474 l 763 316 q 585 493 585 490 q 580 508 580 501 q 605 533 580 520 l 607 533 m 259 531 q 280 503 280 516 l 280 497 q 266 472 280 485 l 265 472 q 238 493 265 482 q 231 509 231 501 q 259 531 231 529 m 437 417 q 493 383 468 417 q 568 307 529 348 q 566 305 568 305 l 520 305 q 458 367 461 367 q 440 370 444 370 q 399 345 418 370 q 358 304 398 345 l 307 304 q 304 307 305 304 q 406 410 402 410 q 437 417 419 417 m 414 285 l 415 285 q 438 250 438 271 l 438 184 q 440 158 438 169 q 438 155 438 157 l 438 46 q 383 0 438 8 l 379 0 q 217 8 293 6 q 57 0 162 8 q 2 31 20 0 q 0 40 0 37 l 0 256 q 13 278 0 266 l 14 278 l 14 74 q 44 48 14 55 q 54 46 50 46 q 202 55 148 55 q 377 46 267 55 q 415 74 415 52 l 415 278 l 414 285 m 855 285 l 857 285 q 880 252 880 271 l 880 40 q 826 0 880 10 l 821 0 q 659 6 726 6 q 499 0 605 6 q 444 29 465 0 q 441 46 441 37 l 441 248 q 455 278 441 267 l 456 278 l 456 79 q 491 46 456 52 l 495 46 q 649 53 585 53 l 670 53 q 819 46 729 53 q 857 69 845 46 l 857 280 l 855 285 "},"P":{"x_min":0,"x_max":720.953125,"ha":729,"o":"m 435 974 l 453 974 q 634 912 551 974 q 683 772 683 872 l 683 649 q 598 545 683 585 q 467 520 520 520 q 343 514 430 517 q 297 470 297 501 l 297 332 q 355 287 297 295 l 505 287 q 532 277 524 287 l 532 77 q 508 64 529 64 l 59 64 q 33 75 40 64 l 33 277 q 60 287 40 287 l 79 287 q 135 314 117 287 q 140 334 140 324 l 140 387 q 107 536 140 503 l 107 537 q 134 599 125 556 q 140 687 140 625 l 140 712 q 104 755 140 744 q 80 759 94 759 l 61 759 q 33 770 41 759 l 33 959 q 58 969 33 964 q 209 952 134 952 q 406 972 283 952 q 435 974 412 974 m 13 959 l 14 959 l 14 769 q 58 741 14 746 l 79 741 q 120 712 120 738 q 122 693 122 705 q 95 553 122 576 l 94 553 q 106 637 106 585 l 106 685 q 75 695 100 695 l 59 695 q 2 726 21 695 q 0 738 0 733 l 0 934 q 13 959 0 947 m 655 914 l 656 914 q 720 763 720 857 l 720 613 q 629 489 720 543 q 529 462 560 462 q 349 448 494 454 q 336 442 338 444 l 336 309 l 335 307 q 312 336 312 315 l 312 462 q 372 498 312 498 q 613 532 521 498 q 693 613 673 564 q 698 639 698 630 l 698 788 q 655 914 698 864 m 297 714 l 297 592 q 355 547 297 554 l 379 547 q 512 619 489 547 q 516 647 516 636 l 516 666 q 486 745 516 729 q 396 759 453 759 l 358 759 q 300 727 316 759 q 297 714 297 720 m 355 741 l 387 741 q 485 722 466 741 q 498 666 498 704 l 498 650 q 480 598 498 618 l 479 598 q 483 628 483 611 q 472 685 483 674 q 360 695 452 695 q 336 687 345 695 l 336 569 q 334 567 336 567 q 312 596 312 575 l 312 707 q 331 736 312 729 q 355 741 343 741 m 82 532 q 106 502 97 524 q 122 383 122 469 l 122 353 q 120 324 122 344 q 107 311 110 311 l 106 311 l 106 376 q 75 489 106 470 q 61 507 61 495 l 61 509 q 82 532 61 522 m 547 284 q 571 242 571 273 l 571 50 q 529 2 571 13 q 510 0 518 0 l 57 0 q 2 31 20 0 q 0 40 0 37 l 0 255 q 13 277 0 265 l 14 277 l 14 73 q 54 46 21 46 l 504 46 q 548 80 548 46 l 548 268 q 547 284 548 274 "},"%":{"x_min":0,"x_max":0,"ha":1191},"#":{"x_min":0,"x_max":0,"ha":1012},"_":{"x_min":0,"x_max":0,"ha":695},"+":{"x_min":0,"x_max":0,"ha":751},")":{"x_min":0,"x_max":1173.328125,"ha":1221,"o":"m 1018 881 q 1037 877 1024 881 q 1082 810 1082 853 l 1082 803 q 1068 760 1082 778 q 1027 734 1045 734 q 1033 708 1033 718 l 1033 707 q 1030 695 1033 702 q 1011 666 1011 675 l 1011 663 q 1020 649 1011 657 l 1020 647 q 993 641 1018 642 q 953 661 968 641 q 946 628 953 653 q 816 541 912 541 l 799 543 q 729 607 729 556 q 732 622 729 613 q 767 655 743 655 l 772 655 q 797 630 797 646 l 797 624 l 795 621 q 782 624 786 624 q 767 609 770 624 l 767 607 q 806 582 773 582 q 833 588 819 582 q 868 652 868 610 q 804 746 868 708 q 665 788 718 784 l 663 788 q 684 748 684 771 l 682 735 q 627 701 668 701 l 623 701 q 621 704 621 701 l 621 706 q 638 734 638 722 l 638 737 q 566 765 631 763 q 345 713 470 765 q 238 651 299 692 q 113 529 172 602 q 41 419 68 471 l 41 418 l 71 448 q 315 587 202 556 l 316 587 q 298 634 299 620 l 300 647 q 349 688 318 688 q 394 649 394 681 q 379 618 394 631 l 377 618 q 362 638 373 638 q 343 619 348 638 l 345 617 q 370 603 347 603 q 411 626 400 603 q 415 620 413 626 q 408 601 415 611 l 408 600 q 566 566 496 600 q 646 507 601 554 q 701 445 656 486 q 914 379 794 379 l 931 379 q 1020 390 973 379 q 1081 433 1081 411 q 1056 455 1081 451 l 1052 455 q 1039 442 1043 455 q 1046 426 1039 436 q 1044 422 1046 425 q 1014 457 1014 430 q 1015 467 1015 463 q 1056 503 1025 503 q 1077 499 1064 503 q 1093 529 1077 512 q 1115 558 1115 540 q 1114 583 1115 564 q 1126 598 1118 598 q 1133 596 1129 598 q 1173 503 1173 546 q 1133 415 1173 455 q 902 341 1045 341 l 895 341 q 653 419 752 341 q 655 396 655 406 q 650 358 655 382 q 521 254 607 254 q 441 292 471 254 q 412 328 425 328 q 385 303 385 322 q 405 286 385 291 q 425 296 413 287 l 427 296 l 430 294 q 394 265 421 265 l 389 265 q 379 265 385 265 q 340 308 340 280 q 343 327 340 316 q 395 371 358 371 l 404 371 q 446 348 427 371 q 483 375 462 375 q 496 373 487 375 q 518 343 518 364 l 518 332 q 514 322 518 324 l 512 322 q 501 335 505 334 q 489 316 491 335 q 511 303 489 303 l 513 303 q 566 322 540 303 q 600 386 600 350 l 600 397 q 598 408 600 404 q 542 465 584 465 l 532 464 q 530 467 532 466 q 531 477 530 467 q 525 505 531 491 q 412 564 498 564 l 406 564 q 362 560 379 564 q 126 463 253 546 q 5 363 75 432 l 2 363 q 0 365 0 363 l 0 368 q 79 505 29 430 q 318 751 196 678 q 685 849 498 849 q 885 815 783 849 q 972 787 954 787 q 1005 810 1005 792 l 1005 815 q 991 832 1003 832 q 970 815 970 828 q 973 805 970 811 l 970 800 q 953 825 953 809 l 953 834 q 1005 881 971 881 l 1018 881 m 689 789 l 689 788 l 693 788 l 693 789 l 689 789 "},"'":{"x_min":0,"x_max":0,"ha":275},"a":{"x_min":0,"x_max":905.421875,"ha":919,"o":"m 237 971 q 443 953 349 953 l 455 953 q 666 971 549 953 l 667 971 q 689 961 680 971 l 689 772 q 665 762 681 762 l 634 762 q 609 741 609 762 q 682 569 655 602 q 725 532 701 546 l 725 531 q 715 491 715 516 l 715 491 q 766 311 715 436 q 824 288 786 288 l 841 288 q 868 278 860 288 l 868 75 q 843 64 859 64 q 702 75 769 75 l 696 75 q 532 64 627 75 q 509 75 518 64 l 509 278 q 562 290 511 288 q 603 332 603 303 l 603 334 q 573 423 603 342 q 549 456 566 446 q 508 465 529 465 l 392 465 q 328 421 343 465 q 297 332 297 341 q 345 289 297 300 q 390 278 385 289 l 390 73 q 366 64 382 64 q 198 78 280 78 l 197 78 q 56 64 136 78 q 33 75 42 64 l 33 278 q 59 288 40 288 l 75 288 q 137 318 122 288 q 189 491 189 442 q 177 533 189 514 l 177 535 q 245 620 226 574 q 293 740 261 651 q 268 762 293 762 l 238 762 q 214 772 221 762 l 214 961 q 237 971 222 971 m 704 967 l 704 967 q 727 924 727 956 l 727 752 q 696 702 727 714 q 655 696 676 696 q 709 568 691 593 q 717 557 710 567 l 717 556 q 650 671 683 577 l 625 742 l 628 744 l 663 744 q 704 768 704 750 l 704 967 m 193 961 l 195 961 l 195 770 q 238 744 195 748 l 271 744 q 273 742 273 744 l 273 741 q 215 604 240 642 l 215 607 q 251 696 233 643 l 250 696 q 179 752 179 696 l 179 921 q 193 961 179 952 m 373 543 q 417 500 373 512 q 435 497 425 497 l 470 497 q 528 529 512 497 q 530 541 530 533 l 530 543 q 493 668 530 554 q 453 718 474 718 q 404 642 425 718 q 373 543 390 603 m 448 699 l 450 699 q 508 553 468 699 q 511 543 511 550 l 511 539 q 497 520 511 531 l 493 520 q 455 640 473 596 l 454 640 q 414 518 436 595 l 413 518 q 389 541 389 525 q 442 694 420 655 l 448 699 m 748 533 q 775 510 775 526 l 775 508 q 758 487 775 495 q 752 464 754 480 q 795 309 752 423 q 765 357 778 309 q 729 489 729 448 q 748 533 729 522 m 150 532 q 171 486 171 520 q 118 320 171 444 l 112 316 l 112 318 q 155 459 155 422 l 155 463 q 134 493 155 486 q 126 507 126 500 l 126 510 q 150 532 126 526 m 392 448 l 506 448 q 555 415 547 448 q 584 333 584 337 l 584 330 q 567 311 584 318 q 534 394 540 386 q 505 400 526 400 l 402 400 q 368 389 373 400 q 336 307 339 309 l 335 307 q 313 326 319 314 l 313 335 q 354 435 347 429 q 392 448 368 448 m 404 284 l 406 284 q 429 249 429 271 l 429 44 q 377 0 429 10 l 367 0 q 209 13 265 13 q 62 0 145 13 l 57 0 q 1 33 18 0 l 0 40 l 0 255 q 13 278 0 265 l 14 278 l 14 73 q 55 46 21 46 q 196 60 136 60 q 366 46 272 60 q 406 73 406 52 l 406 278 l 404 284 m 881 284 l 883 284 q 905 251 905 271 l 905 40 q 870 4 905 18 q 849 0 859 0 l 845 0 q 706 10 758 10 q 534 0 643 10 l 533 0 q 478 31 497 0 q 476 44 476 40 l 476 247 q 489 278 476 267 l 491 278 l 491 80 q 510 50 491 58 q 531 46 524 46 q 698 57 626 57 q 843 46 761 57 q 882 69 872 46 l 882 280 l 881 284 "},"T":{"x_min":0,"x_max":745.359375,"ha":764,"o":"m 470 973 l 486 973 q 670 962 502 973 l 682 962 q 708 952 699 962 l 708 628 q 682 617 700 617 l 577 617 q 551 627 559 617 l 551 665 q 537 741 551 733 q 480 754 522 754 l 465 754 q 446 722 446 754 q 446 661 446 681 q 481 531 446 567 l 481 529 q 446 387 446 496 q 448 324 446 366 q 490 287 448 301 q 509 285 501 285 l 537 285 q 566 275 560 285 l 566 73 q 542 64 557 64 q 368 82 451 82 q 197 64 291 82 q 174 73 183 64 l 174 275 q 200 285 181 285 l 231 285 q 291 320 276 285 q 293 376 293 337 l 293 393 q 253 533 293 500 q 293 678 293 568 l 293 694 q 287 749 293 749 q 275 754 282 754 l 248 754 q 190 706 190 754 q 189 676 189 697 l 189 627 q 163 617 181 617 l 59 617 q 33 628 40 617 l 33 952 q 56 962 41 962 q 222 940 141 940 q 403 967 307 940 q 470 973 431 973 m 721 959 l 722 959 q 745 926 745 946 l 745 594 q 698 554 745 567 q 688 553 693 553 l 577 553 q 520 584 537 553 q 517 598 517 590 l 517 664 q 511 687 517 687 q 485 690 503 689 q 484 634 484 651 q 499 538 484 569 q 472 575 482 546 q 461 666 461 607 q 462 735 462 728 l 464 737 l 474 737 q 526 725 520 737 q 531 697 531 712 l 531 633 q 549 605 531 612 q 573 600 562 600 l 682 600 q 722 621 711 600 l 722 954 l 721 959 m 13 952 l 14 952 l 14 627 q 52 600 14 605 l 163 600 q 204 621 193 600 q 204 630 204 626 l 204 693 q 219 731 204 731 q 247 737 231 737 l 271 737 l 274 735 q 275 682 275 698 q 248 555 275 583 l 248 558 q 261 659 261 589 q 259 690 259 690 q 228 686 239 690 q 227 658 227 667 l 227 598 q 175 553 227 564 l 56 553 q 1 586 18 553 l 0 594 l 0 930 q 13 952 0 940 m 509 529 q 533 514 533 519 q 535 503 535 510 q 511 479 535 489 q 485 368 485 453 l 485 352 q 484 348 485 350 q 485 344 485 347 l 485 306 l 484 306 q 462 328 462 314 l 462 401 q 501 525 462 497 q 509 529 507 529 m 225 527 q 261 489 246 521 q 275 396 275 455 l 275 383 q 274 326 275 362 q 261 309 274 318 l 259 311 q 261 369 259 328 q 230 478 261 455 q 204 492 204 490 q 200 505 200 497 q 225 527 200 522 m 580 282 l 581 282 q 604 244 604 269 l 604 47 q 562 2 604 14 q 547 0 553 0 l 542 0 q 387 16 448 16 l 356 16 q 202 0 296 16 l 197 0 q 143 29 163 0 q 141 47 141 40 l 141 241 q 155 276 141 265 l 155 274 l 155 70 q 197 46 163 46 q 367 64 290 64 q 541 46 442 64 l 543 46 q 581 71 581 53 l 581 269 l 580 282 "},"=":{"x_min":0,"x_max":0,"ha":751},"N":{"x_min":0,"x_max":946.125,"ha":971,"o":"m 56 973 q 178 959 121 959 q 307 973 219 959 q 341 941 331 973 q 519 604 514 612 q 571 584 539 584 l 573 584 q 631 617 616 584 q 633 629 633 621 l 633 718 q 575 763 633 755 l 531 763 q 500 773 507 763 l 500 962 q 521 973 500 968 l 522 973 l 601 959 q 704 952 652 952 q 885 973 787 952 q 908 963 900 973 l 908 773 q 881 763 900 763 l 849 763 q 790 731 806 763 q 787 719 787 720 q 786 642 786 669 q 838 538 786 571 q 826 518 838 535 q 787 225 787 448 l 787 74 q 763 65 779 65 l 648 65 q 617 81 623 65 q 436 436 457 396 q 382 461 416 461 l 378 461 q 319 425 333 461 q 318 415 318 419 l 318 334 q 354 293 318 305 q 377 288 368 288 l 415 288 q 442 278 434 288 l 442 75 q 419 65 434 65 q 215 81 305 81 q 56 65 141 81 q 33 75 33 69 l 33 278 q 63 288 33 286 l 102 288 q 162 321 145 288 q 164 337 164 331 l 164 406 q 117 541 164 505 l 117 542 q 158 625 145 564 q 164 719 164 668 q 115 762 164 751 q 102 763 109 763 l 61 763 q 33 773 40 763 l 33 963 q 56 973 41 973 m 344 971 q 387 907 357 971 q 465 756 459 770 l 467 756 l 467 935 q 480 963 467 952 l 481 963 l 481 778 q 501 750 481 757 q 524 746 515 746 l 571 746 q 615 717 615 740 l 615 632 q 601 608 615 615 l 598 608 l 598 689 q 569 698 598 696 l 529 698 q 492 707 510 698 q 544 606 544 607 l 543 606 q 512 649 531 606 l 344 969 l 344 971 m 923 971 q 946 939 946 954 l 946 739 q 909 702 946 716 q 887 698 897 698 l 855 698 q 826 690 835 698 l 824 619 q 842 555 824 579 l 842 554 l 841 554 q 801 655 801 580 q 803 721 801 668 q 846 746 815 746 l 877 746 q 923 769 914 746 l 923 964 l 921 969 l 923 971 m 13 963 l 14 963 l 14 773 q 52 746 14 752 l 99 746 q 144 723 132 746 q 145 716 144 720 q 115 567 145 607 l 113 567 l 113 569 q 130 682 130 598 l 130 689 q 100 698 123 698 l 58 698 q 2 731 19 698 q 0 739 0 735 l 0 939 q 13 963 0 951 m 864 536 q 891 514 891 526 l 891 507 q 870 486 891 497 q 825 168 825 440 q 826 44 826 84 q 773 0 826 11 l 631 0 q 615 6 631 2 q 573 65 595 13 q 481 244 486 234 l 480 244 l 480 44 q 442 3 480 16 q 436 0 436 2 l 402 0 q 401 2 402 2 q 224 16 294 16 q 74 1 141 16 l 74 0 l 59 0 q 0 37 14 0 l 0 256 q 13 278 0 266 l 14 278 l 14 74 q 56 47 20 47 q 215 63 139 63 q 417 47 298 63 l 419 47 q 457 74 457 52 l 457 278 l 456 286 l 457 286 l 459 284 l 459 286 q 405 390 408 387 q 383 396 391 396 l 382 396 q 357 387 364 396 l 357 311 l 356 309 q 335 325 341 314 q 333 342 333 330 l 333 408 q 352 438 333 430 q 378 442 361 442 l 379 442 q 429 407 417 442 q 609 58 602 67 q 646 47 623 47 l 762 47 q 803 73 803 52 q 802 196 802 164 q 853 527 802 488 q 864 536 854 530 m 88 535 q 126 502 101 535 q 145 408 145 465 l 145 398 q 146 390 145 392 q 145 381 145 385 l 145 339 q 130 313 145 320 l 130 313 l 130 314 q 130 357 130 341 l 130 369 q 95 484 130 462 q 65 507 65 495 l 65 512 q 88 535 65 526 "},"2":{"x_min":0,"x_max":624.640625,"ha":652,"o":"m 300 973 l 322 973 q 581 855 528 973 q 588 815 588 834 l 588 600 q 552 571 588 592 q 480 516 500 538 q 462 472 462 497 l 462 468 q 434 463 462 466 q 354 416 396 453 l 292 356 q 286 339 286 343 q 344 290 286 299 l 364 290 q 432 328 423 290 q 434 352 434 339 l 434 392 q 468 404 443 404 l 554 404 q 588 390 588 402 l 588 82 q 560 68 577 68 q 410 86 478 86 q 219 64 336 86 q 192 63 204 63 q 45 71 45 68 q 32 84 32 77 l 32 294 q 169 406 56 317 q 251 542 251 481 q 310 556 292 546 q 411 642 333 562 q 434 691 434 673 l 434 698 q 414 750 434 739 q 360 758 398 758 l 264 758 q 192 734 204 758 q 185 698 185 717 l 185 662 q 142 646 185 646 l 73 646 q 32 658 41 646 l 32 815 q 209 965 32 927 q 300 973 252 973 m 562 910 l 564 910 q 624 796 624 855 l 624 564 q 558 503 624 540 q 499 446 499 464 l 510 425 l 510 422 q 507 420 510 420 l 460 420 q 416 387 416 416 l 416 354 q 408 318 416 326 q 402 314 406 318 l 400 314 q 402 330 402 324 l 402 362 q 406 381 402 373 l 404 381 q 332 316 389 370 q 324 310 331 316 q 301 336 301 321 q 332 372 301 347 q 415 438 396 435 q 470 450 440 450 q 486 448 475 448 l 486 448 l 486 450 q 476 474 477 463 q 566 560 476 507 q 602 594 602 582 l 602 821 q 562 910 602 866 m 25 872 l 25 870 q 14 815 14 847 l 14 661 q 74 628 14 628 l 139 628 q 200 661 200 628 l 200 693 q 215 734 200 725 q 274 740 229 740 l 342 740 q 406 733 396 740 q 416 698 416 723 l 416 690 q 402 662 412 670 l 402 664 q 394 691 402 691 q 372 693 385 693 l 255 693 q 224 682 224 693 q 222 660 222 674 l 222 630 q 162 582 222 592 l 68 582 q 1 620 16 582 q 0 628 0 624 l 0 794 q 25 872 0 839 m 230 552 q 232 540 232 548 q 210 480 232 511 l 210 480 q 217 514 217 498 q 215 535 217 519 q 230 552 215 545 m 600 400 l 602 400 q 624 366 624 386 l 624 48 q 574 6 624 20 q 562 5 567 5 l 558 5 q 417 21 479 21 l 412 21 q 226 1 334 21 q 198 0 212 0 l 184 0 q 35 10 35 4 q 0 48 0 25 l 0 271 q 13 294 0 282 l 14 294 l 14 80 q 88 50 14 50 q 188 46 167 46 q 312 62 223 46 q 406 68 359 67 q 556 51 472 68 q 602 78 602 57 l 602 392 l 600 400 "},"j":{"x_min":0,"x_max":624.640625,"ha":650,"o":"m 122 971 l 125 971 q 345 950 242 950 q 564 971 444 950 l 567 971 q 587 962 578 971 l 587 773 q 560 762 580 762 l 519 762 q 458 729 474 762 q 454 640 455 729 q 501 536 454 574 q 454 315 454 493 q 456 164 456 200 q 394 75 456 100 q 250 54 343 54 l 242 54 q 43 123 82 54 q 33 175 33 146 l 33 425 q 59 436 40 436 l 153 436 q 179 425 172 436 l 179 346 q 238 287 179 287 l 246 287 q 299 345 290 287 q 299 379 299 364 l 299 419 q 246 536 299 492 l 246 537 q 301 655 301 577 q 299 718 299 697 q 257 760 299 747 q 238 762 244 762 l 128 762 q 101 773 109 762 l 101 961 q 122 971 101 967 m 600 969 q 622 946 611 969 q 624 938 624 943 l 624 738 q 571 697 624 708 l 524 697 q 494 689 503 697 l 491 619 q 507 554 491 577 l 507 552 q 468 650 468 578 q 474 727 470 727 q 517 744 489 744 l 560 744 q 602 769 593 744 l 602 963 l 600 969 m 82 962 l 82 962 l 82 775 q 105 748 82 755 q 124 744 116 744 l 234 744 q 280 718 273 744 q 281 706 281 714 l 281 648 q 259 575 281 604 l 258 575 q 267 627 267 599 l 267 636 q 265 689 267 653 q 233 697 256 697 l 126 697 q 70 729 88 697 q 68 742 68 737 l 68 932 q 82 962 68 951 m 528 535 q 554 511 554 525 l 554 506 q 531 484 554 495 q 492 300 492 446 q 494 143 492 226 q 377 2 494 29 q 265 -10 323 -10 l 232 -10 q 12 80 62 -10 q 0 133 0 109 l 0 404 q 13 427 0 413 l 14 425 l 14 173 q 236 36 14 36 l 248 36 q 456 105 419 36 q 472 170 472 133 l 470 183 q 470 333 470 286 q 520 531 470 495 q 528 535 526 535 m 217 531 q 281 415 281 496 l 281 384 q 265 312 281 318 q 264 311 265 311 q 267 383 267 352 q 201 493 267 463 q 194 508 194 501 q 217 531 194 526 m 193 433 l 194 433 q 217 398 217 419 l 217 328 q 218 307 217 322 q 217 306 217 307 q 195 341 195 314 q 194 358 194 341 l 194 425 l 193 433 "},"Z":{"x_min":0,"x_max":630.0625,"ha":655,"o":"m 170 973 l 190 973 q 298 958 205 973 q 394 952 343 952 l 406 952 q 569 969 482 952 q 592 958 592 965 l 592 754 q 473 623 520 676 q 423 522 423 560 q 424 510 424 516 l 424 508 l 423 508 q 343 469 388 508 q 272 374 308 430 q 251 335 251 352 q 301 292 251 301 q 318 290 307 290 l 341 290 q 430 326 417 290 q 437 372 437 339 l 437 447 q 461 457 444 457 l 569 457 q 592 447 585 457 l 592 80 q 565 69 585 69 l 432 64 q 315 80 404 64 q 208 86 264 86 q 58 69 132 86 q 33 80 41 69 l 33 298 q 164 470 144 423 q 179 525 179 499 q 176 543 179 533 l 205 553 q 309 626 244 561 l 364 692 q 374 716 374 705 q 324 760 374 750 q 304 761 314 761 l 275 761 q 202 747 214 761 q 188 704 188 731 l 188 653 q 162 643 181 643 l 56 643 q 33 653 40 643 l 33 958 q 54 969 41 969 l 170 973 m 606 965 l 608 965 q 630 932 630 952 l 630 720 q 589 667 630 706 l 516 588 q 461 495 461 522 q 470 476 461 484 l 470 474 q 418 443 418 474 l 418 368 q 404 321 418 331 l 402 321 q 404 352 404 333 l 404 420 q 409 438 404 430 l 409 439 q 309 332 371 431 q 292 310 293 311 l 290 310 q 266 335 266 319 q 297 382 266 341 q 366 467 330 435 q 433 492 399 492 l 451 492 l 451 494 q 439 522 439 505 l 439 523 q 579 714 439 575 q 606 747 606 745 q 607 751 607 748 l 607 960 l 606 965 m 13 959 l 14 959 l 14 653 q 54 626 20 626 l 162 626 q 202 653 197 626 l 202 697 q 218 738 202 731 q 282 744 236 744 l 297 744 q 355 714 355 744 q 339 690 355 708 q 318 696 328 696 l 257 696 q 227 688 227 696 q 225 663 225 678 l 225 624 q 168 579 225 585 q 147 578 163 578 l 76 578 q 0 616 10 578 l 0 936 q 13 959 0 946 m 152 549 q 160 521 160 539 q 133 453 160 495 l 133 455 q 145 491 145 478 l 145 498 q 132 522 145 506 l 131 528 q 152 549 135 549 m 606 455 l 608 455 q 630 421 630 442 l 630 45 q 587 7 630 21 q 447 0 587 5 l 435 0 q 312 15 398 0 q 210 21 256 21 q 60 5 149 21 l 58 5 q 2 37 19 5 q 0 45 0 41 l 0 271 q 13 298 0 286 l 14 298 l 14 78 q 56 51 14 56 q 208 68 135 68 q 402 47 290 68 q 437 46 420 46 q 588 56 588 51 q 607 75 607 65 l 607 449 l 606 455 "},"u":{"x_min":0,"x_max":833.53125,"ha":844,"o":"m 55 969 q 191 958 137 958 l 221 958 q 361 969 266 958 q 383 958 375 969 l 383 772 q 334 760 383 763 q 298 735 298 746 q 293 714 293 730 q 292 661 293 688 q 327 544 292 579 q 292 446 292 513 q 302 304 292 316 q 347 276 316 276 q 420 272 357 272 l 459 272 q 533 311 519 272 q 535 363 535 328 l 535 428 q 503 543 535 513 q 535 673 535 579 l 535 716 q 481 762 535 753 q 446 772 451 762 l 446 958 q 466 969 446 964 l 468 969 q 620 952 560 952 q 773 969 682 952 q 796 959 788 969 l 796 772 q 769 762 788 762 l 754 762 q 693 727 708 762 l 691 714 l 691 667 q 731 539 691 572 q 700 457 706 507 q 691 286 691 414 l 691 234 q 572 65 691 108 q 425 42 508 42 l 403 42 q 165 132 228 42 q 137 232 137 174 l 137 265 q 111 513 137 468 q 94 539 107 524 l 94 541 q 130 610 123 569 q 137 716 137 649 q 82 762 137 753 l 59 762 q 33 772 40 762 l 33 959 q 55 969 40 969 m 396 965 l 398 965 q 416 947 413 956 q 426 959 425 959 l 427 959 l 427 776 q 482 744 427 744 q 517 711 517 738 l 517 682 q 491 558 517 585 l 490 558 q 503 663 503 590 q 501 685 501 669 l 501 689 q 457 699 500 697 q 417 725 428 707 l 417 727 l 416 727 q 388 703 413 714 q 339 695 376 699 l 331 689 q 330 646 330 662 l 330 636 q 347 549 330 576 l 345 549 q 307 663 307 572 l 307 697 q 314 730 307 730 q 367 746 325 746 q 397 771 397 753 l 397 960 l 396 965 m 809 965 q 831 944 819 965 q 833 935 833 940 l 833 738 q 779 697 833 709 q 730 689 730 697 l 730 659 q 729 641 730 649 q 746 549 729 579 l 746 549 q 713 598 722 564 q 706 674 706 632 q 707 720 707 701 q 752 744 718 744 l 769 744 q 810 768 802 744 l 810 960 l 809 965 m 13 959 l 14 959 l 14 771 q 55 744 14 749 l 72 744 q 118 716 111 744 l 118 710 q 90 564 118 589 l 90 566 q 103 647 103 598 l 103 689 q 56 697 101 697 q 4 724 27 697 q 0 738 0 734 l 0 935 q 13 959 0 947 m 357 539 q 381 514 381 526 l 381 513 q 356 490 381 496 q 330 419 330 474 l 330 393 q 335 294 330 305 l 333 293 q 308 355 308 303 q 306 436 307 392 q 345 535 306 516 q 357 539 354 539 m 756 537 l 758 537 q 782 511 782 529 q 760 488 782 500 q 730 288 730 450 l 730 213 q 576 -1 730 49 q 436 -21 507 -21 l 397 -21 q 120 116 177 -17 q 103 213 103 159 l 103 272 q 70 487 103 450 q 47 511 47 499 l 47 516 q 69 535 47 526 q 100 491 86 527 q 118 258 118 444 l 118 227 q 238 51 118 105 q 402 25 312 25 l 420 25 q 682 132 620 25 q 707 243 707 175 l 707 329 q 748 533 707 497 q 756 537 754 537 m 477 537 q 507 501 496 528 q 517 430 517 476 l 517 389 q 509 304 517 309 q 501 301 506 301 q 503 403 501 330 q 470 493 503 478 q 455 509 457 496 l 455 516 q 477 537 455 526 "},"1":{"x_min":0,"x_max":669.40625,"ha":700,"o":"m 392 973 q 419 961 409 973 q 410 718 410 753 q 453 539 410 577 l 453 538 q 417 411 417 506 q 425 316 417 316 q 447 297 432 304 q 482 289 464 289 l 585 289 q 632 276 623 289 l 632 80 q 599 64 632 67 q 387 84 549 64 q 330 87 358 87 l 309 87 q 120 67 276 87 q 61 64 94 64 q 33 77 44 64 l 33 276 q 69 289 42 289 l 198 289 q 259 320 240 289 q 264 411 263 320 q 217 535 264 487 l 217 536 q 263 670 263 567 q 255 737 263 737 q 177 764 240 764 l 151 764 q 124 776 132 764 l 124 891 q 164 920 124 901 q 264 973 252 973 l 392 973 m 433 969 l 434 969 q 457 933 457 954 l 457 925 q 447 693 457 906 q 472 546 447 587 l 472 545 l 471 545 q 438 594 453 554 q 425 708 425 642 l 425 710 q 424 718 425 716 q 425 728 425 723 q 434 959 425 757 l 434 961 l 433 969 m 103 895 l 105 895 l 105 775 q 151 746 105 750 q 169 745 151 745 l 198 745 q 242 720 230 745 q 244 685 243 720 q 219 564 244 585 l 219 565 q 229 626 229 592 l 229 683 q 200 698 225 698 l 166 698 q 90 741 101 698 q 89 758 89 749 l 89 854 q 103 895 89 886 m 482 535 l 482 535 q 507 516 507 524 q 509 510 509 510 q 482 484 509 495 q 455 397 455 459 l 455 394 q 457 311 455 364 l 453 311 q 434 335 434 322 q 433 418 433 387 q 472 531 433 506 q 482 535 480 535 m 191 531 q 245 406 245 491 q 238 321 245 321 q 229 315 231 315 l 229 316 q 229 367 229 348 l 229 381 q 172 496 229 462 q 168 507 168 502 l 168 513 q 191 531 168 526 m 645 284 l 646 284 q 669 251 669 268 l 669 46 q 611 0 669 10 l 588 0 q 383 19 550 0 q 321 23 350 23 q 110 1 280 23 q 81 0 94 0 l 61 0 q 7 23 32 0 q 0 46 0 36 l 0 251 q 13 276 0 264 l 14 276 l 14 79 q 56 46 14 52 l 62 46 q 261 66 107 46 q 313 69 286 69 l 324 69 q 533 50 372 69 q 600 46 562 46 l 601 46 q 646 73 636 46 l 646 276 l 645 284 "},"k":{"x_min":0,"x_max":889.828125,"ha":903,"o":"m 56 969 q 232 949 90 965 q 299 946 257 946 q 379 951 338 946 q 403 940 403 946 l 403 771 q 358 760 401 760 q 300 728 317 760 q 298 715 298 720 l 298 639 q 350 592 298 600 q 360 591 359 591 q 432 623 390 591 q 585 730 579 722 q 589 741 589 737 q 567 760 589 760 l 507 760 q 477 771 484 760 l 477 940 q 501 951 477 946 q 554 948 530 948 l 569 948 q 794 967 628 948 q 811 969 797 969 q 833 956 830 969 l 833 771 q 806 760 826 760 l 775 760 q 707 731 744 760 l 484 581 l 457 548 l 457 548 q 631 529 510 548 q 666 527 646 527 l 678 527 q 684 507 679 527 q 717 468 691 486 q 744 416 744 438 l 744 335 q 800 288 744 295 q 852 277 852 288 l 852 75 q 828 64 844 64 l 617 81 q 575 82 579 82 q 500 79 535 81 q 477 89 486 79 l 477 277 q 505 288 486 288 l 529 288 q 585 319 566 288 q 587 333 587 328 l 587 401 q 503 507 587 484 q 425 515 474 515 l 366 515 q 299 478 311 515 q 298 470 298 474 l 298 333 q 333 292 298 304 q 356 288 347 288 l 375 288 q 403 277 395 288 l 403 89 q 383 79 403 84 q 322 80 343 80 q 64 64 268 80 l 55 64 q 33 75 41 64 l 33 277 q 94 288 33 288 q 141 333 141 301 q 141 404 141 358 q 101 538 141 503 l 101 539 q 141 676 141 572 l 141 713 q 85 760 141 752 l 60 760 q 33 771 40 760 l 33 959 q 56 969 41 969 m 847 965 q 870 942 856 965 l 870 932 l 870 739 q 834 699 870 712 q 812 695 823 695 l 781 695 q 736 676 758 695 l 556 556 q 491 563 526 560 l 491 564 q 730 726 525 589 q 771 742 750 742 l 803 742 q 847 769 842 742 l 847 961 l 847 965 m 13 959 l 14 959 l 14 769 q 52 742 14 748 l 78 742 q 120 717 111 742 q 122 701 122 709 q 103 571 122 591 l 98 562 l 96 562 q 106 630 106 591 l 106 686 q 73 695 102 695 l 58 695 q 2 728 19 695 q 0 736 0 731 l 0 935 q 13 959 0 947 m 417 948 l 418 948 q 441 913 441 934 l 441 740 q 391 696 441 706 q 337 686 337 696 l 337 612 l 335 612 q 312 636 312 620 l 312 708 q 339 740 312 733 q 356 742 352 742 l 373 742 q 418 769 418 746 l 418 940 l 417 948 m 457 940 l 459 940 l 459 773 q 482 746 459 753 q 501 742 494 742 l 568 742 q 570 740 570 742 q 504 695 548 721 l 502 695 q 446 728 464 695 q 444 740 444 735 l 444 912 q 457 940 444 929 m 707 536 q 726 516 720 536 q 718 499 726 507 l 718 498 q 723 482 718 494 q 694 527 694 504 q 701 535 694 535 l 707 536 m 73 533 q 109 493 96 522 q 122 407 122 457 q 122 339 122 362 q 106 311 122 317 l 106 312 q 107 360 107 341 l 107 383 q 73 486 107 466 q 48 509 48 491 q 73 533 48 525 m 362 497 l 420 497 q 558 446 534 497 q 568 396 568 429 l 568 335 q 554 311 568 318 l 552 311 l 552 377 q 493 444 552 429 q 402 450 470 450 l 374 450 q 337 441 341 450 l 337 309 l 335 307 q 315 324 321 312 q 312 341 312 328 l 312 459 q 328 490 312 483 q 362 497 341 497 m 734 472 l 735 472 q 783 375 783 434 l 783 309 l 782 307 q 760 330 760 316 l 760 406 q 734 472 760 443 m 417 284 l 418 284 q 441 250 441 271 l 441 60 q 405 18 441 31 q 379 13 402 16 q 375 14 375 14 q 323 15 360 14 q 71 0 284 15 l 54 0 q 3 28 25 0 q 0 40 0 37 l 0 255 q 13 277 0 265 l 14 277 l 14 73 q 44 48 14 55 q 54 46 50 46 q 277 61 67 46 q 314 62 290 62 q 382 61 326 62 q 412 73 403 65 q 418 88 418 81 l 418 277 l 417 284 m 866 284 l 866 284 q 889 251 889 271 l 889 40 q 836 0 889 10 l 831 0 q 641 14 813 0 q 574 17 617 16 q 507 13 533 16 q 449 40 470 13 q 444 60 444 48 l 444 249 q 457 277 444 266 l 459 277 l 459 93 q 477 65 459 73 q 498 61 491 61 q 573 64 559 64 q 823 46 620 64 l 829 46 q 866 69 855 46 l 866 279 l 866 284 "},"<":{"x_min":0,"x_max":0,"ha":751},"t":{"x_min":0,"x_max":745.359375,"ha":764,"o":"m 470 973 l 486 973 q 670 962 502 973 l 682 962 q 708 952 699 962 l 708 628 q 682 617 700 617 l 577 617 q 551 627 559 617 l 551 665 q 537 741 551 733 q 480 754 522 754 l 465 754 q 446 722 446 754 q 446 661 446 681 q 481 531 446 567 l 481 529 q 446 387 446 496 q 448 324 446 366 q 490 287 448 301 q 509 285 501 285 l 537 285 q 566 275 560 285 l 566 73 q 542 64 557 64 q 368 82 451 82 q 197 64 291 82 q 174 73 183 64 l 174 275 q 200 285 181 285 l 231 285 q 291 320 276 285 q 293 376 293 337 l 293 393 q 253 533 293 500 q 293 678 293 568 l 293 694 q 287 749 293 749 q 275 754 282 754 l 248 754 q 190 706 190 754 q 189 676 189 697 l 189 627 q 163 617 181 617 l 59 617 q 33 628 40 617 l 33 952 q 56 962 41 962 q 222 940 141 940 q 403 967 307 940 q 470 973 431 973 m 721 959 l 722 959 q 745 926 745 946 l 745 594 q 698 554 745 567 q 688 553 693 553 l 577 553 q 520 584 537 553 q 517 598 517 590 l 517 664 q 511 687 517 687 q 485 690 503 689 q 484 634 484 651 q 499 538 484 569 q 472 575 482 546 q 461 666 461 607 q 462 735 462 728 l 464 737 l 474 737 q 526 725 520 737 q 531 697 531 712 l 531 633 q 549 605 531 612 q 573 600 562 600 l 682 600 q 722 621 711 600 l 722 954 l 721 959 m 13 952 l 14 952 l 14 627 q 52 600 14 605 l 163 600 q 204 621 193 600 q 204 630 204 626 l 204 693 q 219 731 204 731 q 247 737 231 737 l 271 737 l 274 735 q 275 682 275 698 q 248 555 275 583 l 248 558 q 261 659 261 589 q 259 690 259 690 q 228 686 239 690 q 227 658 227 667 l 227 598 q 175 553 227 564 l 56 553 q 1 586 18 553 l 0 594 l 0 930 q 13 952 0 940 m 509 529 q 533 514 533 519 q 535 503 535 510 q 511 479 535 489 q 485 368 485 453 l 485 352 q 484 348 485 350 q 485 344 485 347 l 485 306 l 484 306 q 462 328 462 314 l 462 401 q 501 525 462 497 q 509 529 507 529 m 225 527 q 261 489 246 521 q 275 396 275 455 l 275 383 q 274 326 275 362 q 261 309 274 318 l 259 311 q 261 369 259 328 q 230 478 261 455 q 204 492 204 490 q 200 505 200 497 q 225 527 200 522 m 580 282 l 581 282 q 604 244 604 269 l 604 47 q 562 2 604 14 q 547 0 553 0 l 542 0 q 387 16 448 16 l 356 16 q 202 0 296 16 l 197 0 q 143 29 163 0 q 141 47 141 40 l 141 241 q 155 276 141 265 l 155 274 l 155 70 q 197 46 163 46 q 367 64 290 64 q 541 46 442 64 l 543 46 q 581 71 581 53 l 581 269 l 580 282 "},"W":{"x_min":0,"x_max":1304.90625,"ha":1327,"o":"m 56 970 q 194 955 136 955 l 195 955 q 356 970 269 955 l 357 970 q 378 961 370 970 l 378 763 q 376 761 378 761 l 354 761 q 291 724 304 761 l 291 717 q 319 619 291 707 q 406 340 402 351 q 425 332 413 332 q 450 370 442 332 q 562 717 553 683 q 518 759 562 747 q 474 767 475 763 q 467 771 470 768 l 467 960 q 492 970 474 970 q 634 961 579 961 l 664 961 q 811 970 715 961 q 832 960 824 970 l 832 771 q 779 759 832 762 q 738 717 738 745 q 850 368 744 691 q 876 332 857 332 l 877 332 q 903 370 897 332 q 1017 740 1017 734 l 1017 744 q 999 761 1017 758 l 951 761 q 922 771 929 761 l 922 961 q 944 970 929 970 q 1094 964 1030 964 q 1246 970 1146 964 q 1267 961 1258 970 l 1267 771 q 1218 760 1267 761 q 1178 739 1197 757 q 1148 647 1165 713 q 1144 603 1144 622 l 1144 598 q 1160 544 1144 564 l 1160 541 q 1115 495 1132 522 q 1055 356 1089 463 q 1049 333 1049 339 l 1049 328 q 1091 290 1049 303 q 1138 278 1138 286 l 1138 73 q 1117 65 1129 65 q 955 71 1005 71 q 812 65 906 71 q 788 83 788 67 l 669 494 q 655 502 663 502 l 644 502 q 623 469 629 502 q 510 73 621 465 q 486 65 499 65 q 324 73 394 73 q 183 65 271 73 q 162 73 170 65 l 162 278 q 210 290 162 287 q 250 328 250 305 l 250 333 q 210 455 250 349 q 160 529 189 499 q 143 541 158 529 q 158 593 158 564 q 124 736 158 639 q 55 761 108 761 q 33 771 42 761 l 33 961 q 56 970 41 970 m 392 967 l 394 967 q 417 933 417 953 l 417 716 q 396 696 413 696 l 361 696 q 328 688 337 696 q 425 376 419 396 l 425 376 l 527 688 q 480 697 518 697 q 434 740 434 710 l 434 933 q 448 961 434 950 l 448 961 l 448 773 q 469 748 448 755 q 512 742 484 742 q 541 718 541 733 l 541 714 q 423 349 531 678 l 419 349 q 361 537 417 349 q 305 717 305 710 q 328 739 305 729 q 352 744 336 744 l 394 744 l 394 960 l 392 967 m 846 967 q 869 944 855 967 l 870 933 l 870 740 q 815 696 870 707 q 777 687 781 696 q 878 376 788 653 l 879 376 l 978 696 l 949 696 q 889 733 903 696 q 887 744 887 738 l 887 929 q 901 960 887 950 l 902 960 l 902 777 q 928 746 902 752 q 945 744 940 744 l 996 744 q 999 740 999 744 q 876 347 883 362 l 875 347 q 862 380 871 347 q 754 715 754 710 l 754 716 q 800 744 754 739 q 847 769 841 744 l 847 962 l 846 967 m 1281 967 q 1302 945 1291 967 q 1304 937 1304 941 l 1304 737 q 1258 697 1304 711 q 1206 680 1206 697 q 1181 568 1181 603 q 1186 543 1181 559 l 1185 543 q 1158 600 1158 558 q 1188 726 1158 638 q 1252 744 1199 744 q 1281 767 1281 754 l 1281 962 l 1281 967 m 13 961 l 14 961 l 14 771 q 52 744 14 750 q 110 716 107 744 q 139 597 139 636 l 139 589 q 123 548 139 561 q 124 564 124 558 q 94 689 124 606 q 40 699 94 695 q 0 737 0 714 l 0 937 q 13 961 0 948 m 1192 535 q 1217 516 1215 524 l 1217 508 q 1193 487 1217 491 q 1127 412 1159 474 q 1089 307 1089 318 l 1088 307 q 1064 333 1064 316 q 1125 482 1094 436 q 1190 535 1153 524 l 1192 535 m 115 533 q 193 446 162 516 q 231 332 212 401 l 231 330 q 215 310 231 320 q 160 446 187 405 q 106 489 140 478 q 92 506 92 495 l 92 512 q 115 533 92 524 m 651 484 q 664 444 653 484 q 775 62 771 71 q 812 46 790 46 q 955 53 885 52 q 1117 46 1020 52 q 1153 67 1138 46 l 1154 79 l 1154 272 l 1153 285 q 1177 246 1177 273 l 1177 46 q 1125 0 1177 10 l 1119 0 q 970 5 1019 5 l 943 5 q 815 0 901 5 q 758 34 769 3 q 653 404 653 401 l 651 404 q 541 25 547 33 q 485 0 522 0 q 335 8 415 6 q 185 0 287 8 q 133 25 153 0 q 127 46 127 34 l 127 243 q 141 278 127 268 l 143 276 l 143 71 q 183 46 151 46 q 322 55 269 55 q 485 46 387 55 q 527 80 520 46 q 644 484 642 482 l 651 484 "},"v":{"x_min":0,"x_max":822.6875,"ha":840,"o":"m 56 973 q 203 961 145 961 q 352 973 256 961 l 353 973 q 374 963 366 973 l 374 774 q 328 763 371 763 q 278 739 301 763 q 272 720 273 728 q 352 447 274 706 q 411 417 369 417 l 411 417 q 470 448 454 417 q 545 720 545 710 l 545 720 q 482 763 537 763 q 444 774 448 763 l 444 963 q 467 973 451 973 q 615 963 562 963 q 763 973 666 963 q 784 964 776 973 l 784 766 q 782 763 784 763 l 763 763 q 701 731 718 763 q 666 607 666 641 l 666 599 q 682 550 666 572 q 641 516 659 538 q 586 405 610 478 q 563 334 563 343 l 563 333 q 609 290 563 301 q 647 278 647 287 l 647 77 q 623 65 644 65 q 403 84 505 84 q 193 65 304 84 q 170 74 179 65 l 170 278 q 219 292 170 287 q 254 333 254 307 l 254 334 q 212 449 254 350 q 125 543 175 521 l 125 545 q 143 601 143 569 l 143 607 q 107 755 143 660 q 88 763 101 763 l 61 763 q 33 774 40 763 l 33 964 q 56 973 41 973 m 387 970 l 389 970 q 411 942 411 956 l 411 942 q 424 964 411 952 l 425 964 l 425 777 q 482 746 425 746 q 526 717 526 741 q 449 448 455 456 q 442 444 447 444 q 511 690 511 687 q 457 699 511 698 q 411 737 411 714 l 411 737 q 376 703 411 718 q 324 697 360 697 q 311 689 311 693 q 385 438 382 452 q 356 488 366 438 q 288 717 295 687 l 288 718 q 328 746 288 739 q 386 765 379 746 q 388 773 388 769 l 388 965 l 387 970 m 798 970 q 820 948 809 970 q 822 940 822 944 l 822 715 q 803 699 817 699 l 768 699 q 735 680 735 699 q 704 574 704 603 q 711 543 704 560 q 680 602 680 563 q 718 729 680 639 q 760 746 733 746 l 799 746 l 799 965 l 798 970 m 13 964 l 14 964 l 14 773 q 52 746 14 752 l 88 746 q 111 682 94 739 q 124 607 124 638 l 124 598 q 107 554 124 571 l 107 555 q 109 577 109 571 q 80 699 109 617 l 59 699 q 2 731 19 699 q 0 739 0 735 l 0 940 q 13 964 0 952 m 716 539 q 736 518 736 522 l 737 511 q 707 490 737 493 q 659 447 678 479 q 609 326 635 407 l 602 307 q 578 333 578 318 q 657 510 624 481 q 716 539 685 539 m 97 535 q 177 471 146 519 q 219 384 197 442 q 236 330 236 338 q 217 311 236 319 q 144 459 182 422 q 82 493 118 484 q 71 511 71 501 q 97 535 71 528 m 662 286 q 686 247 686 272 l 686 51 q 657 7 686 18 q 625 0 642 0 l 624 0 q 444 18 495 18 q 409 19 415 18 q 199 0 315 19 l 193 0 q 138 32 157 0 q 136 51 136 42 l 136 247 q 151 280 136 267 l 151 277 l 151 71 q 192 47 160 47 q 402 67 305 67 q 621 47 499 67 l 622 47 q 663 74 663 52 l 663 270 q 662 286 663 275 "},">":{"x_min":0,"x_max":0,"ha":751},"s":{"x_min":0,"x_max":639.5625,"ha":678,"o":"m 250 980 l 284 980 q 428 963 375 980 l 432 963 q 453 977 439 963 q 470 980 461 980 l 579 980 q 602 971 594 980 l 602 681 q 575 670 594 670 l 475 670 q 447 689 447 670 q 422 752 447 734 q 369 763 400 763 l 263 763 q 189 721 202 763 q 186 692 186 707 l 186 625 q 215 560 186 576 q 263 551 240 551 l 271 551 q 349 573 318 551 q 420 552 397 552 q 505 544 444 548 q 602 449 602 526 l 602 196 q 454 67 602 97 q 379 61 423 61 l 372 61 q 206 82 267 61 l 203 82 q 183 67 193 82 q 162 61 174 61 l 59 61 q 33 71 40 61 l 33 394 q 76 404 37 404 l 144 404 q 186 394 180 404 l 186 359 q 224 298 186 309 q 262 293 244 293 l 373 293 q 443 323 429 293 q 448 359 448 337 l 448 451 q 424 507 448 495 q 397 515 409 515 q 350 499 373 515 q 286 519 326 519 l 178 519 q 52 578 82 519 q 33 644 33 607 l 33 820 q 96 940 33 897 q 250 980 155 980 m 615 977 q 637 955 626 977 q 639 946 639 951 l 639 647 q 592 607 639 620 q 581 606 585 606 l 475 606 q 419 633 438 606 q 410 685 415 637 q 366 699 410 699 l 273 699 q 225 676 225 699 q 224 651 224 659 l 224 605 q 227 574 224 588 q 226 573 226 574 q 209 586 213 577 q 201 631 201 600 l 201 687 q 217 735 201 725 q 263 745 233 745 l 367 745 q 421 727 411 745 q 430 674 427 708 q 471 653 441 653 l 575 653 q 616 676 607 653 l 616 971 l 615 977 m 25 889 l 27 889 l 27 887 q 14 820 14 862 l 14 638 q 62 535 14 583 q 171 501 103 501 l 284 501 q 348 476 324 501 l 350 476 q 395 497 370 497 l 397 497 q 427 468 427 491 q 430 447 430 468 l 430 359 q 416 318 430 326 l 414 318 q 415 335 415 330 l 415 406 q 404 449 415 449 q 400 451 401 451 q 362 430 381 451 l 354 429 l 352 429 q 324 446 345 429 q 273 455 315 455 l 173 455 q 5 573 40 455 q 0 606 0 590 l 0 803 q 25 889 0 847 m 596 515 l 598 515 q 639 432 639 480 l 639 158 q 518 18 639 67 q 389 -2 459 -2 l 358 -2 q 213 14 271 -2 q 162 -2 193 -2 l 56 -2 q 2 28 20 -2 q 0 37 0 35 l 0 370 q 13 394 0 382 l 14 394 l 14 71 q 54 44 20 44 l 158 44 q 202 64 189 44 l 203 64 q 371 44 260 44 l 385 44 q 598 126 531 44 q 616 188 616 158 l 616 457 q 596 514 616 489 l 596 515 m 200 400 l 202 400 q 224 366 224 387 l 224 341 q 226 316 224 324 q 225 314 225 316 q 202 349 202 323 q 201 361 201 352 l 201 394 l 200 400 "},"B":{"x_min":0,"x_max":841.671875,"ha":846,"o":"m 492 971 l 510 971 q 683 925 581 971 q 744 864 729 900 q 752 805 752 838 q 786 741 759 769 q 790 737 788 741 q 750 642 750 711 q 729 599 750 621 q 663 569 706 581 q 612 548 612 559 q 611 543 611 545 l 611 540 q 676 492 611 504 q 737 458 718 480 q 752 396 746 447 q 780 323 752 362 l 780 322 q 751 240 751 299 q 661 117 751 167 q 497 64 573 64 l 495 64 q 355 76 486 64 q 236 81 303 81 l 233 81 q 54 66 153 81 l 52 66 q 33 75 42 66 l 33 278 q 56 288 41 288 l 83 288 q 162 327 155 288 q 163 331 163 328 q 164 410 164 395 q 124 535 164 500 l 124 536 q 163 650 163 571 l 163 712 q 122 756 163 745 q 92 759 110 759 l 56 759 q 33 770 40 759 l 33 957 q 56 967 33 964 q 212 944 131 944 l 240 944 q 474 970 311 944 q 492 971 478 971 m 13 958 l 14 958 l 14 769 q 56 741 14 745 l 89 741 q 144 708 144 741 l 144 653 q 120 559 144 585 l 120 561 q 130 639 130 587 l 130 645 q 128 687 130 660 q 107 694 118 694 l 76 694 q 0 732 10 694 l 0 935 q 13 958 4 952 m 739 902 l 739 902 q 778 851 767 877 q 790 782 790 824 q 806 746 793 765 l 806 745 q 770 798 780 763 q 763 851 766 810 q 739 901 756 881 l 739 902 m 318 714 l 318 594 q 358 550 318 561 q 389 546 372 546 l 472 546 q 561 575 545 546 q 570 626 570 592 l 570 696 q 521 757 570 757 q 487 759 514 759 l 388 759 q 321 730 338 759 q 318 714 318 719 m 388 741 l 472 741 q 541 732 541 741 q 552 691 550 732 l 552 632 q 535 575 552 575 l 535 577 q 536 588 536 583 l 536 675 q 530 692 536 692 q 505 694 518 694 l 378 694 q 356 686 364 694 l 356 567 l 355 567 q 333 588 341 567 l 333 716 q 364 739 333 732 q 388 741 370 741 m 819 733 q 841 710 841 722 l 841 704 q 815 681 841 693 q 788 610 788 666 q 752 540 788 575 q 681 507 723 520 l 679 507 q 626 541 626 517 q 735 581 705 561 q 767 673 767 603 q 794 720 772 700 q 819 733 813 733 m 96 531 q 145 407 145 508 q 144 335 144 347 q 130 312 144 320 l 128 312 l 130 378 q 93 485 130 466 q 71 505 71 493 l 71 511 q 96 531 71 524 m 318 467 l 318 335 q 398 288 318 288 l 476 288 q 556 304 546 288 q 570 351 570 310 l 570 439 q 556 499 570 490 q 501 514 534 514 l 374 514 q 318 467 318 507 m 374 497 l 499 497 q 548 474 548 493 q 552 434 551 474 l 552 362 q 544 316 552 316 q 536 311 539 311 l 536 427 q 529 445 536 445 q 492 450 518 450 l 379 450 q 356 441 356 446 l 356 308 l 355 308 q 333 331 333 316 l 333 472 q 374 497 333 491 m 749 470 q 780 425 773 453 q 792 351 784 411 q 821 307 805 314 q 827 295 827 299 l 827 288 q 803 263 827 279 q 788 201 788 252 q 603 19 788 94 q 505 0 550 0 l 492 0 q 352 12 484 0 q 239 16 290 16 q 61 1 151 16 q 4 29 23 1 q 0 44 0 35 l 0 254 q 13 278 0 266 l 14 278 l 14 74 q 56 48 14 52 q 234 63 139 63 q 486 46 335 63 l 495 46 q 706 126 593 46 q 757 191 749 164 q 767 267 767 206 q 792 310 774 297 q 804 320 804 318 l 804 322 q 772 370 785 333 q 759 444 768 387 q 749 467 755 458 l 749 470 "},"?":{"x_min":0,"x_max":442.203125,"ha":452,"o":"m 177 977 q 330 914 298 977 q 350 780 350 881 q 383 714 354 749 q 349 590 349 676 l 349 557 q 301 486 349 503 q 257 482 290 484 q 246 467 246 474 q 246 385 246 415 l 246 334 q 244 332 246 332 l 106 332 q 104 334 104 332 l 104 470 q 85 519 104 499 l 85 522 q 217 540 128 535 q 241 562 236 548 q 246 604 246 571 l 246 685 q 225 748 246 736 q 204 754 213 754 l 147 754 q 106 708 111 754 q 102 665 105 665 l 16 665 q 14 667 14 665 l 14 790 q 45 925 14 897 q 177 977 82 977 m 303 966 l 305 966 q 376 906 352 949 q 398 765 398 867 q 419 718 398 744 q 442 693 442 701 l 442 688 q 425 667 442 680 q 398 541 398 644 l 398 524 q 345 438 398 472 q 295 427 320 427 l 295 425 q 296 360 296 381 l 296 325 q 246 275 296 275 l 140 275 q 89 325 89 275 l 89 330 l 91 330 q 111 316 98 316 l 239 316 q 263 341 258 316 l 263 379 q 261 465 263 411 l 264 467 q 359 520 339 467 q 365 562 365 535 l 365 599 q 409 714 366 685 l 409 714 q 365 807 365 744 q 303 965 365 933 l 303 966 m 146 737 l 202 737 q 229 703 229 737 q 230 692 230 703 l 228 692 q 226 697 228 697 l 157 697 l 157 696 q 142 623 154 623 q 109 609 132 609 l 47 609 q 2 638 13 609 q 0 665 0 650 l 2 665 q 22 650 8 650 l 98 650 q 120 677 118 650 q 137 734 120 734 q 146 737 137 736 m 64 512 l 65 512 q 88 475 88 497 l 88 462 l 87 462 q 56 484 78 474 q 52 496 52 489 l 52 497 q 64 512 54 512 m 263 199 l 264 199 q 298 177 280 199 q 309 127 309 160 l 309 78 q 272 5 309 17 q 232 0 255 0 l 157 0 q 90 40 110 0 q 86 67 86 53 l 86 73 l 88 73 q 130 42 101 42 q 151 40 130 40 l 199 40 q 264 54 254 40 q 276 92 276 67 l 276 157 q 263 199 276 184 m 179 196 q 251 186 251 196 q 259 158 259 181 l 259 90 q 226 56 259 56 q 210 56 223 56 l 147 56 q 101 89 101 56 l 101 162 q 118 191 103 191 q 179 196 127 196 "},"H":{"x_min":0,"x_max":855.921875,"ha":882,"o":"m 57 973 q 226 950 177 955 q 273 948 244 948 l 286 948 q 366 955 326 948 q 392 944 392 951 l 392 774 q 343 763 392 764 q 297 718 297 750 l 297 594 q 355 550 297 557 l 496 550 q 550 578 531 550 q 554 596 554 585 l 554 716 q 520 758 554 746 q 473 765 505 765 q 459 774 459 770 l 459 944 q 482 955 467 955 q 562 950 518 951 q 790 973 620 950 l 796 973 q 817 963 809 973 l 817 774 q 790 763 810 763 l 771 763 q 712 731 729 763 q 710 715 710 721 l 710 666 q 751 540 710 573 l 751 539 q 709 402 709 503 q 710 335 710 366 q 769 288 710 296 q 817 278 817 288 l 817 75 q 794 65 810 65 q 543 79 610 79 q 479 77 489 77 q 459 88 466 77 l 459 278 q 507 290 463 289 q 554 336 554 301 l 554 471 q 500 516 554 508 q 486 517 497 517 l 365 517 q 298 480 310 517 q 297 471 297 475 l 297 334 q 355 288 297 296 q 392 280 383 288 l 392 278 l 392 88 q 370 77 385 77 q 302 79 317 79 l 290 79 q 54 65 230 79 q 33 75 42 65 l 33 278 q 95 290 33 290 q 141 333 141 303 q 142 422 142 392 q 103 539 142 503 l 103 540 q 141 663 141 575 l 141 715 q 84 763 141 756 l 61 763 q 33 774 40 763 l 33 963 q 57 973 40 973 m 831 969 q 853 948 842 969 q 855 940 855 944 l 855 739 q 819 702 855 716 q 796 698 807 698 l 781 698 q 748 689 753 697 q 748 640 748 674 q 765 550 748 580 l 765 550 q 725 667 725 576 q 725 721 725 684 q 769 746 737 746 l 788 746 q 832 769 824 746 l 832 965 l 831 969 m 13 963 l 14 963 l 14 773 q 52 746 14 752 l 78 746 q 121 720 112 746 q 122 711 122 716 l 122 672 q 97 561 122 585 l 97 563 q 107 642 107 593 q 107 690 107 678 q 74 698 97 698 l 59 698 q 2 731 19 698 q 0 739 0 735 l 0 940 q 13 963 0 951 m 406 952 l 407 952 q 427 930 427 938 l 428 930 q 438 944 430 937 l 440 944 l 440 777 q 496 746 440 746 q 534 719 534 739 q 535 712 535 719 l 535 598 q 521 573 535 581 l 519 573 l 519 689 q 470 699 519 698 q 430 725 438 709 q 428 731 428 729 l 427 731 q 392 701 427 716 q 346 696 377 699 q 336 689 337 692 l 336 571 q 334 569 336 569 q 313 590 313 579 l 313 720 q 364 746 319 746 q 407 773 407 750 l 407 944 l 406 952 m 781 536 q 808 514 808 526 q 809 511 808 513 q 781 486 809 494 q 748 371 748 464 l 748 352 q 748 309 748 336 q 748 309 748 309 q 727 326 729 316 l 725 328 q 725 385 725 364 l 725 404 q 769 532 725 505 q 781 536 779 536 m 75 534 q 123 415 123 513 q 122 336 123 398 q 107 313 122 320 l 107 314 q 109 387 109 366 q 75 486 109 465 q 51 507 51 495 l 51 513 q 75 534 51 526 m 362 499 l 482 499 q 535 467 535 499 l 535 337 q 520 313 535 320 l 519 313 l 519 442 q 482 452 519 451 l 373 452 q 336 442 341 452 l 336 311 l 335 309 q 313 332 313 318 l 313 474 q 362 499 321 499 m 406 286 l 407 286 q 427 263 427 271 l 428 263 q 438 278 430 271 l 440 278 l 440 90 q 477 59 440 63 l 479 59 q 543 61 489 59 q 794 47 601 61 l 794 47 q 832 69 820 47 l 832 280 l 831 286 l 832 286 q 855 252 855 271 l 855 40 q 802 0 855 10 l 798 0 q 607 12 785 0 q 576 13 605 13 l 548 13 q 486 11 511 13 q 428 42 448 11 l 428 44 l 427 44 q 403 19 427 33 q 369 11 384 11 q 300 14 326 14 q 59 0 240 14 l 55 0 q 3 29 23 0 q 0 40 0 36 l 0 256 q 13 278 0 266 l 14 278 l 14 74 q 44 48 14 55 q 54 47 50 47 q 288 61 227 61 l 301 61 q 369 59 366 59 q 406 80 395 59 q 407 88 407 84 l 407 278 l 406 286 "},"c":{"x_min":0,"x_max":699.921875,"ha":722,"o":"m 304 980 l 334 980 q 482 959 418 980 l 484 959 q 505 975 496 959 q 522 980 517 980 l 638 980 q 661 972 651 980 q 647 792 647 876 l 647 775 q 661 623 647 706 q 619 613 655 613 l 545 613 q 501 624 507 613 l 501 632 q 484 720 501 705 q 387 760 453 760 l 377 760 q 264 710 292 760 q 255 672 255 687 l 255 643 q 254 638 255 640 l 255 632 l 255 620 q 285 535 255 568 q 254 440 254 505 q 265 338 254 351 q 375 282 294 282 l 384 282 q 492 339 459 282 q 501 385 501 364 l 501 421 q 528 432 509 432 l 635 432 q 661 421 654 432 l 661 246 q 567 75 661 113 q 389 47 501 47 l 387 47 q 119 138 172 47 q 94 258 94 177 l 94 324 q 47 535 94 489 l 47 537 q 94 771 94 583 l 94 822 q 162 951 94 918 q 304 980 215 980 m 675 978 q 697 955 686 978 q 699 946 699 951 l 699 944 q 685 758 685 826 q 699 594 685 682 l 699 590 q 648 549 699 561 q 630 548 640 548 l 537 548 q 469 586 480 548 q 457 667 466 667 q 382 695 440 695 q 301 667 319 695 q 293 628 293 657 l 293 602 q 305 541 293 563 l 304 541 q 269 627 270 561 l 269 660 q 375 742 269 742 l 381 742 q 477 691 458 742 q 482 625 482 679 q 541 596 482 596 l 619 596 q 674 613 663 596 l 676 621 q 661 780 661 710 q 676 974 661 859 q 675 978 675 976 m 89 902 l 89 902 q 75 826 75 868 l 75 778 q 37 556 75 596 l 37 558 q 61 790 61 598 l 61 805 q 89 902 61 863 m 315 532 q 337 516 335 519 q 339 507 339 512 l 339 503 q 313 480 339 491 q 293 415 293 461 l 293 377 q 304 318 293 332 l 304 316 q 269 400 269 337 q 268 432 269 423 q 306 529 268 510 l 315 532 m 21 530 q 75 309 75 505 l 75 244 q 178 63 75 109 q 377 29 253 29 l 392 29 q 650 124 593 29 q 676 227 676 173 l 676 423 l 675 429 l 678 429 q 699 395 699 415 l 699 199 q 632 42 699 100 q 400 -17 556 -17 l 377 -17 q 61 204 61 -17 l 61 257 q 15 485 61 468 q 0 499 3 491 l 0 509 q 21 530 0 519 m 481 421 l 482 421 l 482 385 q 465 330 482 356 l 462 330 q 467 362 467 346 l 467 396 q 481 421 467 409 "},"&":{"x_min":0,"x_max":0,"ha":1202},"I":{"x_min":0,"x_max":471.359375,"ha":492,"o":"m 56 975 q 222 958 152 958 q 411 975 295 958 l 412 975 q 433 965 424 975 l 433 775 q 406 765 425 765 l 375 765 q 316 735 333 765 q 312 718 312 725 l 312 653 q 356 540 312 578 l 356 539 q 321 470 333 516 q 312 356 312 428 l 312 335 q 371 289 312 297 l 402 289 q 433 279 426 289 l 433 75 q 408 65 425 65 q 220 82 311 82 q 56 65 149 82 q 33 75 33 69 l 33 279 q 63 289 33 287 l 92 289 q 151 322 135 289 q 154 337 154 332 l 154 385 q 105 539 154 505 l 105 541 q 147 619 133 561 q 154 710 154 648 l 154 716 q 97 765 154 757 l 61 765 q 33 775 41 765 l 33 965 q 56 975 42 975 m 446 971 q 469 950 457 971 q 471 941 471 946 l 471 741 q 434 704 471 718 q 412 699 423 699 l 381 699 q 352 691 358 699 q 350 638 350 651 q 369 551 350 579 q 327 668 327 575 l 327 680 q 333 732 327 732 q 371 747 349 747 l 402 747 q 448 771 440 747 l 448 967 l 446 971 m 13 965 l 14 965 l 14 774 q 52 747 14 753 l 89 747 q 135 716 135 744 l 135 711 q 107 570 135 597 l 107 571 q 119 653 119 604 l 119 691 q 90 699 113 699 l 59 699 q 2 732 19 699 q 0 741 0 736 l 0 941 q 13 965 0 953 m 385 537 q 410 512 410 526 q 387 488 410 496 q 352 352 352 457 l 352 311 l 350 309 q 328 333 328 318 l 328 375 q 381 537 328 513 l 385 537 m 78 535 q 122 484 106 522 q 135 379 135 449 l 135 340 q 120 314 135 320 l 119 314 l 119 340 q 120 349 119 345 q 119 360 119 355 l 119 370 q 75 489 119 465 q 53 512 53 496 q 78 535 53 529 m 446 286 l 448 286 q 471 252 471 272 l 471 40 q 423 1 471 13 q 413 0 418 0 l 410 0 q 255 15 303 15 q 225 16 229 16 q 61 0 161 16 l 57 0 q 1 34 17 0 l 0 40 l 0 257 q 13 279 0 267 l 14 279 l 14 74 q 45 48 14 55 q 55 47 50 47 q 221 63 149 63 q 408 47 303 63 l 409 47 q 448 70 438 47 l 448 281 l 446 286 "},"G":{"x_min":0,"x_max":788.09375,"ha":797,"o":"m 314 984 l 347 984 q 491 967 427 984 l 493 967 q 516 982 499 967 q 531 984 525 984 l 645 984 q 667 974 660 984 q 655 810 655 873 l 655 796 q 667 664 655 726 q 636 656 657 656 l 539 656 q 508 666 515 656 l 508 668 q 484 748 508 723 q 393 765 464 765 l 378 765 q 277 733 299 765 q 263 659 263 717 q 284 541 263 567 l 284 540 q 263 419 263 514 l 263 408 q 284 326 263 343 q 383 291 315 291 l 391 291 q 509 387 509 291 l 509 474 q 451 519 509 512 l 391 519 q 366 529 374 519 l 366 538 q 397 552 366 552 l 718 552 q 750 541 743 552 l 750 529 q 706 516 750 521 q 667 470 667 503 q 651 270 651 362 q 667 66 651 180 q 643 58 657 58 l 534 58 q 503 73 511 58 q 491 78 495 78 q 333 58 425 58 l 318 58 q 121 131 166 58 q 105 189 105 162 q 106 318 106 265 l 106 332 q 52 540 106 490 l 52 541 q 106 760 106 585 q 105 849 105 822 q 250 980 105 959 q 314 984 276 984 m 682 980 l 684 980 q 706 947 706 966 q 692 770 692 837 q 706 634 692 708 q 662 593 706 607 q 644 591 653 591 l 534 591 q 479 619 499 591 q 470 673 475 628 q 453 695 465 695 q 394 700 426 700 q 308 685 325 700 q 302 642 302 672 l 302 628 q 322 529 302 534 q 330 516 330 522 l 330 511 q 314 489 330 501 q 302 415 302 461 l 302 357 q 308 326 302 343 l 307 326 q 279 384 279 345 l 279 421 q 301 534 279 518 q 307 540 301 534 l 307 541 q 285 573 292 551 q 279 636 279 601 l 279 676 q 311 739 279 730 q 381 747 339 747 l 393 747 q 476 729 462 747 q 489 663 489 704 q 537 638 497 638 l 634 638 q 682 660 674 638 l 682 664 q 669 792 669 729 q 682 975 669 872 l 682 980 m 98 909 l 98 908 q 86 847 86 877 q 88 752 86 819 q 51 568 88 614 l 51 571 q 71 722 71 616 l 71 826 q 98 909 71 872 m 765 548 q 788 517 788 533 l 788 495 q 739 454 788 468 q 705 438 705 454 q 690 233 690 334 q 706 35 690 149 q 659 -5 706 7 q 646 -6 653 -6 l 529 -6 q 486 10 509 -6 q 348 -6 426 -6 l 312 -6 q 86 93 140 -6 q 71 160 71 128 q 73 299 71 198 q 23 489 73 454 q 0 511 0 497 l 0 516 q 23 536 0 528 q 56 505 39 529 q 88 323 88 449 l 88 318 q 86 191 88 266 q 202 53 86 89 q 312 40 256 40 l 327 40 q 489 60 428 40 q 532 40 501 40 l 642 40 q 682 66 676 40 q 667 253 667 168 l 667 282 q 685 482 667 377 q 732 501 699 501 q 765 525 765 510 l 765 545 l 763 548 q 765 548 765 548 m 346 541 l 347 541 l 347 534 q 362 507 347 514 q 391 501 375 501 l 438 501 q 491 470 491 501 l 491 384 q 474 335 491 356 l 472 335 q 476 371 476 349 l 476 444 q 437 454 476 453 l 389 454 q 335 484 356 454 q 333 500 333 491 l 333 513 q 346 541 333 530 "},"(":{"x_min":26.453125,"x_max":1199.78125,"ha":1221,"o":"m 181 881 l 194 881 q 246 834 228 881 l 246 825 q 229 800 246 809 l 226 805 q 229 815 229 811 q 208 832 229 828 q 194 815 196 832 l 194 810 q 227 787 194 792 q 314 815 244 787 q 514 849 416 849 q 881 751 701 849 q 1120 505 1003 678 q 1199 368 1170 430 l 1199 365 q 1197 363 1199 363 l 1194 363 q 1073 463 1123 432 q 837 560 946 546 q 793 564 820 564 l 787 564 q 674 505 701 564 q 668 477 668 491 q 669 467 669 467 q 667 464 667 466 l 657 465 q 600 408 615 465 q 599 397 599 404 l 599 386 q 633 322 599 350 q 686 303 659 303 l 688 303 q 710 316 710 303 q 698 335 708 335 q 687 322 693 334 l 685 322 q 681 332 681 324 l 681 343 q 703 373 681 364 q 716 375 712 375 q 753 348 737 375 q 795 371 771 371 l 804 371 q 856 327 841 371 q 859 308 859 316 q 819 265 859 280 q 810 265 813 265 l 805 265 q 769 294 778 265 l 772 296 l 774 296 q 794 286 786 287 q 814 303 814 291 q 787 328 814 322 q 758 292 774 328 q 678 254 728 254 q 549 358 592 254 q 543 396 543 382 q 546 419 543 406 q 303 341 447 341 l 297 341 q 66 415 154 341 q 26 503 26 455 q 66 596 26 546 q 73 598 69 598 q 85 583 81 598 q 84 558 84 564 q 105 529 84 540 q 122 499 122 512 q 143 503 134 503 q 183 467 174 503 q 185 457 183 463 q 155 422 185 430 q 153 426 153 425 q 160 442 160 436 q 147 455 155 455 l 143 455 q 118 433 118 451 q 179 390 118 411 q 267 379 225 379 l 285 379 q 498 445 405 379 q 553 507 543 486 q 633 566 598 554 q 791 600 703 600 l 791 601 q 784 620 784 611 q 788 626 786 626 q 829 603 799 603 q 854 617 851 603 l 855 619 q 836 638 851 638 q 822 618 826 638 l 820 618 q 805 649 805 631 q 850 688 805 681 q 899 647 881 688 l 901 634 q 883 587 900 620 l 884 587 q 1127 448 997 556 l 1158 418 l 1158 419 q 1086 529 1131 471 q 961 651 1027 602 q 853 713 900 692 q 633 765 729 765 q 560 737 568 763 l 560 734 q 577 706 560 722 l 577 704 q 575 701 577 701 l 572 701 q 517 735 531 701 l 515 748 q 536 788 515 771 l 534 788 q 395 746 480 784 q 330 652 330 708 q 366 588 330 610 q 393 582 379 582 q 432 607 425 582 l 432 609 q 417 624 429 624 q 404 621 413 624 l 402 624 l 402 630 q 427 655 402 646 l 432 655 q 467 622 456 655 q 470 607 470 613 q 400 543 470 556 l 383 541 q 253 628 287 541 q 246 661 246 653 q 206 641 231 641 q 179 647 181 642 l 179 649 q 188 663 188 657 l 188 666 q 169 695 188 675 q 166 707 166 702 l 166 708 q 172 734 166 718 q 130 760 153 734 q 117 803 117 778 l 117 810 q 162 877 117 853 q 181 881 174 881 m 505 789 l 505 788 l 510 788 l 510 789 l 505 789 "},"`":{"x_min":0,"x_max":0,"ha":695},"U":{"x_min":0,"x_max":833.53125,"ha":844,"o":"m 55 969 q 191 958 137 958 l 221 958 q 361 969 266 958 q 383 958 375 969 l 383 772 q 334 760 383 763 q 298 735 298 746 q 293 714 293 730 q 292 661 293 688 q 327 544 292 579 q 292 446 292 513 q 302 304 292 316 q 347 276 316 276 q 420 272 357 272 l 459 272 q 533 311 519 272 q 535 363 535 328 l 535 428 q 503 543 535 513 q 535 673 535 579 l 535 716 q 481 762 535 753 q 446 772 451 762 l 446 958 q 466 969 446 964 l 468 969 q 620 952 560 952 q 773 969 682 952 q 796 959 788 969 l 796 772 q 769 762 788 762 l 754 762 q 693 727 708 762 l 691 714 l 691 667 q 731 539 691 572 q 700 457 706 507 q 691 286 691 414 l 691 234 q 572 65 691 108 q 425 42 508 42 l 403 42 q 165 132 228 42 q 137 232 137 174 l 137 265 q 111 513 137 468 q 94 539 107 524 l 94 541 q 130 610 123 569 q 137 716 137 649 q 82 762 137 753 l 59 762 q 33 772 40 762 l 33 959 q 55 969 40 969 m 396 965 l 398 965 q 416 947 413 956 q 426 959 425 959 l 427 959 l 427 776 q 482 744 427 744 q 517 711 517 738 l 517 682 q 491 558 517 585 l 490 558 q 503 663 503 590 q 501 685 501 669 l 501 689 q 457 699 500 697 q 417 725 428 707 l 417 727 l 416 727 q 388 703 413 714 q 339 695 376 699 l 331 689 q 330 646 330 662 l 330 636 q 347 549 330 576 l 345 549 q 307 663 307 572 l 307 697 q 314 730 307 730 q 367 746 325 746 q 397 771 397 753 l 397 960 l 396 965 m 809 965 q 831 944 819 965 q 833 935 833 940 l 833 738 q 779 697 833 709 q 730 689 730 697 l 730 659 q 729 641 730 649 q 746 549 729 579 l 746 549 q 713 598 722 564 q 706 674 706 632 q 707 720 707 701 q 752 744 718 744 l 769 744 q 810 768 802 744 l 810 960 l 809 965 m 13 959 l 14 959 l 14 771 q 55 744 14 749 l 72 744 q 118 716 111 744 l 118 710 q 90 564 118 589 l 90 566 q 103 647 103 598 l 103 689 q 56 697 101 697 q 4 724 27 697 q 0 738 0 734 l 0 935 q 13 959 0 947 m 357 539 q 381 514 381 526 l 381 513 q 356 490 381 496 q 330 419 330 474 l 330 393 q 335 294 330 305 l 333 293 q 308 355 308 303 q 306 436 307 392 q 345 535 306 516 q 357 539 354 539 m 756 537 l 758 537 q 782 511 782 529 q 760 488 782 500 q 730 288 730 450 l 730 213 q 576 -1 730 49 q 436 -21 507 -21 l 397 -21 q 120 116 177 -17 q 103 213 103 159 l 103 272 q 70 487 103 450 q 47 511 47 499 l 47 516 q 69 535 47 526 q 100 491 86 527 q 118 258 118 444 l 118 227 q 238 51 118 105 q 402 25 312 25 l 420 25 q 682 132 620 25 q 707 243 707 175 l 707 329 q 748 533 707 497 q 756 537 754 537 m 477 537 q 507 501 496 528 q 517 430 517 476 l 517 389 q 509 304 517 309 q 501 301 506 301 q 503 403 501 330 q 470 493 503 478 q 455 509 457 496 l 455 516 q 477 537 455 526 "},"F":{"x_min":0,"x_max":729.765625,"ha":746,"o":"m 486 969 l 510 969 q 682 961 682 963 q 691 953 691 956 q 669 790 669 865 q 691 626 669 718 q 669 618 680 618 l 556 618 q 533 629 539 618 l 533 710 q 496 751 533 739 q 469 755 486 755 l 379 755 q 323 722 339 755 q 321 710 321 718 l 321 588 q 378 543 321 551 l 434 543 q 467 533 461 543 l 467 522 q 441 512 459 512 l 388 512 q 322 476 333 512 q 321 465 321 470 l 321 330 q 356 290 321 302 q 379 286 370 286 l 437 286 q 467 276 460 286 l 467 74 q 442 64 459 64 q 262 82 343 82 l 233 82 q 56 64 158 82 q 33 74 33 67 l 33 276 q 63 286 33 284 l 101 286 q 160 318 143 286 q 162 331 162 328 q 163 398 162 341 l 164 403 q 163 411 163 406 l 163 419 q 122 533 163 497 q 164 643 164 567 q 162 710 162 679 q 108 755 162 746 l 60 755 q 33 765 40 755 l 33 953 q 56 963 41 963 q 221 945 143 945 q 448 967 316 945 q 486 969 464 969 m 706 959 q 729 926 729 949 l 729 925 q 708 779 708 828 l 708 761 q 729 600 708 687 l 729 594 q 680 554 729 567 q 658 553 665 553 l 574 553 q 500 590 512 553 q 499 600 499 595 l 499 678 q 467 691 499 691 l 388 691 q 359 682 366 691 l 359 566 q 357 563 359 563 q 337 584 337 573 l 337 713 q 381 737 345 737 l 467 737 q 514 710 514 733 l 514 633 q 531 606 514 613 q 553 600 542 600 l 667 600 q 706 626 706 605 q 685 788 685 712 l 685 790 q 706 954 685 867 l 706 955 l 706 959 m 13 953 l 14 953 l 14 765 q 51 737 14 744 l 100 737 q 143 708 138 737 q 145 641 145 668 l 145 634 q 123 560 145 586 l 123 561 q 130 612 130 588 q 128 682 130 636 q 99 691 119 691 l 58 691 q 2 723 19 691 q 0 731 0 727 l 0 929 q 13 953 0 941 m 482 541 q 504 506 504 526 l 504 491 q 448 447 504 456 l 396 447 q 359 438 364 447 l 359 307 l 358 305 q 337 328 337 314 l 337 469 q 385 494 344 494 l 441 494 q 482 516 470 494 l 482 535 l 480 539 l 482 541 m 94 528 q 145 410 145 505 q 143 330 145 386 q 128 309 143 317 l 128 311 q 130 384 130 350 q 91 482 130 463 q 69 502 69 490 l 69 507 q 94 528 69 521 m 482 282 q 504 248 504 269 l 504 43 q 469 4 504 16 q 447 0 458 0 l 442 0 q 250 17 339 17 q 62 0 163 17 l 59 0 q 0 37 14 0 l 0 253 q 13 276 0 263 l 14 276 l 14 73 q 44 47 14 54 q 54 46 50 46 q 231 64 160 64 l 260 64 q 442 46 333 64 l 443 46 q 480 66 468 46 l 482 72 l 482 276 l 480 282 q 482 282 482 282 "},"":{"x_min":67.828125,"x_max":460.515625,"ha":525,"o":"m 84 550 q 92 548 86 549 q 100 547 94 548 q 101 545 100 547 q 105 547 105 547 l 106 547 q 127 548 108 547 l 127 548 q 124 543 127 547 l 122 542 l 122 542 q 128 545 124 542 q 132 548 131 548 q 143 548 134 548 q 153 545 146 548 q 157 545 155 545 q 168 548 160 545 q 172 548 171 548 l 190 548 q 191 548 190 548 q 191 548 191 548 l 192 548 q 224 544 216 548 q 228 542 225 544 l 228 542 q 229 543 229 542 l 229 543 q 226 546 229 543 q 226 547 226 547 l 226 547 q 227 548 226 548 q 318 547 270 547 q 333 547 324 547 q 333 546 333 547 q 332 545 332 545 l 332 545 q 332 545 332 545 q 341 548 333 545 q 342 548 341 548 l 356 548 q 375 546 359 548 q 379 546 377 546 q 385 547 382 546 q 394 544 386 547 q 395 544 394 544 l 395 544 q 392 547 394 545 l 392 548 l 392 548 l 393 548 q 406 548 395 548 q 430 548 411 548 l 432 548 q 433 548 432 548 q 436 545 436 548 q 438 542 438 545 q 440 537 439 537 l 440 537 q 445 539 443 539 q 445 539 445 539 q 445 540 445 540 l 446 541 q 448 539 447 539 q 451 540 448 540 l 452 540 q 455 539 453 540 l 455 540 l 455 541 q 456 540 455 541 l 456 540 l 457 540 l 458 540 q 460 539 459 540 l 460 539 q 457 537 460 538 q 455 534 455 536 q 457 530 455 533 q 457 528 457 529 l 457 528 q 456 523 457 526 l 455 521 q 455 521 455 521 l 455 521 q 451 524 455 521 q 450 525 450 525 q 450 524 450 525 l 450 524 q 456 516 450 523 q 457 512 457 514 q 455 503 457 512 l 455 503 q 457 496 455 501 q 457 495 457 495 l 457 488 q 457 484 457 487 q 456 483 457 483 q 453 482 453 482 l 453 482 q 457 480 453 482 l 457 480 l 457 475 q 454 466 457 472 q 453 463 453 464 l 453 462 q 457 457 453 461 q 457 455 457 456 l 457 451 q 454 449 457 449 q 446 451 450 449 q 444 453 444 452 l 444 453 q 439 448 441 451 q 436 445 438 447 q 431 442 434 444 q 427 441 429 441 q 423 442 425 441 q 421 442 422 442 l 408 442 q 404 441 406 441 q 396 442 402 441 q 391 442 396 442 q 385 443 388 443 l 385 443 q 364 441 379 443 q 354 440 360 440 q 347 442 347 440 l 347 443 q 349 447 347 444 l 348 447 q 341 444 347 447 q 335 442 337 442 l 286 442 q 274 444 282 442 q 269 445 271 445 q 257 442 266 445 q 251 442 253 442 l 215 442 q 197 440 211 442 q 194 440 195 440 q 183 442 191 440 q 180 442 182 442 l 165 442 q 158 444 162 442 q 155 444 156 444 l 155 444 q 162 449 160 448 l 162 449 q 148 444 158 448 q 142 442 143 442 l 133 442 q 122 443 130 442 q 120 444 121 444 q 100 442 116 444 q 95 442 97 442 q 82 444 89 444 q 72 443 80 444 l 71 443 q 69 446 71 444 l 67 447 l 67 447 q 69 449 68 447 q 71 453 71 451 q 70 456 71 454 l 70 456 q 73 459 70 457 q 75 461 75 461 q 73 465 75 463 q 72 467 72 467 l 72 467 q 77 472 72 470 q 80 473 80 473 l 80 474 q 70 475 70 474 l 70 481 q 72 485 70 483 q 73 486 73 486 l 73 487 q 71 489 71 488 l 71 489 q 74 490 71 489 l 75 490 q 72 491 74 491 q 71 495 72 491 q 70 501 70 499 q 73 505 70 501 q 73 509 73 507 q 73 510 73 510 l 73 511 q 78 515 73 513 q 78 516 78 516 q 73 514 77 516 q 71 514 72 514 l 71 514 q 70 514 70 514 l 70 520 q 74 529 70 524 q 76 532 76 531 l 76 532 q 72 537 76 533 q 71 539 71 539 q 78 541 71 541 q 78 542 78 542 l 78 541 q 87 544 80 541 q 94 545 88 544 l 94 545 q 86 546 91 546 q 82 548 84 547 l 82 548 l 82 548 q 84 550 82 548 m 435 550 l 436 550 q 451 543 440 550 q 457 541 456 541 q 459 541 457 541 l 459 541 q 458 541 459 541 q 456 540 457 541 q 454 541 455 541 q 454 541 454 541 q 454 541 454 541 l 454 540 l 451 540 q 447 539 448 540 q 445 541 445 541 l 444 541 l 444 541 q 445 541 445 541 q 443 539 445 539 q 441 539 442 539 q 438 544 440 539 q 436 548 437 547 q 434 549 435 549 l 432 548 l 432 549 q 435 550 434 550 m 82 549 q 82 549 82 549 l 82 548 q 86 545 82 547 q 88 545 88 545 q 90 545 90 545 l 90 545 q 79 542 80 542 l 79 542 l 79 544 q 77 542 79 544 q 71 541 75 541 l 71 541 q 80 548 73 542 q 82 549 81 549 l 82 549 m 172 496 q 174 493 173 495 q 174 486 174 493 q 176 478 175 481 q 178 472 177 474 q 186 466 181 466 q 195 474 191 466 q 197 480 196 476 q 198 492 198 485 q 200 495 198 495 q 200 495 200 495 q 198 498 198 497 q 197 504 198 499 q 194 514 196 511 q 186 522 191 522 q 179 518 182 522 q 176 510 178 515 q 174 499 175 506 q 172 496 174 497 q 172 496 172 496 m 345 496 q 347 493 347 495 q 348 486 348 492 q 349 478 349 481 q 352 472 351 474 q 360 466 356 466 l 360 466 q 368 472 364 466 q 370 479 369 475 q 372 491 372 486 q 373 495 372 493 q 374 495 374 495 l 374 495 q 373 497 373 495 q 371 501 372 498 q 369 512 370 507 q 366 518 368 516 q 360 522 363 522 q 352 516 356 522 q 350 510 352 514 q 348 501 349 506 q 346 496 348 497 q 345 496 346 496 m 324 521 l 324 514 q 324 514 324 514 l 326 514 q 327 511 327 514 l 327 501 q 325 496 327 497 q 324 495 324 495 q 327 490 327 494 l 327 476 q 326 474 327 474 q 326 474 326 474 l 324 474 l 324 467 l 345 467 l 345 486 l 340 486 q 340 486 340 486 q 339 475 340 479 q 337 474 339 474 q 337 474 337 474 l 336 474 q 335 476 335 474 l 335 491 q 337 495 335 493 q 338 495 337 495 q 336 497 337 495 q 335 500 335 499 l 335 511 q 336 514 335 514 l 338 514 q 338 514 338 514 l 338 521 l 324 521 m 434 521 q 427 518 434 519 q 425 517 427 518 q 423 518 423 517 q 422 517 422 518 q 419 516 421 516 q 417 515 419 515 q 412 519 412 517 l 412 520 l 408 520 l 408 512 l 412 512 l 412 512 q 413 512 412 512 l 413 512 q 420 509 413 512 l 420 509 l 415 509 q 413 510 413 509 q 412 510 412 510 l 412 510 l 408 510 l 408 501 l 412 501 l 412 502 q 414 503 412 503 l 419 503 q 422 501 422 503 l 423 501 q 425 503 423 502 q 427 503 425 503 l 433 503 q 435 502 435 503 l 435 501 l 438 501 l 438 510 l 435 510 q 432 509 435 509 l 430 509 q 427 510 430 509 l 427 510 q 434 512 432 512 l 434 512 q 435 512 435 512 l 435 512 l 438 512 l 438 521 l 434 521 m 373 520 l 373 514 l 373 514 q 375 513 375 514 q 377 500 376 510 l 377 499 q 375 495 377 497 l 375 495 q 378 493 377 495 q 380 482 379 491 q 382 467 382 468 l 389 467 q 392 492 392 491 q 396 495 394 495 q 394 499 394 497 l 394 500 q 396 513 394 510 q 397 514 396 514 l 398 514 l 398 520 l 388 520 l 388 514 l 389 514 q 389 513 389 514 l 389 512 q 387 493 389 511 l 387 493 q 386 497 387 493 q 383 513 383 512 q 384 514 383 514 l 385 514 l 385 520 l 373 520 m 94 520 l 94 514 l 96 514 q 96 512 96 514 q 94 500 95 501 q 92 495 94 495 q 94 490 94 494 q 92 476 92 479 q 90 474 91 474 l 90 474 l 90 467 l 99 467 l 99 474 q 98 476 98 474 l 98 476 q 99 480 98 480 l 105 480 q 106 475 105 480 l 106 474 q 105 474 106 474 l 104 474 l 104 467 l 115 467 l 115 474 l 115 474 q 114 474 114 474 q 112 489 113 474 q 114 495 112 493 q 111 499 112 495 q 109 513 111 500 q 110 514 109 514 l 111 514 l 111 520 l 94 520 m 117 520 l 117 514 l 118 514 q 120 511 120 514 l 120 502 q 118 496 120 499 l 117 495 q 120 489 119 495 l 120 478 q 119 474 120 474 q 118 474 118 474 l 117 474 l 117 467 l 128 467 l 128 474 l 127 474 q 126 475 126 474 q 126 482 126 477 l 126 496 q 126 496 126 496 q 126 493 126 496 q 132 467 132 470 l 143 467 l 143 489 q 144 495 143 492 q 145 495 145 495 l 145 495 q 143 497 145 495 q 143 502 143 499 l 143 509 q 143 514 143 514 l 143 514 l 145 514 l 145 520 l 134 520 l 134 514 l 135 514 q 136 512 136 514 l 136 491 q 136 491 136 491 q 133 503 136 491 q 129 520 133 503 l 117 520 m 200 520 l 200 514 l 201 514 q 202 511 202 514 l 202 502 q 200 496 202 498 q 200 495 200 496 q 202 493 201 495 q 202 489 202 490 l 202 478 q 202 474 202 474 q 200 474 201 474 l 200 474 l 200 467 l 210 467 l 210 474 l 210 474 q 208 475 208 474 q 208 479 208 476 l 208 496 q 208 496 208 496 q 210 491 209 496 l 216 467 l 225 467 l 225 489 q 227 495 225 492 q 228 495 227 495 l 228 495 q 225 502 225 496 l 225 510 q 226 514 225 514 l 227 514 l 227 520 l 217 520 l 217 514 l 218 514 q 219 511 219 514 l 219 491 q 219 491 219 491 q 217 498 219 491 q 212 520 217 499 l 212 520 l 200 520 m 246 520 l 246 514 q 246 514 246 514 l 247 514 q 248 512 248 514 q 248 510 248 512 l 248 501 q 246 495 248 496 q 248 493 247 495 q 248 488 248 492 l 248 476 q 247 473 248 473 l 246 473 q 246 473 246 473 l 246 467 q 246 467 246 467 l 257 467 l 257 473 q 257 473 257 473 q 256 478 256 474 l 256 482 q 258 488 256 482 l 259 488 q 259 482 259 488 q 261 475 261 476 q 260 473 261 474 l 259 473 l 259 467 l 272 467 l 272 474 q 271 475 271 474 q 267 491 269 478 l 267 491 q 268 495 267 494 q 266 497 267 495 q 265 500 265 497 q 264 504 264 502 q 270 514 267 514 l 271 514 q 271 514 271 514 l 271 520 q 271 520 271 520 l 259 520 q 259 520 259 520 l 259 514 q 261 514 259 514 l 261 514 l 261 513 q 257 500 261 512 l 256 500 l 256 510 q 257 514 256 514 l 258 514 l 258 520 l 246 520 q 246 520 246 520 m 274 520 l 274 514 l 274 514 q 276 513 276 514 q 276 511 276 512 l 276 501 q 273 495 276 497 l 273 495 q 275 493 275 494 q 276 491 276 492 l 276 476 q 274 474 276 474 l 274 474 l 274 467 l 284 467 l 284 474 l 284 474 q 283 476 283 474 l 283 486 q 283 486 283 486 l 285 486 q 287 478 286 486 q 287 476 287 476 l 287 476 q 286 474 287 474 l 286 467 l 297 467 l 297 473 q 296 476 296 474 q 292 493 295 480 l 292 493 q 295 501 295 496 q 296 506 296 503 l 296 507 q 292 518 296 514 q 286 520 289 520 l 274 520 m 147 520 q 147 516 147 518 l 147 502 q 147 502 147 502 l 152 502 l 152 502 q 153 514 152 514 q 154 514 153 514 l 155 514 q 155 514 155 514 l 155 501 q 153 496 155 499 q 152 495 153 495 q 155 493 153 495 q 155 489 155 491 l 155 476 q 154 474 155 474 q 154 474 154 474 l 152 474 l 152 467 l 165 467 l 165 474 l 164 474 q 163 475 163 474 q 162 478 162 476 l 162 489 q 165 495 162 494 l 166 495 l 166 495 q 164 497 164 495 q 162 501 162 499 l 162 514 q 163 514 163 514 l 163 514 q 166 512 166 514 q 166 502 166 505 l 171 502 l 171 514 q 171 520 171 516 l 147 520 l 147 520 m 299 520 l 299 514 q 301 511 301 514 q 303 499 303 501 q 302 495 303 497 q 305 491 304 495 q 307 480 307 484 l 307 477 q 307 473 307 473 l 305 473 l 305 467 l 318 467 l 318 473 l 317 473 q 316 475 316 473 q 315 478 315 476 l 315 480 q 317 491 315 482 q 319 495 318 493 q 320 495 320 495 q 318 499 318 497 q 321 512 318 502 q 322 514 321 514 l 322 514 q 323 514 323 514 l 323 520 q 322 520 323 520 l 314 520 l 314 514 l 314 514 q 315 513 315 514 l 315 513 q 313 498 315 512 q 313 498 313 498 q 311 508 312 498 q 310 513 310 512 l 310 513 q 311 514 310 514 l 311 514 l 311 520 l 299 520 q 299 520 299 520 m 283 514 q 287 509 286 514 q 287 506 287 507 q 284 495 287 497 q 283 495 284 495 l 283 495 l 283 507 q 283 514 283 510 l 283 514 m 185 514 l 186 514 q 188 510 187 514 q 188 499 188 508 l 188 498 q 187 496 188 497 l 186 495 l 186 495 q 188 493 187 495 q 188 493 188 493 q 188 483 188 489 q 187 475 188 476 q 185 474 186 474 l 185 474 q 183 478 184 474 q 183 493 183 485 q 184 495 183 494 q 185 495 185 495 l 185 495 q 183 497 184 495 l 183 498 l 183 499 q 184 512 183 510 q 185 514 185 514 m 360 514 l 360 514 q 362 503 362 514 l 362 498 q 360 496 362 497 l 360 495 q 362 493 362 495 q 362 483 362 486 q 360 474 362 474 l 360 474 q 358 478 358 474 q 357 493 357 485 q 358 495 357 493 q 359 495 359 495 q 357 497 358 495 q 357 498 357 498 l 357 499 q 358 511 357 506 q 360 514 358 514 m 102 509 q 104 491 102 507 l 104 491 l 100 491 q 100 491 100 491 q 102 509 101 497 l 102 509 m 422 499 q 421 498 422 499 q 419 497 419 497 l 415 497 q 412 499 412 497 l 412 499 l 408 499 l 408 491 l 412 491 l 412 491 q 413 493 412 493 q 414 493 413 493 l 425 493 q 425 493 425 493 l 408 487 l 408 478 l 412 478 l 412 479 q 413 480 412 480 q 415 480 414 480 l 418 480 q 422 478 421 480 l 423 478 q 424 480 423 478 q 426 480 425 480 l 432 480 q 434 479 434 480 l 434 478 l 438 478 l 438 486 l 435 486 q 434 486 434 486 l 434 486 q 434 484 434 484 q 432 484 433 484 l 422 484 q 422 484 422 484 q 438 490 423 485 l 438 490 l 438 497 l 426 497 q 423 499 425 497 q 423 499 423 499 l 422 499 m 408 476 l 408 466 l 412 466 l 412 467 q 413 468 412 468 l 419 468 q 422 466 422 468 l 422 466 q 425 468 423 468 l 434 468 q 435 467 435 468 l 435 466 l 438 466 l 438 476 l 435 476 l 435 475 q 434 474 435 474 l 425 474 q 422 476 423 474 l 422 476 q 421 474 422 475 q 420 474 420 474 l 413 474 q 412 475 412 474 l 412 476 l 408 476 m 444 453 q 447 451 444 451 q 454 448 451 448 q 457 449 456 448 q 457 449 457 449 l 457 449 q 455 448 456 448 q 442 444 449 446 q 430 440 434 440 q 427 440 429 440 l 427 441 q 428 440 427 441 q 435 444 432 440 q 440 448 437 445 q 444 453 440 448 "},"r":{"x_min":0,"x_max":869.484375,"ha":882,"o":"m 459 974 l 478 974 q 680 869 619 974 q 699 785 699 828 l 699 671 q 669 585 699 599 q 583 552 646 570 q 554 525 554 548 l 554 524 q 596 478 554 489 q 668 457 643 472 q 698 383 698 438 q 699 366 699 383 l 699 360 q 697 328 699 351 q 744 288 697 301 q 764 287 756 287 l 805 287 q 832 276 824 287 l 832 75 q 805 64 824 64 l 639 64 q 516 94 542 64 q 503 153 503 117 l 503 370 q 486 460 503 439 q 360 514 449 514 l 359 514 q 299 480 314 514 q 297 469 297 476 l 297 334 q 330 292 297 304 q 362 287 344 287 l 402 287 q 427 276 419 287 l 427 75 q 402 64 420 64 l 59 64 q 33 75 40 64 l 33 276 q 59 287 40 287 l 72 287 q 138 320 124 287 q 140 334 140 330 l 140 408 q 105 537 140 502 l 105 538 q 140 663 140 570 l 140 711 q 66 760 140 760 l 56 760 q 33 770 40 760 l 33 958 q 56 968 40 968 q 208 954 149 954 l 225 954 q 429 972 307 954 q 459 974 439 974 m 13 959 l 14 959 l 14 769 q 54 742 20 742 l 65 742 q 122 708 122 742 l 122 663 q 96 556 122 583 l 96 558 q 107 637 107 588 q 106 687 106 681 q 48 695 99 695 q 0 738 0 708 l 0 935 q 13 959 0 946 m 663 920 l 664 920 q 738 747 738 857 l 738 659 q 694 529 738 550 q 609 492 666 510 l 608 492 q 570 516 581 492 l 570 529 q 619 544 573 531 q 698 590 677 564 q 715 700 715 613 l 715 758 q 687 888 715 846 q 663 920 673 908 m 297 714 l 297 593 q 352 548 297 554 q 365 546 352 546 l 436 546 q 488 572 482 546 q 494 672 490 587 q 474 744 494 731 q 381 760 455 760 l 371 760 q 299 723 308 760 q 297 714 297 718 m 369 742 q 468 722 463 742 q 476 670 474 709 q 467 570 471 570 q 457 564 462 565 q 455 565 457 565 q 460 642 460 619 l 460 646 q 449 688 460 688 q 406 694 449 691 l 358 694 q 336 686 343 694 l 336 568 l 335 566 q 313 589 313 575 l 313 717 q 333 737 313 727 q 369 742 342 742 m 77 532 q 107 501 88 532 q 122 400 122 467 l 122 342 q 108 312 122 317 q 107 311 108 311 q 106 312 107 312 q 107 367 107 352 q 73 487 107 474 q 54 509 54 493 q 77 532 54 522 m 357 496 q 474 441 446 496 q 482 398 482 421 l 482 190 q 507 75 482 92 q 643 46 540 46 l 805 46 q 846 70 838 46 l 846 278 l 845 284 l 846 284 q 869 250 869 271 l 869 40 q 816 0 869 10 l 635 0 q 484 52 513 0 q 468 135 468 80 l 468 367 q 358 449 468 449 q 336 441 347 449 l 336 309 l 335 307 q 313 330 313 316 l 313 472 q 357 496 321 496 m 697 451 l 698 451 q 738 330 738 426 q 737 309 737 314 q 735 307 735 309 q 714 323 720 312 l 713 328 q 715 361 713 336 q 697 451 715 419 m 441 284 l 442 284 q 465 248 465 271 l 465 43 q 408 0 465 8 l 56 0 q 2 31 20 0 q 0 40 0 37 l 0 255 q 13 278 0 264 l 14 278 l 14 73 q 54 46 21 46 l 402 46 q 442 68 430 46 l 442 278 l 441 284 "},":":{"x_min":0,"x_max":0,"ha":424},"x":{"x_min":0,"x_max":880.328125,"ha":900,"o":"m 56 971 q 206 965 141 965 q 379 971 259 965 q 400 961 393 971 l 400 772 q 372 761 392 761 l 316 761 q 298 742 301 761 q 333 699 298 730 q 414 630 396 630 q 432 626 422 626 l 444 626 q 514 669 478 626 q 579 738 579 732 l 579 744 q 560 763 579 760 l 505 763 q 474 773 482 763 l 474 961 q 497 971 482 971 q 651 964 596 964 l 667 964 q 821 971 729 964 q 842 962 834 971 l 842 773 q 815 763 834 763 l 792 763 q 729 733 753 763 q 569 578 582 594 q 566 562 566 569 q 578 536 566 552 q 566 509 566 522 l 566 506 q 617 439 566 482 q 763 296 758 296 q 827 287 781 287 q 842 278 841 282 l 842 75 q 817 65 834 65 q 674 71 736 71 l 649 71 q 497 65 585 71 q 474 75 483 65 l 474 278 q 499 288 483 288 l 561 288 q 587 310 587 288 q 531 372 587 319 q 465 431 478 431 q 437 435 452 435 q 364 393 397 435 q 290 314 290 319 q 288 306 289 306 q 308 288 288 293 l 372 288 q 400 278 392 288 l 400 75 q 376 65 392 65 q 202 73 276 73 q 54 65 149 73 q 33 75 42 65 l 33 278 q 92 289 33 289 q 139 320 118 295 q 294 477 294 472 q 299 497 299 490 l 299 504 q 287 532 299 518 l 287 534 q 309 561 309 545 l 309 564 q 274 611 309 582 q 121 754 126 754 q 83 763 105 763 l 60 763 q 33 773 40 763 l 33 962 q 56 971 41 971 m 414 969 l 416 969 q 438 934 438 955 l 438 740 q 378 697 438 704 l 360 697 l 404 651 l 404 651 q 314 740 400 652 l 314 741 q 316 744 314 744 l 367 744 q 415 767 407 744 l 415 963 l 414 969 m 855 969 q 877 946 866 969 q 880 938 880 943 l 880 738 q 843 701 880 715 q 821 697 832 697 l 799 697 q 752 674 768 697 l 611 539 q 581 561 581 547 l 581 564 q 618 603 581 572 q 763 740 756 738 q 792 744 779 744 l 811 744 q 857 769 849 744 l 857 963 l 855 969 m 13 962 l 14 962 l 14 772 q 52 744 14 751 l 76 744 q 131 720 113 744 q 289 568 285 574 q 290 564 290 566 l 290 562 q 264 543 290 550 q 111 689 239 567 q 80 697 103 697 l 58 697 q 2 730 19 697 q 0 738 0 734 l 0 938 q 13 962 0 950 m 455 962 l 456 962 l 456 776 q 479 748 456 755 q 499 744 491 744 l 558 744 q 560 742 560 744 l 560 741 q 516 697 560 739 l 499 697 q 443 730 461 697 q 441 742 441 737 l 441 932 q 455 962 441 951 m 607 533 q 636 507 636 528 q 607 482 636 494 l 603 478 q 763 316 604 474 l 763 316 q 585 493 585 490 q 580 508 580 501 q 605 533 580 520 l 607 533 m 259 531 q 280 503 280 516 l 280 497 q 266 472 280 485 l 265 472 q 238 493 265 482 q 231 509 231 501 q 259 531 231 529 m 437 417 q 493 383 468 417 q 568 307 529 348 q 566 305 568 305 l 520 305 q 458 367 461 367 q 440 370 444 370 q 399 345 418 370 q 358 304 398 345 l 307 304 q 304 307 305 304 q 406 410 402 410 q 437 417 419 417 m 414 285 l 415 285 q 438 250 438 271 l 438 184 q 440 158 438 169 q 438 155 438 157 l 438 46 q 383 0 438 8 l 379 0 q 217 8 293 6 q 57 0 162 8 q 2 31 20 0 q 0 40 0 37 l 0 256 q 13 278 0 266 l 14 278 l 14 74 q 44 48 14 55 q 54 46 50 46 q 202 55 148 55 q 377 46 267 55 q 415 74 415 52 l 415 278 l 414 285 m 855 285 l 857 285 q 880 252 880 271 l 880 40 q 826 0 880 10 l 821 0 q 659 6 726 6 q 499 0 605 6 q 444 29 465 0 q 441 46 441 37 l 441 248 q 455 278 441 267 l 456 278 l 456 79 q 491 46 456 52 l 495 46 q 649 53 585 53 l 670 53 q 819 46 729 53 q 857 69 845 46 l 857 280 l 855 285 "},"*":{"x_min":0,"x_max":0,"ha":741},"V":{"x_min":0,"x_max":822.6875,"ha":840,"o":"m 56 973 q 203 961 145 961 q 352 973 256 961 l 353 973 q 374 963 366 973 l 374 774 q 328 763 371 763 q 278 739 301 763 q 272 720 273 728 q 352 447 274 706 q 411 417 369 417 l 411 417 q 470 448 454 417 q 545 720 545 710 l 545 720 q 482 763 537 763 q 444 774 448 763 l 444 963 q 467 973 451 973 q 615 963 562 963 q 763 973 666 963 q 784 964 776 973 l 784 766 q 782 763 784 763 l 763 763 q 701 731 718 763 q 666 607 666 641 l 666 599 q 682 550 666 572 q 641 516 659 538 q 586 405 610 478 q 563 334 563 343 l 563 333 q 609 290 563 301 q 647 278 647 287 l 647 77 q 623 65 644 65 q 403 84 505 84 q 193 65 304 84 q 170 74 179 65 l 170 278 q 219 292 170 287 q 254 333 254 307 l 254 334 q 212 449 254 350 q 125 543 175 521 l 125 545 q 143 601 143 569 l 143 607 q 107 755 143 660 q 88 763 101 763 l 61 763 q 33 774 40 763 l 33 964 q 56 973 41 973 m 387 970 l 389 970 q 411 942 411 956 l 411 942 q 424 964 411 952 l 425 964 l 425 777 q 482 746 425 746 q 526 717 526 741 q 449 448 455 456 q 442 444 447 444 q 511 690 511 687 q 457 699 511 698 q 411 737 411 714 l 411 737 q 376 703 411 718 q 324 697 360 697 q 311 689 311 693 q 385 438 382 452 q 356 488 366 438 q 288 717 295 687 l 288 718 q 328 746 288 739 q 386 765 379 746 q 388 773 388 769 l 388 965 l 387 970 m 798 970 q 820 948 809 970 q 822 940 822 944 l 822 715 q 803 699 817 699 l 768 699 q 735 680 735 699 q 704 574 704 603 q 711 543 704 560 q 680 602 680 563 q 718 729 680 639 q 760 746 733 746 l 799 746 l 799 965 l 798 970 m 13 964 l 14 964 l 14 773 q 52 746 14 752 l 88 746 q 111 682 94 739 q 124 607 124 638 l 124 598 q 107 554 124 571 l 107 555 q 109 577 109 571 q 80 699 109 617 l 59 699 q 2 731 19 699 q 0 739 0 735 l 0 940 q 13 964 0 952 m 716 539 q 736 518 736 522 l 737 511 q 707 490 737 493 q 659 447 678 479 q 609 326 635 407 l 602 307 q 578 333 578 318 q 657 510 624 481 q 716 539 685 539 m 97 535 q 177 471 146 519 q 219 384 197 442 q 236 330 236 338 q 217 311 236 319 q 144 459 182 422 q 82 493 118 484 q 71 511 71 501 q 97 535 71 528 m 662 286 q 686 247 686 272 l 686 51 q 657 7 686 18 q 625 0 642 0 l 624 0 q 444 18 495 18 q 409 19 415 18 q 199 0 315 19 l 193 0 q 138 32 157 0 q 136 51 136 42 l 136 247 q 151 280 136 267 l 151 277 l 151 71 q 192 47 160 47 q 402 67 305 67 q 621 47 499 67 l 622 47 q 663 74 663 52 l 663 270 q 662 286 663 275 "},"":{"x_min":0,"x_max":0,"ha":345},"h":{"x_min":0,"x_max":855.921875,"ha":882,"o":"m 57 973 q 226 950 177 955 q 273 948 244 948 l 286 948 q 366 955 326 948 q 392 944 392 951 l 392 774 q 343 763 392 764 q 297 718 297 750 l 297 594 q 355 550 297 557 l 496 550 q 550 578 531 550 q 554 596 554 585 l 554 716 q 520 758 554 746 q 473 765 505 765 q 459 774 459 770 l 459 944 q 482 955 467 955 q 562 950 518 951 q 790 973 620 950 l 796 973 q 817 963 809 973 l 817 774 q 790 763 810 763 l 771 763 q 712 731 729 763 q 710 715 710 721 l 710 666 q 751 540 710 573 l 751 539 q 709 402 709 503 q 710 335 710 366 q 769 288 710 296 q 817 278 817 288 l 817 75 q 794 65 810 65 q 543 79 610 79 q 479 77 489 77 q 459 88 466 77 l 459 278 q 507 290 463 289 q 554 336 554 301 l 554 471 q 500 516 554 508 q 486 517 497 517 l 365 517 q 298 480 310 517 q 297 471 297 475 l 297 334 q 355 288 297 296 q 392 280 383 288 l 392 278 l 392 88 q 370 77 385 77 q 302 79 317 79 l 290 79 q 54 65 230 79 q 33 75 42 65 l 33 278 q 95 290 33 290 q 141 333 141 303 q 142 422 142 392 q 103 539 142 503 l 103 540 q 141 663 141 575 l 141 715 q 84 763 141 756 l 61 763 q 33 774 40 763 l 33 963 q 57 973 40 973 m 831 969 q 853 948 842 969 q 855 940 855 944 l 855 739 q 819 702 855 716 q 796 698 807 698 l 781 698 q 748 689 753 697 q 748 640 748 674 q 765 550 748 580 l 765 550 q 725 667 725 576 q 725 721 725 684 q 769 746 737 746 l 788 746 q 832 769 824 746 l 832 965 l 831 969 m 13 963 l 14 963 l 14 773 q 52 746 14 752 l 78 746 q 121 720 112 746 q 122 711 122 716 l 122 672 q 97 561 122 585 l 97 563 q 107 642 107 593 q 107 690 107 678 q 74 698 97 698 l 59 698 q 2 731 19 698 q 0 739 0 735 l 0 940 q 13 963 0 951 m 406 952 l 407 952 q 427 930 427 938 l 428 930 q 438 944 430 937 l 440 944 l 440 777 q 496 746 440 746 q 534 719 534 739 q 535 712 535 719 l 535 598 q 521 573 535 581 l 519 573 l 519 689 q 470 699 519 698 q 430 725 438 709 q 428 731 428 729 l 427 731 q 392 701 427 716 q 346 696 377 699 q 336 689 337 692 l 336 571 q 334 569 336 569 q 313 590 313 579 l 313 720 q 364 746 319 746 q 407 773 407 750 l 407 944 l 406 952 m 781 536 q 808 514 808 526 q 809 511 808 513 q 781 486 809 494 q 748 371 748 464 l 748 352 q 748 309 748 336 q 748 309 748 309 q 727 326 729 316 l 725 328 q 725 385 725 364 l 725 404 q 769 532 725 505 q 781 536 779 536 m 75 534 q 123 415 123 513 q 122 336 123 398 q 107 313 122 320 l 107 314 q 109 387 109 366 q 75 486 109 465 q 51 507 51 495 l 51 513 q 75 534 51 526 m 362 499 l 482 499 q 535 467 535 499 l 535 337 q 520 313 535 320 l 519 313 l 519 442 q 482 452 519 451 l 373 452 q 336 442 341 452 l 336 311 l 335 309 q 313 332 313 318 l 313 474 q 362 499 321 499 m 406 286 l 407 286 q 427 263 427 271 l 428 263 q 438 278 430 271 l 440 278 l 440 90 q 477 59 440 63 l 479 59 q 543 61 489 59 q 794 47 601 61 l 794 47 q 832 69 820 47 l 832 280 l 831 286 l 832 286 q 855 252 855 271 l 855 40 q 802 0 855 10 l 798 0 q 607 12 785 0 q 576 13 605 13 l 548 13 q 486 11 511 13 q 428 42 448 11 l 428 44 l 427 44 q 403 19 427 33 q 369 11 384 11 q 300 14 326 14 q 59 0 240 14 l 55 0 q 3 29 23 0 q 0 40 0 36 l 0 256 q 13 278 0 266 l 14 278 l 14 74 q 44 48 14 55 q 54 47 50 47 q 288 61 227 61 l 301 61 q 369 59 366 59 q 406 80 395 59 q 407 88 407 84 l 407 278 l 406 286 "},"0":{"x_min":0,"x_max":779.28125,"ha":789,"o":"m 366 982 l 394 982 q 632 906 544 982 q 668 826 668 869 l 668 766 q 715 547 668 587 q 723 538 715 545 l 723 537 q 678 446 689 499 q 668 294 668 393 l 668 209 q 522 67 668 113 q 395 52 462 52 l 387 52 q 130 141 202 52 q 108 209 108 174 l 108 263 q 65 519 108 471 q 50 538 65 522 l 50 539 q 108 746 108 586 l 108 828 q 242 967 108 923 q 366 982 303 982 m 649 911 q 706 792 706 864 l 706 709 q 737 548 706 596 l 735 548 q 682 726 685 583 l 682 815 q 649 910 682 873 l 649 911 m 102 885 l 102 884 q 89 830 89 852 l 89 751 q 55 571 89 619 l 53 571 l 53 572 q 75 720 75 618 q 74 792 74 752 q 102 885 74 847 m 271 684 l 271 369 q 304 292 271 306 q 336 286 318 286 l 440 286 q 494 317 479 286 q 502 368 502 333 l 502 697 q 486 750 502 742 q 438 763 470 763 l 341 763 q 277 736 290 763 q 271 684 271 722 m 340 745 l 435 745 q 480 728 470 745 q 484 683 484 721 l 484 361 q 468 312 484 324 l 467 312 l 468 324 l 468 676 q 461 695 468 695 q 429 697 461 697 l 357 697 q 311 689 311 697 q 309 666 309 682 l 309 323 q 310 307 310 313 q 288 344 288 320 q 286 354 286 344 l 286 701 q 297 735 286 727 q 340 745 309 745 m 752 533 q 779 512 779 524 l 779 505 q 750 481 779 493 q 706 291 706 440 l 706 185 q 540 6 706 60 q 403 -12 476 -12 l 383 -12 q 106 86 191 -12 q 74 189 74 130 l 74 261 q 18 488 74 463 q 0 503 9 488 l 0 510 q 23 533 0 526 q 69 469 52 519 q 89 252 89 412 l 89 206 q 197 67 89 118 q 376 33 278 33 l 399 33 q 640 112 552 33 q 682 219 682 154 l 682 226 q 682 299 682 267 q 737 526 682 489 q 752 533 748 533 "},".":{"x_min":22.375,"x_max":271.296875,"ha":320,"o":"m 222 241 q 257 217 236 241 q 271 166 271 186 l 271 81 q 225 2 271 22 q 201 0 212 0 l 111 0 q 29 37 48 0 q 22 71 22 59 l 22 95 l 25 95 q 95 52 25 52 l 168 52 q 219 71 211 52 q 231 114 231 96 l 231 191 q 219 240 231 216 l 222 241 m 107 238 l 174 238 q 209 214 209 238 q 212 194 212 214 l 212 120 q 189 71 212 76 q 178 71 185 71 l 98 71 q 44 88 49 71 q 40 114 40 100 l 40 194 q 55 233 40 225 q 107 238 75 238 "},"@":{"x_min":0,"x_max":0,"ha":1432},"f":{"x_min":0,"x_max":729.765625,"ha":746,"o":"m 486 969 l 510 969 q 682 961 682 963 q 691 953 691 956 q 669 790 669 865 q 691 626 669 718 q 669 618 680 618 l 556 618 q 533 629 539 618 l 533 710 q 496 751 533 739 q 469 755 486 755 l 379 755 q 323 722 339 755 q 321 710 321 718 l 321 588 q 378 543 321 551 l 434 543 q 467 533 461 543 l 467 522 q 441 512 459 512 l 388 512 q 322 476 333 512 q 321 465 321 470 l 321 330 q 356 290 321 302 q 379 286 370 286 l 437 286 q 467 276 460 286 l 467 74 q 442 64 459 64 q 262 82 343 82 l 233 82 q 56 64 158 82 q 33 74 33 67 l 33 276 q 63 286 33 284 l 101 286 q 160 318 143 286 q 162 331 162 328 q 163 398 162 341 l 164 403 q 163 411 163 406 l 163 419 q 122 533 163 497 q 164 643 164 567 q 162 710 162 679 q 108 755 162 746 l 60 755 q 33 765 40 755 l 33 953 q 56 963 41 963 q 221 945 143 945 q 448 967 316 945 q 486 969 464 969 m 706 959 q 729 926 729 949 l 729 925 q 708 779 708 828 l 708 761 q 729 600 708 687 l 729 594 q 680 554 729 567 q 658 553 665 553 l 574 553 q 500 590 512 553 q 499 600 499 595 l 499 678 q 467 691 499 691 l 388 691 q 359 682 366 691 l 359 566 q 357 563 359 563 q 337 584 337 573 l 337 713 q 381 737 345 737 l 467 737 q 514 710 514 733 l 514 633 q 531 606 514 613 q 553 600 542 600 l 667 600 q 706 626 706 605 q 685 788 685 712 l 685 790 q 706 954 685 867 l 706 955 l 706 959 m 13 953 l 14 953 l 14 765 q 51 737 14 744 l 100 737 q 143 708 138 737 q 145 641 145 668 l 145 634 q 123 560 145 586 l 123 561 q 130 612 130 588 q 128 682 130 636 q 99 691 119 691 l 58 691 q 2 723 19 691 q 0 731 0 727 l 0 929 q 13 953 0 941 m 482 541 q 504 506 504 526 l 504 491 q 448 447 504 456 l 396 447 q 359 438 364 447 l 359 307 l 358 305 q 337 328 337 314 l 337 469 q 385 494 344 494 l 441 494 q 482 516 470 494 l 482 535 l 480 539 l 482 541 m 94 528 q 145 410 145 505 q 143 330 145 386 q 128 309 143 317 l 128 311 q 130 384 130 350 q 91 482 130 463 q 69 502 69 490 l 69 507 q 94 528 69 521 m 482 282 q 504 248 504 269 l 504 43 q 469 4 504 16 q 447 0 458 0 l 442 0 q 250 17 339 17 q 62 0 163 17 l 59 0 q 0 37 14 0 l 0 253 q 13 276 0 263 l 14 276 l 14 73 q 44 47 14 54 q 54 46 50 46 q 231 64 160 64 l 260 64 q 442 46 333 64 l 443 46 q 480 66 468 46 l 482 72 l 482 276 l 480 282 q 482 282 482 282 "},";":{"x_min":0,"x_max":0,"ha":424},"i":{"x_min":0,"x_max":471.359375,"ha":492,"o":"m 56 975 q 222 958 152 958 q 411 975 295 958 l 412 975 q 433 965 424 975 l 433 775 q 406 765 425 765 l 375 765 q 316 735 333 765 q 312 718 312 725 l 312 653 q 356 540 312 578 l 356 539 q 321 470 333 516 q 312 356 312 428 l 312 335 q 371 289 312 297 l 402 289 q 433 279 426 289 l 433 75 q 408 65 425 65 q 220 82 311 82 q 56 65 149 82 q 33 75 33 69 l 33 279 q 63 289 33 287 l 92 289 q 151 322 135 289 q 154 337 154 332 l 154 385 q 105 539 154 505 l 105 541 q 147 619 133 561 q 154 710 154 648 l 154 716 q 97 765 154 757 l 61 765 q 33 775 41 765 l 33 965 q 56 975 42 975 m 446 971 q 469 950 457 971 q 471 941 471 946 l 471 741 q 434 704 471 718 q 412 699 423 699 l 381 699 q 352 691 358 699 q 350 638 350 651 q 369 551 350 579 q 327 668 327 575 l 327 680 q 333 732 327 732 q 371 747 349 747 l 402 747 q 448 771 440 747 l 448 967 l 446 971 m 13 965 l 14 965 l 14 774 q 52 747 14 753 l 89 747 q 135 716 135 744 l 135 711 q 107 570 135 597 l 107 571 q 119 653 119 604 l 119 691 q 90 699 113 699 l 59 699 q 2 732 19 699 q 0 741 0 736 l 0 941 q 13 965 0 953 m 385 537 q 410 512 410 526 q 387 488 410 496 q 352 352 352 457 l 352 311 l 350 309 q 328 333 328 318 l 328 375 q 381 537 328 513 l 385 537 m 78 535 q 122 484 106 522 q 135 379 135 449 l 135 340 q 120 314 135 320 l 119 314 l 119 340 q 120 349 119 345 q 119 360 119 355 l 119 370 q 75 489 119 465 q 53 512 53 496 q 78 535 53 529 m 446 286 l 448 286 q 471 252 471 272 l 471 40 q 423 1 471 13 q 413 0 418 0 l 410 0 q 255 15 303 15 q 225 16 229 16 q 61 0 161 16 l 57 0 q 1 34 17 0 l 0 40 l 0 257 q 13 279 0 267 l 14 279 l 14 74 q 45 48 14 55 q 55 47 50 47 q 221 63 149 63 q 408 47 303 63 l 409 47 q 448 70 438 47 l 448 281 l 446 286 "},"6":{"x_min":0,"x_max":695.859375,"ha":746,"o":"m 373 986 l 398 986 q 638 903 570 986 q 659 832 659 872 l 659 663 q 630 651 651 651 l 535 651 q 508 663 518 651 l 508 701 q 476 758 508 750 q 428 765 459 765 l 343 765 q 277 741 290 765 q 268 699 268 724 l 268 600 q 320 554 268 566 q 350 553 339 553 l 451 553 q 650 472 615 552 q 659 417 659 453 l 659 204 q 498 57 659 91 q 396 48 456 48 l 394 48 q 145 124 217 48 q 115 206 115 155 l 115 277 q 50 539 115 491 q 115 752 115 596 l 115 819 q 160 933 115 902 q 373 986 227 986 m 640 925 q 683 867 674 894 q 695 817 695 836 l 695 632 q 638 585 695 595 q 621 585 633 585 l 552 585 q 480 616 497 585 q 476 635 476 624 l 476 659 q 468 694 476 694 q 417 699 459 699 l 369 699 q 309 691 309 699 q 305 660 305 681 l 305 577 l 303 575 q 282 601 282 586 l 282 686 q 309 743 282 743 q 353 747 309 746 l 428 747 q 486 727 478 747 q 490 701 490 714 l 490 669 q 512 637 490 645 q 554 632 524 632 l 611 632 q 671 653 661 632 l 673 660 l 673 838 q 640 924 673 885 l 640 925 m 109 897 l 109 895 q 96 823 96 870 l 96 756 q 59 578 96 629 l 59 580 q 82 745 82 628 l 82 809 q 109 897 82 860 m 23 533 q 59 501 42 526 q 96 280 96 441 l 96 203 q 280 40 96 76 q 385 30 331 30 l 402 30 q 644 113 565 30 q 673 194 673 151 l 673 427 q 646 507 673 473 l 647 507 q 695 401 695 465 l 695 166 q 548 3 695 54 q 408 -16 482 -16 l 386 -16 q 122 68 208 -16 q 82 169 82 113 l 82 216 q 38 473 82 436 q 6 493 31 483 q 0 507 0 500 l 0 511 q 23 533 0 526 m 268 440 l 268 355 q 299 291 268 302 q 342 284 314 284 l 439 284 q 501 309 486 284 q 508 346 508 326 l 508 454 q 463 512 508 499 q 444 514 455 514 l 353 514 q 278 483 292 514 q 268 440 268 464 m 356 496 l 439 496 q 488 467 478 496 q 490 452 488 467 l 490 349 q 476 308 490 316 q 474 309 476 309 l 476 322 l 476 416 q 448 448 476 448 l 373 448 q 310 436 310 448 q 305 398 305 426 l 305 331 q 307 306 305 320 l 305 306 q 284 336 284 314 q 282 362 282 336 l 282 423 q 303 488 282 476 q 356 496 322 496 "},"A":{"x_min":0,"x_max":905.421875,"ha":919,"o":"m 237 971 q 443 953 349 953 l 455 953 q 666 971 549 953 l 667 971 q 689 961 680 971 l 689 772 q 665 762 681 762 l 634 762 q 609 741 609 762 q 682 569 655 602 q 725 532 701 546 l 725 531 q 715 491 715 516 l 715 491 q 766 311 715 436 q 824 288 786 288 l 841 288 q 868 278 860 288 l 868 75 q 843 64 859 64 q 702 75 769 75 l 696 75 q 532 64 627 75 q 509 75 518 64 l 509 278 q 562 290 511 288 q 603 332 603 303 l 603 334 q 573 423 603 342 q 549 456 566 446 q 508 465 529 465 l 392 465 q 328 421 343 465 q 297 332 297 341 q 345 289 297 300 q 390 278 385 289 l 390 73 q 366 64 382 64 q 198 78 280 78 l 197 78 q 56 64 136 78 q 33 75 42 64 l 33 278 q 59 288 40 288 l 75 288 q 137 318 122 288 q 189 491 189 442 q 177 533 189 514 l 177 535 q 245 620 226 574 q 293 740 261 651 q 268 762 293 762 l 238 762 q 214 772 221 762 l 214 961 q 237 971 222 971 m 704 967 l 704 967 q 727 924 727 956 l 727 752 q 696 702 727 714 q 655 696 676 696 q 709 568 691 593 q 717 557 710 567 l 717 556 q 650 671 683 577 l 625 742 l 628 744 l 663 744 q 704 768 704 750 l 704 967 m 193 961 l 195 961 l 195 770 q 238 744 195 748 l 271 744 q 273 742 273 744 l 273 741 q 215 604 240 642 l 215 607 q 251 696 233 643 l 250 696 q 179 752 179 696 l 179 921 q 193 961 179 952 m 373 543 q 417 500 373 512 q 435 497 425 497 l 470 497 q 528 529 512 497 q 530 541 530 533 l 530 543 q 493 668 530 554 q 453 718 474 718 q 404 642 425 718 q 373 543 390 603 m 448 699 l 450 699 q 508 553 468 699 q 511 543 511 550 l 511 539 q 497 520 511 531 l 493 520 q 455 640 473 596 l 454 640 q 414 518 436 595 l 413 518 q 389 541 389 525 q 442 694 420 655 l 448 699 m 748 533 q 775 510 775 526 l 775 508 q 758 487 775 495 q 752 464 754 480 q 795 309 752 423 q 765 357 778 309 q 729 489 729 448 q 748 533 729 522 m 150 532 q 171 486 171 520 q 118 320 171 444 l 112 316 l 112 318 q 155 459 155 422 l 155 463 q 134 493 155 486 q 126 507 126 500 l 126 510 q 150 532 126 526 m 392 448 l 506 448 q 555 415 547 448 q 584 333 584 337 l 584 330 q 567 311 584 318 q 534 394 540 386 q 505 400 526 400 l 402 400 q 368 389 373 400 q 336 307 339 309 l 335 307 q 313 326 319 314 l 313 335 q 354 435 347 429 q 392 448 368 448 m 404 284 l 406 284 q 429 249 429 271 l 429 44 q 377 0 429 10 l 367 0 q 209 13 265 13 q 62 0 145 13 l 57 0 q 1 33 18 0 l 0 40 l 0 255 q 13 278 0 265 l 14 278 l 14 73 q 55 46 21 46 q 196 60 136 60 q 366 46 272 60 q 406 73 406 52 l 406 278 l 404 284 m 881 284 l 883 284 q 905 251 905 271 l 905 40 q 870 4 905 18 q 849 0 859 0 l 845 0 q 706 10 758 10 q 534 0 643 10 l 533 0 q 478 31 497 0 q 476 44 476 40 l 476 247 q 489 278 476 267 l 491 278 l 491 80 q 510 50 491 58 q 531 46 524 46 q 698 57 626 57 q 843 46 761 57 q 882 69 872 46 l 882 280 l 881 284 "},"n":{"x_min":0,"x_max":946.125,"ha":971,"o":"m 56 973 q 178 959 121 959 q 307 973 219 959 q 341 941 331 973 q 519 604 514 612 q 571 584 539 584 l 573 584 q 631 617 616 584 q 633 629 633 621 l 633 718 q 575 763 633 755 l 531 763 q 500 773 507 763 l 500 962 q 521 973 500 968 l 522 973 l 601 959 q 704 952 652 952 q 885 973 787 952 q 908 963 900 973 l 908 773 q 881 763 900 763 l 849 763 q 790 731 806 763 q 787 719 787 720 q 786 642 786 669 q 838 538 786 571 q 826 518 838 535 q 787 225 787 448 l 787 74 q 763 65 779 65 l 648 65 q 617 81 623 65 q 436 436 457 396 q 382 461 416 461 l 378 461 q 319 425 333 461 q 318 415 318 419 l 318 334 q 354 293 318 305 q 377 288 368 288 l 415 288 q 442 278 434 288 l 442 75 q 419 65 434 65 q 215 81 305 81 q 56 65 141 81 q 33 75 33 69 l 33 278 q 63 288 33 286 l 102 288 q 162 321 145 288 q 164 337 164 331 l 164 406 q 117 541 164 505 l 117 542 q 158 625 145 564 q 164 719 164 668 q 115 762 164 751 q 102 763 109 763 l 61 763 q 33 773 40 763 l 33 963 q 56 973 41 973 m 344 971 q 387 907 357 971 q 465 756 459 770 l 467 756 l 467 935 q 480 963 467 952 l 481 963 l 481 778 q 501 750 481 757 q 524 746 515 746 l 571 746 q 615 717 615 740 l 615 632 q 601 608 615 615 l 598 608 l 598 689 q 569 698 598 696 l 529 698 q 492 707 510 698 q 544 606 544 607 l 543 606 q 512 649 531 606 l 344 969 l 344 971 m 923 971 q 946 939 946 954 l 946 739 q 909 702 946 716 q 887 698 897 698 l 855 698 q 826 690 835 698 l 824 619 q 842 555 824 579 l 842 554 l 841 554 q 801 655 801 580 q 803 721 801 668 q 846 746 815 746 l 877 746 q 923 769 914 746 l 923 964 l 921 969 l 923 971 m 13 963 l 14 963 l 14 773 q 52 746 14 752 l 99 746 q 144 723 132 746 q 145 716 144 720 q 115 567 145 607 l 113 567 l 113 569 q 130 682 130 598 l 130 689 q 100 698 123 698 l 58 698 q 2 731 19 698 q 0 739 0 735 l 0 939 q 13 963 0 951 m 864 536 q 891 514 891 526 l 891 507 q 870 486 891 497 q 825 168 825 440 q 826 44 826 84 q 773 0 826 11 l 631 0 q 615 6 631 2 q 573 65 595 13 q 481 244 486 234 l 480 244 l 480 44 q 442 3 480 16 q 436 0 436 2 l 402 0 q 401 2 402 2 q 224 16 294 16 q 74 1 141 16 l 74 0 l 59 0 q 0 37 14 0 l 0 256 q 13 278 0 266 l 14 278 l 14 74 q 56 47 20 47 q 215 63 139 63 q 417 47 298 63 l 419 47 q 457 74 457 52 l 457 278 l 456 286 l 457 286 l 459 284 l 459 286 q 405 390 408 387 q 383 396 391 396 l 382 396 q 357 387 364 396 l 357 311 l 356 309 q 335 325 341 314 q 333 342 333 330 l 333 408 q 352 438 333 430 q 378 442 361 442 l 379 442 q 429 407 417 442 q 609 58 602 67 q 646 47 623 47 l 762 47 q 803 73 803 52 q 802 196 802 164 q 853 527 802 488 q 864 536 854 530 m 88 535 q 126 502 101 535 q 145 408 145 465 l 145 398 q 146 390 145 392 q 145 381 145 385 l 145 339 q 130 313 145 320 l 130 313 l 130 314 q 130 357 130 341 l 130 369 q 95 484 130 462 q 65 507 65 495 l 65 512 q 88 535 65 526 "},"O":{"x_min":0,"x_max":799.625,"ha":814,"o":"m 385 989 l 422 989 q 689 898 636 989 q 707 815 707 861 q 706 733 706 755 q 749 537 706 576 q 706 299 706 491 q 707 214 707 245 q 619 82 707 131 q 404 46 550 46 l 399 46 q 139 118 200 46 q 98 215 98 160 l 98 314 q 48 539 98 491 l 48 540 q 90 635 80 575 q 98 761 98 682 l 98 816 q 216 967 98 932 q 385 989 288 989 m 682 932 l 684 932 q 744 796 744 880 l 744 694 q 769 543 744 583 l 769 542 l 767 542 q 736 589 748 552 q 721 720 721 636 l 721 822 q 682 932 721 887 m 94 894 l 94 892 q 79 817 79 860 l 79 763 q 42 564 79 605 l 42 566 q 65 746 65 609 q 63 781 63 771 q 94 894 63 852 m 258 651 q 281 546 258 569 l 285 541 l 285 540 q 257 446 257 510 q 273 323 257 332 q 309 294 278 307 q 366 284 337 284 l 438 284 q 545 375 545 284 l 545 423 q 518 535 545 500 q 530 555 518 537 q 545 644 545 585 l 545 672 q 505 753 545 733 q 435 766 473 766 l 370 766 q 271 725 292 766 q 258 651 258 703 m 369 748 l 431 748 q 520 711 504 748 q 526 668 526 690 l 526 652 q 505 551 526 572 l 504 551 q 512 634 512 576 q 493 689 512 681 q 433 699 468 699 l 379 699 q 306 680 319 699 q 297 640 297 663 l 297 596 q 307 544 297 569 l 306 544 q 274 628 274 565 l 274 668 q 304 735 274 718 q 369 748 329 748 m 314 536 q 339 512 339 522 q 339 507 339 509 q 323 488 339 496 q 297 440 303 488 q 296 411 296 425 q 302 319 296 319 q 303 316 303 317 l 301 316 q 274 380 274 330 q 273 444 273 407 q 300 529 273 511 q 314 536 309 536 m 774 535 l 775 535 q 796 518 794 522 l 799 511 l 799 505 q 780 484 799 494 q 753 413 759 458 q 744 280 744 358 l 744 180 q 653 27 744 90 q 420 -19 572 -19 l 391 -19 q 96 84 165 -19 q 63 185 63 129 q 65 240 65 219 q 26 480 65 452 q 6 493 25 484 q 0 507 0 499 l 0 510 q 19 533 0 522 l 21 533 q 54 495 35 533 q 79 301 79 439 l 79 212 q 167 71 79 127 q 385 28 245 28 l 416 28 q 694 125 632 28 q 721 210 721 164 l 721 326 q 767 531 721 491 q 774 535 769 531 m 493 531 l 493 531 q 526 418 526 508 l 526 380 q 509 323 526 339 l 509 325 q 512 364 512 342 l 512 364 q 482 490 512 481 q 472 508 472 498 q 493 531 472 522 "},"3":{"x_min":0,"x_max":687.71875,"ha":700,"o":"m 295 986 l 318 986 q 548 906 461 986 q 581 812 581 872 q 619 738 581 758 l 619 736 q 581 638 581 705 q 568 581 581 589 q 520 558 549 569 q 511 537 511 553 q 553 489 511 503 q 577 455 570 480 q 583 373 581 441 q 606 320 591 339 q 630 301 614 313 l 630 299 q 581 185 581 261 q 565 144 575 163 q 510 93 536 108 q 311 45 425 45 l 303 45 q 77 113 145 45 q 32 206 32 153 l 32 388 q 59 401 42 401 l 158 401 q 185 388 175 401 l 185 339 q 225 284 185 297 q 246 282 236 282 l 359 282 q 425 318 410 282 q 429 339 429 330 l 429 425 q 392 509 429 489 q 349 513 381 513 l 285 513 q 250 526 259 513 l 250 533 q 311 548 254 548 q 415 566 396 548 q 429 662 429 583 l 429 698 q 393 758 429 741 q 363 763 381 763 l 262 763 q 188 727 198 763 q 185 699 185 714 l 185 663 q 158 649 177 649 l 61 649 q 32 662 41 649 l 32 821 q 204 976 32 932 q 295 986 250 986 m 559 916 l 560 916 q 604 859 594 884 q 621 763 621 830 q 623 754 622 763 l 623 754 q 596 824 596 768 q 559 916 596 874 m 25 878 l 25 878 q 14 819 14 850 l 14 664 q 81 630 14 630 l 133 630 q 200 664 200 630 l 200 694 q 213 736 200 729 q 259 746 228 746 l 354 746 q 403 727 392 746 q 410 699 410 710 l 410 670 q 398 575 410 575 q 393 573 398 573 q 396 666 396 614 q 369 697 396 697 q 354 698 366 698 l 277 698 q 224 685 224 698 q 222 651 222 674 l 222 632 q 166 584 222 595 q 144 583 156 583 l 74 583 q 0 626 11 583 l 0 797 q 25 878 0 842 m 651 734 q 680 711 680 729 q 651 683 680 694 q 619 609 619 666 q 591 522 619 539 q 557 503 581 514 q 526 532 526 516 l 526 541 q 560 556 529 543 q 590 585 586 571 q 598 668 595 585 q 627 719 607 706 q 651 734 641 732 m 231 534 l 231 534 l 231 532 q 287 495 231 495 l 342 495 q 387 488 387 495 q 410 424 410 473 l 410 339 q 397 309 410 322 l 396 309 l 396 390 q 378 446 396 436 l 375 446 q 278 447 356 446 q 217 496 217 458 l 217 505 q 231 534 217 521 m 581 484 l 581 484 q 615 434 604 467 q 621 350 619 420 q 632 320 625 330 l 631 320 q 596 413 596 341 q 581 483 596 463 l 581 484 m 199 397 q 222 360 222 382 l 222 318 q 223 301 222 312 q 200 346 200 309 l 200 387 q 199 397 199 394 m 13 389 l 14 389 l 14 201 q 107 67 14 124 q 294 27 181 27 l 315 27 q 545 99 451 27 q 597 215 597 140 q 637 284 609 262 q 659 299 644 291 q 687 278 687 293 l 687 272 q 657 246 687 261 q 617 148 617 218 q 572 66 604 96 q 413 -10 520 13 q 321 -20 365 -20 l 296 -20 q 21 98 98 -20 q 0 168 0 132 l 0 364 q 13 389 0 376 "},"]":{"x_min":0,"x_max":0,"ha":514},"m":{"x_min":0,"x_max":1177.390625,"ha":1200,"o":"m 56 973 q 202 959 137 959 q 343 973 263 959 l 347 973 q 374 942 369 973 q 529 486 383 916 q 587 457 549 457 q 654 512 642 457 q 807 966 805 963 q 826 973 814 972 l 827 973 q 945 961 912 961 q 970 960 959 961 q 1117 973 1024 960 q 1139 964 1131 973 l 1139 774 q 1112 764 1131 764 l 1095 764 q 1035 731 1052 764 q 1033 716 1033 721 l 1033 653 q 1067 539 1033 571 l 1067 536 q 1033 368 1033 503 l 1033 337 q 1070 293 1033 305 q 1125 288 1074 289 q 1139 278 1138 283 l 1139 75 q 1115 65 1131 65 q 950 75 1028 75 q 798 65 886 75 q 775 75 784 65 l 775 278 q 822 289 777 289 q 877 335 877 297 l 877 387 q 832 434 877 422 q 817 434 823 434 l 810 434 q 753 399 769 434 q 633 73 753 396 q 608 65 623 65 l 567 65 q 539 82 539 65 q 414 414 536 86 q 359 438 394 438 l 355 438 q 297 405 314 438 q 295 393 295 398 l 295 336 q 330 293 295 305 q 382 288 346 288 q 397 278 396 282 l 397 75 q 373 65 389 65 q 211 76 279 76 q 54 65 148 76 q 33 75 42 65 l 33 278 q 93 290 33 290 q 139 333 139 303 q 140 423 140 392 q 94 541 140 503 q 139 670 139 577 l 139 716 q 82 764 139 756 l 61 764 q 33 774 40 764 l 33 964 q 56 973 41 973 m 381 971 q 405 942 398 963 q 560 480 541 539 q 528 537 542 480 q 381 971 386 950 m 1152 970 q 1175 948 1163 970 q 1177 940 1177 944 l 1177 739 q 1133 701 1177 715 l 1085 697 q 1072 689 1072 693 q 1071 631 1071 639 q 1087 545 1071 571 l 1085 545 q 1048 666 1048 562 q 1049 722 1048 683 q 1092 746 1060 746 l 1108 746 q 1154 770 1146 746 l 1154 965 l 1152 970 m 13 964 l 14 964 l 14 773 q 52 746 14 752 l 76 746 q 119 720 110 746 q 120 712 120 717 l 120 697 q 102 579 120 601 q 95 569 96 569 l 95 571 q 105 659 105 597 q 105 679 105 664 l 105 689 q 46 700 105 700 q 0 739 0 714 l 0 940 q 13 964 0 952 m 784 963 l 785 963 l 785 962 q 626 491 638 522 q 619 485 621 485 l 619 487 q 776 954 756 898 q 784 963 783 963 m 1095 536 q 1112 526 1096 534 q 1118 513 1118 518 l 1118 509 q 1099 487 1118 497 q 1072 361 1072 457 l 1072 311 l 1071 309 q 1049 332 1049 318 l 1049 398 q 1090 535 1049 505 l 1095 536 m 65 534 q 121 418 121 512 q 120 335 121 395 q 105 313 120 320 l 105 314 q 107 387 107 362 q 70 485 107 462 q 40 511 40 494 q 65 534 40 528 m 355 420 l 360 420 q 405 381 396 420 q 527 61 520 72 q 562 47 542 47 l 608 47 q 647 67 636 47 q 772 401 758 368 q 809 417 787 417 l 816 417 q 857 395 845 417 q 858 383 858 387 l 858 339 q 843 313 858 320 l 843 313 l 843 361 q 819 370 843 366 l 815 370 q 787 349 791 370 q 764 292 768 295 q 756 274 756 288 l 756 77 q 774 52 756 59 q 797 47 785 47 q 954 57 886 57 q 1115 47 1018 57 q 1154 70 1144 47 l 1154 280 l 1152 286 l 1154 286 q 1177 252 1177 272 l 1177 40 q 1123 0 1177 10 l 1117 0 q 958 10 1013 10 q 801 0 901 10 l 799 0 q 745 30 763 0 q 741 44 741 35 l 741 226 l 741 226 q 664 23 672 35 q 612 0 644 0 l 567 0 q 501 56 513 0 q 436 230 437 223 l 434 230 l 434 44 q 378 0 434 8 l 375 0 q 218 11 266 11 q 61 0 158 11 l 57 0 q 2 31 20 0 q 0 40 0 37 l 0 257 q 13 278 0 266 l 14 278 l 14 74 q 44 48 14 55 q 55 47 50 47 q 209 59 146 59 q 373 47 271 59 q 411 73 411 52 l 411 278 l 411 286 l 411 286 q 415 284 413 284 q 383 366 386 362 q 359 373 373 373 q 334 364 341 373 l 334 311 l 333 309 q 311 332 311 318 l 311 395 q 355 420 318 420 "},"9":{"x_min":0,"x_max":745.359375,"ha":751,"o":"m 346 988 l 371 988 q 622 906 545 988 q 645 834 645 874 l 645 741 q 694 542 645 590 q 645 309 645 493 l 645 212 q 575 90 645 123 q 375 52 507 52 l 367 52 q 109 137 183 52 q 88 204 88 166 l 88 372 q 122 387 88 385 l 206 387 q 242 373 242 385 q 269 295 242 310 q 321 287 295 287 l 404 287 q 483 318 472 287 q 489 351 489 334 l 489 437 q 432 483 489 474 q 417 484 428 484 l 339 484 q 117 543 170 484 q 87 632 87 567 q 64 703 82 666 q 44 730 56 715 l 44 732 q 89 857 89 779 q 124 923 91 887 q 346 988 200 988 m 628 923 l 629 923 q 684 805 684 875 q 682 764 682 781 l 682 755 q 713 550 682 586 q 714 546 714 548 q 675 606 687 567 q 659 774 659 655 l 659 838 q 628 923 659 885 m 80 894 l 80 892 q 66 810 71 879 q 43 760 54 772 l 43 762 q 56 835 56 792 q 80 894 65 875 m 242 674 l 242 604 q 269 533 242 546 q 318 523 284 523 l 389 523 q 482 560 470 523 q 489 596 489 578 l 489 705 q 467 755 489 746 q 412 767 451 767 l 311 767 q 250 731 265 767 q 242 674 242 717 m 315 749 l 408 749 q 465 733 453 749 q 470 699 470 725 l 470 596 q 454 552 470 564 l 453 552 q 455 575 455 566 l 455 661 q 449 697 455 697 q 398 701 440 701 l 324 701 q 286 691 293 701 q 280 663 280 680 l 280 559 q 282 545 280 554 q 281 544 281 545 q 260 566 268 550 q 257 589 257 579 l 257 692 q 288 746 257 735 q 315 749 298 749 m 18 725 l 19 725 q 61 659 50 701 q 71 586 68 638 q 115 518 81 545 q 222 474 154 488 q 341 466 266 466 l 412 466 q 470 438 462 466 l 470 352 q 454 313 467 313 l 454 314 q 455 328 455 322 l 455 406 q 410 419 450 419 l 324 419 q 64 531 113 420 q 52 603 52 560 q 33 657 51 621 q 5 686 33 667 q 0 699 0 692 l 0 701 q 18 725 0 713 m 722 539 q 744 520 744 523 l 745 514 l 745 508 q 722 487 745 498 q 692 411 699 460 q 682 235 682 356 l 682 227 q 684 177 682 205 q 491 -4 684 29 q 387 -12 439 -12 l 361 -12 q 97 69 186 -12 q 54 187 54 111 l 54 337 q 68 375 54 365 l 69 375 l 69 199 q 242 46 69 89 q 356 34 303 34 l 379 34 q 622 103 551 34 q 659 198 659 143 l 659 286 q 716 537 659 512 l 722 539 m 256 382 l 257 382 q 282 330 282 370 q 284 307 282 328 l 283 307 q 258 373 258 307 q 256 382 257 373 "},"l":{"x_min":0,"x_max":710.09375,"ha":729,"o":"m 56 969 q 257 956 176 956 q 461 969 333 956 q 482 960 474 969 l 482 772 q 455 762 475 762 l 385 762 q 322 722 333 762 l 322 659 q 363 536 322 568 q 322 375 322 499 l 322 336 q 369 293 322 302 q 379 291 373 291 l 432 291 q 510 319 498 291 q 516 364 516 332 l 516 428 q 543 438 524 438 l 645 438 q 672 428 665 438 l 672 78 q 615 68 672 68 q 498 64 533 64 l 492 64 q 338 78 450 64 q 238 82 287 82 q 58 68 145 82 q 33 78 33 73 l 33 281 q 71 291 39 291 l 105 291 q 158 317 139 291 q 162 343 162 325 l 162 403 q 113 539 162 505 l 113 540 q 151 598 143 566 q 162 699 162 626 l 162 711 q 136 754 162 742 q 98 762 116 762 l 60 762 q 33 772 40 762 l 33 960 q 56 969 40 969 m 498 967 q 520 919 520 955 l 520 754 q 495 706 520 716 q 459 697 477 697 l 392 697 q 360 689 368 697 q 359 642 359 654 q 375 548 359 575 l 375 548 q 344 592 354 562 q 336 666 336 624 l 336 691 q 343 729 336 729 q 385 744 354 744 l 453 744 q 497 768 489 744 l 497 964 l 496 966 l 498 967 m 13 960 l 14 960 l 14 771 q 56 744 14 748 l 97 744 q 144 716 137 744 l 144 706 q 117 571 144 596 l 117 571 q 128 647 128 603 l 128 688 q 96 697 128 695 l 60 697 q 2 729 18 697 q 0 737 0 733 l 0 936 q 13 960 0 948 m 84 534 q 126 496 109 524 q 144 403 144 459 l 144 341 q 130 315 144 322 l 128 315 q 129 357 129 341 l 129 364 q 87 485 129 467 q 61 499 61 495 q 56 512 56 507 q 84 534 56 529 m 391 534 q 418 512 418 527 l 418 510 q 396 486 418 495 q 359 339 359 463 q 360 312 360 324 l 358 311 q 337 330 342 317 q 336 365 337 335 q 391 534 336 517 m 686 436 l 687 436 q 710 402 710 423 l 710 47 q 659 5 710 15 q 502 0 532 0 l 485 0 q 324 14 449 0 q 238 17 278 17 l 220 17 q 60 4 152 17 q 0 47 0 11 l 0 257 q 13 281 0 269 l 14 281 l 14 78 q 56 50 14 55 q 231 65 147 65 q 453 47 300 65 q 492 46 463 46 q 668 56 668 50 q 687 75 687 64 l 687 430 l 686 436 m 497 428 l 498 428 l 498 363 q 484 317 498 322 l 482 317 q 483 345 483 337 l 483 395 q 497 428 483 419 "},"8":{"x_min":0,"x_max":740.625,"ha":751,"o":"m 365 993 l 385 993 q 619 917 541 993 q 647 821 647 887 q 687 741 647 776 q 645 599 645 700 q 612 565 645 589 q 602 539 602 552 l 602 535 q 626 497 602 514 q 647 440 647 480 l 647 421 q 687 314 647 348 l 687 314 q 645 184 645 281 q 611 119 643 155 q 383 51 537 51 l 377 51 q 153 109 238 51 q 101 216 101 143 q 64 320 101 294 l 64 322 q 97 380 93 354 q 103 459 101 392 q 141 514 106 478 q 147 536 147 526 q 121 579 147 560 q 101 653 101 593 q 50 754 101 708 q 95 804 86 777 q 105 867 101 817 q 156 938 116 910 q 365 993 241 993 m 631 927 q 685 788 685 885 q 695 757 687 770 l 695 756 l 694 756 q 661 848 661 776 q 631 925 661 887 l 631 927 m 92 893 l 94 893 l 94 891 q 83 826 83 870 q 69 793 80 810 l 67 793 q 75 857 70 836 q 92 893 83 876 m 253 708 l 253 615 q 318 554 253 554 q 358 553 334 553 l 396 553 q 486 576 480 553 q 496 635 495 576 l 496 691 q 475 761 496 756 q 434 771 463 771 l 330 771 q 261 748 274 771 q 253 708 253 728 m 338 753 l 421 753 q 469 744 461 753 q 477 686 477 735 l 477 644 q 465 579 477 579 q 462 578 465 578 l 462 681 q 454 703 462 703 q 418 705 440 705 l 357 705 q 292 695 292 705 q 290 661 290 678 l 290 607 q 291 575 290 596 q 269 598 269 583 q 267 631 267 613 l 267 688 q 284 746 267 746 q 338 753 292 753 m 23 750 q 83 633 83 712 q 120 555 83 580 q 129 535 129 547 q 113 512 129 522 l 113 512 q 69 601 69 541 q 7 710 69 680 q 0 725 0 718 l 0 731 q 23 750 0 744 m 712 739 l 712 739 q 738 717 738 731 l 738 712 q 716 687 738 701 q 683 572 683 659 q 668 534 680 548 q 638 508 662 528 l 637 508 q 616 536 616 523 q 642 567 616 551 q 661 635 661 576 q 694 725 661 682 q 712 739 704 734 m 253 453 l 253 352 q 334 288 253 288 l 430 288 q 491 322 477 288 q 496 365 496 337 l 496 440 q 472 510 496 495 q 436 520 457 520 l 322 520 q 257 478 271 520 q 253 453 253 467 m 318 502 l 436 502 q 473 476 463 502 q 477 434 477 467 l 477 370 q 463 314 477 320 l 462 314 l 462 427 q 438 454 462 454 l 328 454 q 291 427 291 454 q 290 412 290 427 l 290 335 q 292 311 290 320 q 269 343 269 321 q 267 360 267 349 l 267 440 q 288 493 267 486 q 318 502 301 502 m 647 499 l 647 499 q 684 396 684 474 q 698 328 684 344 l 698 327 l 697 327 q 661 432 661 349 l 661 449 q 647 499 661 472 m 90 478 l 90 476 q 82 395 82 459 q 65 349 82 381 l 63 349 q 70 431 70 371 q 90 478 78 463 m 37 314 q 72 280 61 305 q 84 185 84 257 q 122 110 86 152 q 368 33 215 33 l 389 33 q 628 112 547 33 q 659 187 659 153 q 670 259 663 248 q 704 304 678 288 q 716 310 713 310 q 740 286 740 299 l 740 280 q 722 261 740 271 q 694 233 712 261 q 683 155 683 211 q 653 80 678 115 q 394 -14 569 -14 l 371 -14 q 125 57 223 -14 q 69 182 69 103 q 38 266 69 252 q 15 289 15 271 q 37 314 15 305 "}}}
